<?xml version="1.0" encoding="utf-8"?>
<svg xmlns="http://www.w3.org/2000/svg" xmlns:xlink="http://www.w3.org/1999/xlink" width="600" height="400" viewBox="0 0 2400 1600">
<defs>
  <clipPath id="clip760">
    <rect x="0" y="0" width="2400" height="1600"/>
  </clipPath>
</defs>
<path clip-path="url(#clip760)" d="M0 1600 L2400 1600 L2400 0 L0 0  Z" fill="#ffffff" fill-rule="evenodd" fill-opacity="1"/>
<defs>
  <clipPath id="clip761">
    <rect x="480" y="0" width="1681" height="1600"/>
  </clipPath>
</defs>
<path clip-path="url(#clip760)" d="M306.321 1469.17 L2352.76 1469.17 L2352.76 47.2441 L306.321 47.2441  Z" fill="#ffffff" fill-rule="evenodd" fill-opacity="1"/>
<defs>
  <clipPath id="clip762">
    <rect x="306" y="47" width="2047" height="1423"/>
  </clipPath>
</defs>
<polyline clip-path="url(#clip762)" style="stroke:#000000; stroke-linecap:round; stroke-linejoin:round; stroke-width:2; stroke-opacity:0.1; fill:none" points="484.901,1469.17 484.901,47.2441 "/>
<polyline clip-path="url(#clip762)" style="stroke:#000000; stroke-linecap:round; stroke-linejoin:round; stroke-width:2; stroke-opacity:0.1; fill:none" points="907.22,1469.17 907.22,47.2441 "/>
<polyline clip-path="url(#clip762)" style="stroke:#000000; stroke-linecap:round; stroke-linejoin:round; stroke-width:2; stroke-opacity:0.1; fill:none" points="1329.54,1469.17 1329.54,47.2441 "/>
<polyline clip-path="url(#clip762)" style="stroke:#000000; stroke-linecap:round; stroke-linejoin:round; stroke-width:2; stroke-opacity:0.1; fill:none" points="1751.86,1469.17 1751.86,47.2441 "/>
<polyline clip-path="url(#clip762)" style="stroke:#000000; stroke-linecap:round; stroke-linejoin:round; stroke-width:2; stroke-opacity:0.1; fill:none" points="2174.18,1469.17 2174.18,47.2441 "/>
<polyline clip-path="url(#clip760)" style="stroke:#000000; stroke-linecap:round; stroke-linejoin:round; stroke-width:4; stroke-opacity:1; fill:none" points="306.321,1469.17 2352.76,1469.17 "/>
<polyline clip-path="url(#clip760)" style="stroke:#000000; stroke-linecap:round; stroke-linejoin:round; stroke-width:4; stroke-opacity:1; fill:none" points="484.901,1469.17 484.901,1450.27 "/>
<polyline clip-path="url(#clip760)" style="stroke:#000000; stroke-linecap:round; stroke-linejoin:round; stroke-width:4; stroke-opacity:1; fill:none" points="907.22,1469.17 907.22,1450.27 "/>
<polyline clip-path="url(#clip760)" style="stroke:#000000; stroke-linecap:round; stroke-linejoin:round; stroke-width:4; stroke-opacity:1; fill:none" points="1329.54,1469.17 1329.54,1450.27 "/>
<polyline clip-path="url(#clip760)" style="stroke:#000000; stroke-linecap:round; stroke-linejoin:round; stroke-width:4; stroke-opacity:1; fill:none" points="1751.86,1469.17 1751.86,1450.27 "/>
<polyline clip-path="url(#clip760)" style="stroke:#000000; stroke-linecap:round; stroke-linejoin:round; stroke-width:4; stroke-opacity:1; fill:none" points="2174.18,1469.17 2174.18,1450.27 "/>
<path clip-path="url(#clip760)" d="M425.11 1507.09 L425.11 1526.57 L433.929 1526.57 Q438.825 1526.57 441.499 1524.04 Q444.172 1521.5 444.172 1516.81 Q444.172 1512.16 441.499 1509.63 Q438.825 1507.09 433.929 1507.09 L425.11 1507.09 M418.096 1501.33 L433.929 1501.33 Q442.644 1501.33 447.089 1505.29 Q451.568 1509.21 451.568 1516.81 Q451.568 1524.49 447.089 1528.41 Q442.644 1532.33 433.929 1532.33 L425.11 1532.33 L425.11 1553.17 L418.096 1553.17 L418.096 1501.33 Z" fill="#000000" fill-rule="nonzero" fill-opacity="1" /><path clip-path="url(#clip760)" d="M499.797 1505.32 L499.797 1512.72 Q496.255 1509.42 492.227 1507.79 Q488.234 1506.15 483.721 1506.15 Q474.832 1506.15 470.11 1511.61 Q465.387 1517.02 465.387 1527.3 Q465.387 1537.54 470.11 1542.99 Q474.832 1548.41 483.721 1548.41 Q488.234 1548.41 492.227 1546.78 Q496.255 1545.15 499.797 1541.85 L499.797 1549.17 Q496.116 1551.67 491.984 1552.92 Q487.887 1554.17 483.304 1554.17 Q471.533 1554.17 464.762 1546.99 Q457.992 1539.77 457.992 1527.3 Q457.992 1514.8 464.762 1507.61 Q471.533 1500.39 483.304 1500.39 Q487.957 1500.39 492.054 1501.64 Q496.186 1502.86 499.797 1505.32 Z" fill="#000000" fill-rule="nonzero" fill-opacity="1" /><path clip-path="url(#clip760)" d="M527.956 1508.24 L518.443 1534.04 L537.505 1534.04 L527.956 1508.24 M523.998 1501.33 L531.949 1501.33 L551.706 1553.17 L544.415 1553.17 L539.692 1539.87 L516.325 1539.87 L511.602 1553.17 L504.207 1553.17 L523.998 1501.33 Z" fill="#000000" fill-rule="nonzero" fill-opacity="1" /><path clip-path="url(#clip760)" d="M751.005 1501.33 L758.019 1501.33 L758.019 1522.58 L783.505 1522.58 L783.505 1501.33 L790.519 1501.33 L790.519 1553.17 L783.505 1553.17 L783.505 1528.48 L758.019 1528.48 L758.019 1553.17 L751.005 1553.17 L751.005 1501.33 Z" fill="#000000" fill-rule="nonzero" fill-opacity="1" /><path clip-path="url(#clip760)" d="M837.463 1532.13 L837.463 1535.25 L808.088 1535.25 Q808.505 1541.85 812.047 1545.32 Q815.623 1548.76 821.977 1548.76 Q825.658 1548.76 829.095 1547.86 Q832.567 1546.95 835.97 1545.15 L835.97 1551.19 Q832.533 1552.65 828.922 1553.41 Q825.31 1554.17 821.595 1554.17 Q812.29 1554.17 806.838 1548.76 Q801.422 1543.34 801.422 1534.11 Q801.422 1524.56 806.561 1518.97 Q811.734 1513.34 820.484 1513.34 Q828.331 1513.34 832.88 1518.41 Q837.463 1523.45 837.463 1532.13 M831.074 1530.25 Q831.005 1525.01 828.123 1521.88 Q825.276 1518.76 820.553 1518.76 Q815.206 1518.76 811.977 1521.78 Q808.783 1524.8 808.297 1530.29 L831.074 1530.25 Z" fill="#000000" fill-rule="nonzero" fill-opacity="1" /><path clip-path="url(#clip760)" d="M855.241 1507.09 L855.241 1526.57 L864.06 1526.57 Q868.956 1526.57 871.63 1524.04 Q874.303 1521.5 874.303 1516.81 Q874.303 1512.16 871.63 1509.63 Q868.956 1507.09 864.06 1507.09 L855.241 1507.09 M848.227 1501.33 L864.06 1501.33 Q872.775 1501.33 877.22 1505.29 Q881.699 1509.21 881.699 1516.81 Q881.699 1524.49 877.22 1528.41 Q872.775 1532.33 864.06 1532.33 L855.241 1532.33 L855.241 1553.17 L848.227 1553.17 L848.227 1501.33 Z" fill="#000000" fill-rule="nonzero" fill-opacity="1" /><path clip-path="url(#clip760)" d="M898.123 1507.09 L898.123 1526.57 L906.942 1526.57 Q911.838 1526.57 914.511 1524.04 Q917.185 1521.5 917.185 1516.81 Q917.185 1512.16 914.511 1509.63 Q911.838 1507.09 906.942 1507.09 L898.123 1507.09 M891.109 1501.33 L906.942 1501.33 Q915.657 1501.33 920.102 1505.29 Q924.581 1509.21 924.581 1516.81 Q924.581 1524.49 920.102 1528.41 Q915.657 1532.33 906.942 1532.33 L898.123 1532.33 L898.123 1553.17 L891.109 1553.17 L891.109 1501.33 Z" fill="#000000" fill-rule="nonzero" fill-opacity="1" /><path clip-path="url(#clip760)" d="M972.81 1505.32 L972.81 1512.72 Q969.268 1509.42 965.24 1507.79 Q961.247 1506.15 956.733 1506.15 Q947.844 1506.15 943.122 1511.61 Q938.4 1517.02 938.4 1527.3 Q938.4 1537.54 943.122 1542.99 Q947.844 1548.41 956.733 1548.41 Q961.247 1548.41 965.24 1546.78 Q969.268 1545.15 972.81 1541.85 L972.81 1549.17 Q969.129 1551.67 964.997 1552.92 Q960.9 1554.17 956.317 1554.17 Q944.546 1554.17 937.775 1546.99 Q931.004 1539.77 931.004 1527.3 Q931.004 1514.8 937.775 1507.61 Q944.546 1500.39 956.317 1500.39 Q960.969 1500.39 965.067 1501.64 Q969.199 1502.86 972.81 1505.32 Z" fill="#000000" fill-rule="nonzero" fill-opacity="1" /><path clip-path="url(#clip760)" d="M1000.97 1508.24 L991.455 1534.04 L1010.52 1534.04 L1000.97 1508.24 M997.011 1501.33 L1004.96 1501.33 L1024.72 1553.17 L1017.43 1553.17 L1012.71 1539.87 L989.337 1539.87 L984.615 1553.17 L977.219 1553.17 L997.011 1501.33 Z" fill="#000000" fill-rule="nonzero" fill-opacity="1" /><path clip-path="url(#clip760)" d="M1019.58 1501.33 L1063.43 1501.33 L1063.43 1507.23 L1045.03 1507.23 L1045.03 1553.17 L1037.98 1553.17 L1037.98 1507.23 L1019.58 1507.23 L1019.58 1501.33 Z" fill="#000000" fill-rule="nonzero" fill-opacity="1" /><path clip-path="url(#clip760)" d="M1139.94 1501.33 L1146.95 1501.33 L1146.95 1547.27 L1172.2 1547.27 L1172.2 1553.17 L1139.94 1553.17 L1139.94 1501.33 Z" fill="#000000" fill-rule="nonzero" fill-opacity="1" /><path clip-path="url(#clip760)" d="M1204.14 1528.86 Q1206.4 1529.63 1208.51 1532.13 Q1210.67 1534.63 1212.82 1539 L1219.94 1553.17 L1212.4 1553.17 L1205.77 1539.87 Q1203.2 1534.66 1200.77 1532.96 Q1198.38 1531.26 1194.21 1531.26 L1186.57 1531.26 L1186.57 1553.17 L1179.56 1553.17 L1179.56 1501.33 L1195.39 1501.33 Q1204.28 1501.33 1208.65 1505.04 Q1213.03 1508.76 1213.03 1516.26 Q1213.03 1521.15 1210.74 1524.38 Q1208.48 1527.61 1204.14 1528.86 M1186.57 1507.09 L1186.57 1525.49 L1195.39 1525.49 Q1200.46 1525.49 1203.03 1523.17 Q1205.63 1520.81 1205.63 1516.26 Q1205.63 1511.71 1203.03 1509.42 Q1200.46 1507.09 1195.39 1507.09 L1186.57 1507.09 Z" fill="#000000" fill-rule="nonzero" fill-opacity="1" /><path clip-path="url(#clip760)" d="M1222.58 1530.84 L1241.29 1530.84 L1241.29 1536.54 L1222.58 1536.54 L1222.58 1530.84 Z" fill="#000000" fill-rule="nonzero" fill-opacity="1" /><path clip-path="url(#clip760)" d="M1267.51 1508.24 L1257.99 1534.04 L1277.06 1534.04 L1267.51 1508.24 M1263.55 1501.33 L1271.5 1501.33 L1291.26 1553.17 L1283.97 1553.17 L1279.24 1539.87 L1255.88 1539.87 L1251.15 1553.17 L1243.76 1553.17 L1263.55 1501.33 Z" fill="#000000" fill-rule="nonzero" fill-opacity="1" /><path clip-path="url(#clip760)" d="M1298.83 1501.33 L1305.84 1501.33 L1305.84 1547.27 L1331.08 1547.27 L1331.08 1553.17 L1298.83 1553.17 L1298.83 1501.33 Z" fill="#000000" fill-rule="nonzero" fill-opacity="1" /><path clip-path="url(#clip760)" d="M1345.46 1507.09 L1345.46 1526.57 L1354.28 1526.57 Q1359.17 1526.57 1361.85 1524.04 Q1364.52 1521.5 1364.52 1516.81 Q1364.52 1512.16 1361.85 1509.63 Q1359.17 1507.09 1354.28 1507.09 L1345.46 1507.09 M1338.44 1501.33 L1354.28 1501.33 Q1362.99 1501.33 1367.44 1505.29 Q1371.92 1509.21 1371.92 1516.81 Q1371.92 1524.49 1367.44 1528.41 Q1362.99 1532.33 1354.28 1532.33 L1345.46 1532.33 L1345.46 1553.17 L1338.44 1553.17 L1338.44 1501.33 Z" fill="#000000" fill-rule="nonzero" fill-opacity="1" /><path clip-path="url(#clip760)" d="M1420.15 1505.32 L1420.15 1512.72 Q1416.6 1509.42 1412.58 1507.79 Q1408.58 1506.15 1404.07 1506.15 Q1395.18 1506.15 1390.46 1511.61 Q1385.74 1517.02 1385.74 1527.3 Q1385.74 1537.54 1390.46 1542.99 Q1395.18 1548.41 1404.07 1548.41 Q1408.58 1548.41 1412.58 1546.78 Q1416.6 1545.15 1420.15 1541.85 L1420.15 1549.17 Q1416.46 1551.67 1412.33 1552.92 Q1408.24 1554.17 1403.65 1554.17 Q1391.88 1554.17 1385.11 1546.99 Q1378.34 1539.77 1378.34 1527.3 Q1378.34 1514.8 1385.11 1507.61 Q1391.88 1500.39 1403.65 1500.39 Q1408.31 1500.39 1412.4 1501.64 Q1416.53 1502.86 1420.15 1505.32 Z" fill="#000000" fill-rule="nonzero" fill-opacity="1" /><path clip-path="url(#clip760)" d="M1448.31 1508.24 L1438.79 1534.04 L1457.85 1534.04 L1448.31 1508.24 M1444.35 1501.33 L1452.3 1501.33 L1472.05 1553.17 L1464.76 1553.17 L1460.04 1539.87 L1436.67 1539.87 L1431.95 1553.17 L1424.56 1553.17 L1444.35 1501.33 Z" fill="#000000" fill-rule="nonzero" fill-opacity="1" /><path clip-path="url(#clip760)" d="M1479.62 1501.33 L1486.64 1501.33 L1486.64 1522.58 L1512.12 1522.58 L1512.12 1501.33 L1519.14 1501.33 L1519.14 1553.17 L1512.12 1553.17 L1512.12 1528.48 L1486.64 1528.48 L1486.64 1553.17 L1479.62 1553.17 L1479.62 1501.33 Z" fill="#000000" fill-rule="nonzero" fill-opacity="1" /><path clip-path="url(#clip760)" d="M1637.92 1508.24 L1628.4 1534.04 L1647.47 1534.04 L1637.92 1508.24 M1633.96 1501.33 L1641.91 1501.33 L1661.67 1553.17 L1654.37 1553.17 L1649.65 1539.87 L1626.28 1539.87 L1621.56 1553.17 L1614.17 1553.17 L1633.96 1501.33 Z" fill="#000000" fill-rule="nonzero" fill-opacity="1" /><path clip-path="url(#clip760)" d="M1669.24 1501.33 L1676.25 1501.33 L1676.25 1547.27 L1701.49 1547.27 L1701.49 1553.17 L1669.24 1553.17 L1669.24 1501.33 Z" fill="#000000" fill-rule="nonzero" fill-opacity="1" /><path clip-path="url(#clip760)" d="M1715.87 1507.09 L1715.87 1526.57 L1724.69 1526.57 Q1729.58 1526.57 1732.26 1524.04 Q1734.93 1521.5 1734.93 1516.81 Q1734.93 1512.16 1732.26 1509.63 Q1729.58 1507.09 1724.69 1507.09 L1715.87 1507.09 M1708.85 1501.33 L1724.69 1501.33 Q1733.4 1501.33 1737.85 1505.29 Q1742.33 1509.21 1742.33 1516.81 Q1742.33 1524.49 1737.85 1528.41 Q1733.4 1532.33 1724.69 1532.33 L1715.87 1532.33 L1715.87 1553.17 L1708.85 1553.17 L1708.85 1501.33 Z" fill="#000000" fill-rule="nonzero" fill-opacity="1" /><path clip-path="url(#clip760)" d="M1790.55 1505.32 L1790.55 1512.72 Q1787.01 1509.42 1782.99 1507.79 Q1778.99 1506.15 1774.48 1506.15 Q1765.59 1506.15 1760.87 1511.61 Q1756.15 1517.02 1756.15 1527.3 Q1756.15 1537.54 1760.87 1542.99 Q1765.59 1548.41 1774.48 1548.41 Q1778.99 1548.41 1782.99 1546.78 Q1787.01 1545.15 1790.55 1541.85 L1790.55 1549.17 Q1786.87 1551.67 1782.74 1552.92 Q1778.64 1554.17 1774.06 1554.17 Q1762.29 1554.17 1755.52 1546.99 Q1748.75 1539.77 1748.75 1527.3 Q1748.75 1514.8 1755.52 1507.61 Q1762.29 1500.39 1774.06 1500.39 Q1778.71 1500.39 1782.81 1501.64 Q1786.94 1502.86 1790.55 1505.32 Z" fill="#000000" fill-rule="nonzero" fill-opacity="1" /><path clip-path="url(#clip760)" d="M1818.71 1508.24 L1809.2 1534.04 L1828.26 1534.04 L1818.71 1508.24 M1814.76 1501.33 L1822.71 1501.33 L1842.46 1553.17 L1835.17 1553.17 L1830.45 1539.87 L1807.08 1539.87 L1802.36 1553.17 L1794.96 1553.17 L1814.76 1501.33 Z" fill="#000000" fill-rule="nonzero" fill-opacity="1" /><path clip-path="url(#clip760)" d="M1850.03 1501.33 L1857.05 1501.33 L1857.05 1522.58 L1882.53 1522.58 L1882.53 1501.33 L1889.55 1501.33 L1889.55 1553.17 L1882.53 1553.17 L1882.53 1528.48 L1857.05 1528.48 L1857.05 1553.17 L1850.03 1553.17 L1850.03 1501.33 Z" fill="#000000" fill-rule="nonzero" fill-opacity="1" /><path clip-path="url(#clip760)" d="M2107.25 1528.86 Q2109.51 1529.63 2111.62 1532.13 Q2113.78 1534.63 2115.93 1539 L2123.05 1553.17 L2115.51 1553.17 L2108.88 1539.87 Q2106.31 1534.66 2103.88 1532.96 Q2101.48 1531.26 2097.32 1531.26 L2089.68 1531.26 L2089.68 1553.17 L2082.67 1553.17 L2082.67 1501.33 L2098.5 1501.33 Q2107.39 1501.33 2111.76 1505.04 Q2116.14 1508.76 2116.14 1516.26 Q2116.14 1521.15 2113.85 1524.38 Q2111.59 1527.61 2107.25 1528.86 M2089.68 1507.09 L2089.68 1525.49 L2098.5 1525.49 Q2103.57 1525.49 2106.14 1523.17 Q2108.74 1520.81 2108.74 1516.26 Q2108.74 1511.71 2106.14 1509.42 Q2103.57 1507.09 2098.5 1507.09 L2089.68 1507.09 Z" fill="#000000" fill-rule="nonzero" fill-opacity="1" /><path clip-path="url(#clip760)" d="M2139.09 1507.09 L2139.09 1526.57 L2147.91 1526.57 Q2152.8 1526.57 2155.48 1524.04 Q2158.15 1521.5 2158.15 1516.81 Q2158.15 1512.16 2155.48 1509.63 Q2152.8 1507.09 2147.91 1507.09 L2139.09 1507.09 M2132.08 1501.33 L2147.91 1501.33 Q2156.62 1501.33 2161.07 1505.29 Q2165.55 1509.21 2165.55 1516.81 Q2165.55 1524.49 2161.07 1528.41 Q2156.62 1532.33 2147.91 1532.33 L2139.09 1532.33 L2139.09 1553.17 L2132.08 1553.17 L2132.08 1501.33 Z" fill="#000000" fill-rule="nonzero" fill-opacity="1" /><path clip-path="url(#clip760)" d="M2213.78 1505.32 L2213.78 1512.72 Q2210.23 1509.42 2206.21 1507.79 Q2202.21 1506.15 2197.7 1506.15 Q2188.81 1506.15 2184.09 1511.61 Q2179.37 1517.02 2179.37 1527.3 Q2179.37 1537.54 2184.09 1542.99 Q2188.81 1548.41 2197.7 1548.41 Q2202.21 1548.41 2206.21 1546.78 Q2210.23 1545.15 2213.78 1541.85 L2213.78 1549.17 Q2210.1 1551.67 2205.96 1552.92 Q2201.87 1554.17 2197.28 1554.17 Q2185.51 1554.17 2178.74 1546.99 Q2171.97 1539.77 2171.97 1527.3 Q2171.97 1514.8 2178.74 1507.61 Q2185.51 1500.39 2197.28 1500.39 Q2201.94 1500.39 2206.03 1501.64 Q2210.16 1502.86 2213.78 1505.32 Z" fill="#000000" fill-rule="nonzero" fill-opacity="1" /><path clip-path="url(#clip760)" d="M2241.94 1508.24 L2232.42 1534.04 L2251.48 1534.04 L2241.94 1508.24 M2237.98 1501.33 L2245.93 1501.33 L2265.69 1553.17 L2258.39 1553.17 L2253.67 1539.87 L2230.3 1539.87 L2225.58 1553.17 L2218.19 1553.17 L2237.98 1501.33 Z" fill="#000000" fill-rule="nonzero" fill-opacity="1" /><polyline clip-path="url(#clip762)" style="stroke:#000000; stroke-linecap:round; stroke-linejoin:round; stroke-width:2; stroke-opacity:0.1; fill:none" points="306.321,1218.78 2352.76,1218.78 "/>
<polyline clip-path="url(#clip762)" style="stroke:#000000; stroke-linecap:round; stroke-linejoin:round; stroke-width:2; stroke-opacity:0.1; fill:none" points="306.321,940.788 2352.76,940.788 "/>
<polyline clip-path="url(#clip762)" style="stroke:#000000; stroke-linecap:round; stroke-linejoin:round; stroke-width:2; stroke-opacity:0.1; fill:none" points="306.321,662.793 2352.76,662.793 "/>
<polyline clip-path="url(#clip762)" style="stroke:#000000; stroke-linecap:round; stroke-linejoin:round; stroke-width:2; stroke-opacity:0.1; fill:none" points="306.321,384.798 2352.76,384.798 "/>
<polyline clip-path="url(#clip762)" style="stroke:#000000; stroke-linecap:round; stroke-linejoin:round; stroke-width:2; stroke-opacity:0.1; fill:none" points="306.321,106.804 2352.76,106.804 "/>
<polyline clip-path="url(#clip760)" style="stroke:#000000; stroke-linecap:round; stroke-linejoin:round; stroke-width:4; stroke-opacity:1; fill:none" points="306.321,1469.17 306.321,47.2441 "/>
<polyline clip-path="url(#clip760)" style="stroke:#000000; stroke-linecap:round; stroke-linejoin:round; stroke-width:4; stroke-opacity:1; fill:none" points="306.321,1218.78 325.218,1218.78 "/>
<polyline clip-path="url(#clip760)" style="stroke:#000000; stroke-linecap:round; stroke-linejoin:round; stroke-width:4; stroke-opacity:1; fill:none" points="306.321,940.788 325.218,940.788 "/>
<polyline clip-path="url(#clip760)" style="stroke:#000000; stroke-linecap:round; stroke-linejoin:round; stroke-width:4; stroke-opacity:1; fill:none" points="306.321,662.793 325.218,662.793 "/>
<polyline clip-path="url(#clip760)" style="stroke:#000000; stroke-linecap:round; stroke-linejoin:round; stroke-width:4; stroke-opacity:1; fill:none" points="306.321,384.798 325.218,384.798 "/>
<polyline clip-path="url(#clip760)" style="stroke:#000000; stroke-linecap:round; stroke-linejoin:round; stroke-width:4; stroke-opacity:1; fill:none" points="306.321,106.804 325.218,106.804 "/>
<path clip-path="url(#clip760)" d="M183.828 1197.48 Q178.411 1197.48 175.668 1202.83 Q172.96 1208.14 172.96 1218.83 Q172.96 1229.49 175.668 1234.84 Q178.411 1240.15 183.828 1240.15 Q189.279 1240.15 191.988 1234.84 Q194.731 1229.49 194.731 1218.83 Q194.731 1208.14 191.988 1202.83 Q189.279 1197.48 183.828 1197.48 M183.828 1191.93 Q192.543 1191.93 197.127 1198.83 Q201.745 1205.71 201.745 1218.83 Q201.745 1231.92 197.127 1238.83 Q192.543 1245.71 183.828 1245.71 Q175.113 1245.71 170.495 1238.83 Q165.912 1231.92 165.912 1218.83 Q165.912 1205.71 170.495 1198.83 Q175.113 1191.93 183.828 1191.93 Z" fill="#000000" fill-rule="nonzero" fill-opacity="1" /><path clip-path="url(#clip760)" d="M214.071 1235.88 L221.397 1235.88 L221.397 1244.7 L214.071 1244.7 L214.071 1235.88 Z" fill="#000000" fill-rule="nonzero" fill-opacity="1" /><path clip-path="url(#clip760)" d="M255.946 1198.97 L238.238 1226.65 L255.946 1226.65 L255.946 1198.97 M254.105 1192.86 L262.925 1192.86 L262.925 1226.65 L270.321 1226.65 L270.321 1232.48 L262.925 1232.48 L262.925 1244.7 L255.946 1244.7 L255.946 1232.48 L232.543 1232.48 L232.543 1225.71 L254.105 1192.86 Z" fill="#000000" fill-rule="nonzero" fill-opacity="1" /><path clip-path="url(#clip760)" d="M186.05 919.486 Q180.634 919.486 177.891 924.833 Q175.182 930.146 175.182 940.84 Q175.182 951.5 177.891 956.847 Q180.634 962.159 186.05 962.159 Q191.502 962.159 194.21 956.847 Q196.953 951.5 196.953 940.84 Q196.953 930.146 194.21 924.833 Q191.502 919.486 186.05 919.486 M186.05 913.93 Q194.766 913.93 199.349 920.84 Q203.967 927.715 203.967 940.84 Q203.967 953.93 199.349 960.84 Q194.766 967.715 186.05 967.715 Q177.335 967.715 172.717 960.84 Q168.134 953.93 168.134 940.84 Q168.134 927.715 172.717 920.84 Q177.335 913.93 186.05 913.93 Z" fill="#000000" fill-rule="nonzero" fill-opacity="1" /><path clip-path="url(#clip760)" d="M216.293 957.888 L223.62 957.888 L223.62 966.708 L216.293 966.708 L216.293 957.888 Z" fill="#000000" fill-rule="nonzero" fill-opacity="1" /><path clip-path="url(#clip760)" d="M238.967 914.868 L266.501 914.868 L266.501 920.771 L245.39 920.771 L245.39 933.479 Q246.918 932.958 248.446 932.715 Q249.974 932.437 251.501 932.437 Q260.182 932.437 265.251 937.194 Q270.321 941.951 270.321 950.076 Q270.321 958.444 265.112 963.097 Q259.904 967.715 250.425 967.715 Q247.161 967.715 243.758 967.159 Q240.39 966.604 236.779 965.493 L236.779 958.444 Q239.904 960.145 243.237 960.979 Q246.571 961.812 250.286 961.812 Q256.293 961.812 259.8 958.652 Q263.307 955.493 263.307 950.076 Q263.307 944.659 259.8 941.5 Q256.293 938.34 250.286 938.34 Q247.474 938.34 244.661 938.965 Q241.883 939.59 238.967 940.909 L238.967 914.868 Z" fill="#000000" fill-rule="nonzero" fill-opacity="1" /><path clip-path="url(#clip760)" d="M184.314 641.491 Q178.898 641.491 176.155 646.838 Q173.446 652.151 173.446 662.845 Q173.446 673.505 176.155 678.852 Q178.898 684.165 184.314 684.165 Q189.766 684.165 192.474 678.852 Q195.217 673.505 195.217 662.845 Q195.217 652.151 192.474 646.838 Q189.766 641.491 184.314 641.491 M184.314 635.936 Q193.029 635.936 197.613 642.845 Q202.231 649.72 202.231 662.845 Q202.231 675.935 197.613 682.845 Q193.029 689.72 184.314 689.72 Q175.599 689.72 170.981 682.845 Q166.398 675.935 166.398 662.845 Q166.398 649.72 170.981 642.845 Q175.599 635.936 184.314 635.936 Z" fill="#000000" fill-rule="nonzero" fill-opacity="1" /><path clip-path="url(#clip760)" d="M214.557 679.894 L221.883 679.894 L221.883 688.713 L214.557 688.713 L214.557 679.894 Z" fill="#000000" fill-rule="nonzero" fill-opacity="1" /><path clip-path="url(#clip760)" d="M253.029 659.998 Q248.307 659.998 245.529 663.227 Q242.786 666.456 242.786 672.081 Q242.786 677.672 245.529 680.935 Q248.307 684.165 253.029 684.165 Q257.751 684.165 260.494 680.935 Q263.272 677.672 263.272 672.081 Q263.272 666.456 260.494 663.227 Q257.751 659.998 253.029 659.998 M266.953 638.019 L266.953 644.408 Q264.314 643.158 261.605 642.498 Q258.932 641.838 256.293 641.838 Q249.349 641.838 245.668 646.526 Q242.022 651.213 241.501 660.692 Q243.55 657.672 246.64 656.074 Q249.731 654.442 253.446 654.442 Q261.258 654.442 265.772 659.199 Q270.321 663.922 270.321 672.081 Q270.321 680.067 265.598 684.894 Q260.876 689.72 253.029 689.72 Q244.036 689.72 239.279 682.845 Q234.522 675.935 234.522 662.845 Q234.522 650.554 240.356 643.262 Q246.189 635.936 256.015 635.936 Q258.654 635.936 261.328 636.456 Q264.036 636.977 266.953 638.019 Z" fill="#000000" fill-rule="nonzero" fill-opacity="1" /><path clip-path="url(#clip760)" d="M185.911 363.496 Q180.495 363.496 177.752 368.844 Q175.043 374.156 175.043 384.851 Q175.043 395.51 177.752 400.857 Q180.495 406.17 185.911 406.17 Q191.363 406.17 194.071 400.857 Q196.814 395.51 196.814 384.851 Q196.814 374.156 194.071 368.844 Q191.363 363.496 185.911 363.496 M185.911 357.941 Q194.627 357.941 199.21 364.851 Q203.828 371.726 203.828 384.851 Q203.828 397.941 199.21 404.85 Q194.627 411.725 185.911 411.725 Q177.196 411.725 172.578 404.85 Q167.995 397.941 167.995 384.851 Q167.995 371.726 172.578 364.851 Q177.196 357.941 185.911 357.941 Z" fill="#000000" fill-rule="nonzero" fill-opacity="1" /><path clip-path="url(#clip760)" d="M216.154 401.899 L223.481 401.899 L223.481 410.718 L216.154 410.718 L216.154 401.899 Z" fill="#000000" fill-rule="nonzero" fill-opacity="1" /><path clip-path="url(#clip760)" d="M236.988 358.878 L270.321 358.878 L270.321 361.865 L251.501 410.718 L244.175 410.718 L261.883 364.781 L236.988 364.781 L236.988 358.878 Z" fill="#000000" fill-rule="nonzero" fill-opacity="1" /><path clip-path="url(#clip760)" d="M184.696 85.5018 Q179.279 85.5018 176.536 90.849 Q173.828 96.1614 173.828 106.856 Q173.828 117.515 176.536 122.863 Q179.279 128.175 184.696 128.175 Q190.147 128.175 192.856 122.863 Q195.599 117.515 195.599 106.856 Q195.599 96.1614 192.856 90.849 Q190.147 85.5018 184.696 85.5018 M184.696 79.9462 Q193.411 79.9462 197.995 86.8559 Q202.613 93.7309 202.613 106.856 Q202.613 119.946 197.995 126.856 Q193.411 133.731 184.696 133.731 Q175.981 133.731 171.363 126.856 Q166.78 119.946 166.78 106.856 Q166.78 93.7309 171.363 86.8559 Q175.981 79.9462 184.696 79.9462 Z" fill="#000000" fill-rule="nonzero" fill-opacity="1" /><path clip-path="url(#clip760)" d="M214.939 123.904 L222.265 123.904 L222.265 132.724 L214.939 132.724 L214.939 123.904 Z" fill="#000000" fill-rule="nonzero" fill-opacity="1" /><path clip-path="url(#clip760)" d="M252.543 108.106 Q247.543 108.106 244.661 110.779 Q241.814 113.453 241.814 118.14 Q241.814 122.828 244.661 125.502 Q247.543 128.175 252.543 128.175 Q257.543 128.175 260.425 125.502 Q263.307 122.793 263.307 118.14 Q263.307 113.453 260.425 110.779 Q257.578 108.106 252.543 108.106 M245.529 105.12 Q241.015 104.009 238.481 100.918 Q235.981 97.8281 235.981 93.3837 Q235.981 87.1684 240.39 83.5573 Q244.835 79.9462 252.543 79.9462 Q260.286 79.9462 264.696 83.5573 Q269.105 87.1684 269.105 93.3837 Q269.105 97.8281 266.571 100.918 Q264.071 104.009 259.592 105.12 Q264.661 106.3 267.473 109.738 Q270.321 113.175 270.321 118.14 Q270.321 125.675 265.703 129.703 Q261.119 133.731 252.543 133.731 Q243.967 133.731 239.349 129.703 Q234.765 125.675 234.765 118.14 Q234.765 113.175 237.613 109.738 Q240.46 106.3 245.529 105.12 M242.96 94.0434 Q242.96 98.0711 245.46 100.328 Q247.994 102.585 252.543 102.585 Q257.057 102.585 259.592 100.328 Q262.161 98.0711 262.161 94.0434 Q262.161 90.0156 259.592 87.7587 Q257.057 85.5018 252.543 85.5018 Q247.994 85.5018 245.46 87.7587 Q242.96 90.0156 242.96 94.0434 Z" fill="#000000" fill-rule="nonzero" fill-opacity="1" /><path clip-path="url(#clip760)" d="M115.022 1271.8 L24.9859 1271.8 Q22.1284 1271.8 22.1284 1269.88 Q22.1284 1267.96 25.1265 1267.96 L114.788 1267.96 Q117.879 1267.96 117.879 1269.88 Q117.879 1271.8 115.022 1271.8 M115.022 1261.22 L25.6886 1261.22 Q22.1284 1261.22 22.1284 1259.3 Q22.1284 1257.38 25.1265 1257.38 L114.788 1257.38 Q117.879 1257.38 117.879 1259.3 Q117.879 1261.22 115.022 1261.22 Z" fill="#000000" fill-rule="nonzero" fill-opacity="1" /><path clip-path="url(#clip760)" d="M29.5299 1157.82 Q31.4505 1157.82 31.4505 1159.42 Q31.5442 1162.23 32.1064 1164.15 Q32.6217 1166.07 33.6522 1167.19 Q34.6828 1168.27 35.8071 1168.88 Q36.8845 1169.44 38.5241 1169.82 L72.5804 1178.34 Q82.1836 1180.78 89.1634 1188.65 Q96.0965 1196.52 96.0965 1205.47 Q96.0965 1210.57 93.9885 1214.83 Q91.8804 1219.05 87.6176 1221.67 Q83.3547 1224.3 77.6864 1224.3 Q74.9694 1224.3 72.1119 1223.59 L48.4084 1217.79 L39.9763 1215.63 Q33.7459 1214.04 33.1838 1214.04 Q32.2937 1214.04 32.0595 1214.6 Q31.7785 1215.12 31.6379 1216.61 L31.4505 1220.27 Q31.4505 1221.39 31.4037 1221.86 Q31.3568 1222.28 31.1226 1222.61 Q30.8884 1222.94 30.3731 1222.94 Q29.7173 1222.94 29.2957 1222.8 Q28.8272 1222.61 28.6867 1222.28 Q28.5462 1221.95 28.4993 1221.72 Q28.4525 1221.49 28.4525 1221.11 L28.7335 1208.74 L28.4525 1196.47 Q28.4525 1195.11 29.5299 1195.11 Q30.8884 1195.11 31.1695 1195.72 Q31.4505 1196.33 31.4505 1198.39 Q31.4505 1201.91 31.919 1203.5 Q32.3406 1205.04 33.0901 1205.51 Q33.7928 1205.93 35.854 1206.45 L73.1893 1215.77 Q75.0631 1216.24 76.9369 1216.52 Q78.7639 1216.76 79.7008 1216.76 L80.6377 1216.8 Q86.587 1216.8 89.8661 1213.52 Q93.1453 1210.2 93.1453 1205.09 Q93.1453 1197.6 87.196 1190.62 Q81.2467 1183.59 71.9245 1181.2 L37.6809 1172.58 Q36.8377 1172.3 35.6666 1172.3 Q33.7928 1172.3 32.6685 1173.7 Q31.4974 1175.06 31.4505 1178.81 Q31.4505 1180.54 30.3731 1180.54 Q29.4831 1180.54 29.0614 1180.22 Q28.593 1179.84 28.5462 1179.56 Q28.4525 1179.23 28.4525 1178.81 Q28.4525 1177.22 28.593 1173.85 Q28.7335 1170.47 28.7335 1168.83 Q28.7335 1167.19 28.593 1163.91 Q28.4525 1160.63 28.4525 1159.04 Q28.4525 1158.48 28.7335 1158.2 Q28.9678 1157.87 29.2488 1157.82 L29.5299 1157.82 Z" fill="#000000" fill-rule="nonzero" fill-opacity="1" /><path clip-path="url(#clip760)" d="M103.284 1148.23 Q102.137 1148.23 101.383 1146.69 L96.9557 1137.34 L92.5288 1146.82 Q91.873 1148.23 90.7253 1148.23 Q90.0695 1148.23 89.4792 1147.7 Q88.8562 1147.15 88.8562 1146.43 Q88.8562 1145.9 89.5776 1144.95 L95.6112 1136.62 Q84.5277 1137.64 84.1998 1137.6 Q83.544 1137.6 83.0521 1137.11 Q82.5274 1136.62 82.5274 1135.8 Q82.5274 1135.15 83.0193 1134.62 Q83.4784 1134.06 84.1998 1134.06 L95.6112 1135.05 L90.1023 1127.6 Q88.8234 1125.87 88.8562 1125.24 Q88.8562 1124.49 89.4464 1123.96 Q90.0367 1123.44 90.7253 1123.44 Q91.873 1123.44 92.5944 1124.98 L97.0212 1134.33 L101.481 1124.85 Q102.137 1123.44 103.284 1123.44 Q103.94 1123.44 104.563 1124 Q105.154 1124.52 105.154 1125.24 Q105.154 1125.64 104.76 1126.32 Q104.694 1126.46 103.645 1127.87 Q102.596 1129.28 100.989 1131.47 Q99.3822 1133.64 98.3657 1135.05 Q109.449 1134.03 109.777 1134.06 Q110.433 1134.06 110.958 1134.56 Q111.482 1135.05 111.482 1135.87 Q111.482 1136.52 111.023 1137.08 Q110.531 1137.6 109.777 1137.6 L98.3657 1136.62 L105.154 1146 Q105.154 1147.02 104.662 1147.57 Q104.137 1148.1 103.842 1148.16 Q103.547 1148.23 103.284 1148.23 Z" fill="#000000" fill-rule="nonzero" fill-opacity="1" /><path clip-path="url(#clip760)" d="M29.5299 1038.26 Q31.4505 1038.26 31.4505 1039.85 Q31.5442 1042.66 32.1064 1044.58 Q32.6217 1046.51 33.6522 1047.63 Q34.6828 1048.71 35.8071 1049.32 Q36.8845 1049.88 38.5241 1050.25 L72.5804 1058.78 Q82.1836 1061.21 89.1634 1069.08 Q96.0965 1076.95 96.0965 1085.9 Q96.0965 1091.01 93.9885 1095.27 Q91.8804 1099.49 87.6176 1102.11 Q83.3547 1104.73 77.6864 1104.73 Q74.9694 1104.73 72.1119 1104.03 L48.4084 1098.22 L39.9763 1096.07 Q33.7459 1094.47 33.1838 1094.47 Q32.2937 1094.47 32.0595 1095.04 Q31.7785 1095.55 31.6379 1097.05 L31.4505 1100.7 Q31.4505 1101.83 31.4037 1102.3 Q31.3568 1102.72 31.1226 1103.05 Q30.8884 1103.38 30.3731 1103.38 Q29.7173 1103.38 29.2957 1103.23 Q28.8272 1103.05 28.6867 1102.72 Q28.5462 1102.39 28.4993 1102.16 Q28.4525 1101.92 28.4525 1101.55 L28.7335 1089.18 L28.4525 1076.91 Q28.4525 1075.55 29.5299 1075.55 Q30.8884 1075.55 31.1695 1076.16 Q31.4505 1076.77 31.4505 1078.83 Q31.4505 1082.34 31.919 1083.93 Q32.3406 1085.48 33.0901 1085.95 Q33.7928 1086.37 35.854 1086.89 L73.1893 1096.21 Q75.0631 1096.68 76.9369 1096.96 Q78.7639 1097.19 79.7008 1097.19 L80.6377 1097.24 Q86.587 1097.24 89.8661 1093.96 Q93.1453 1090.63 93.1453 1085.53 Q93.1453 1078.03 87.196 1071.05 Q81.2467 1064.03 71.9245 1061.64 L37.6809 1053.02 Q36.8377 1052.74 35.6666 1052.74 Q33.7928 1052.74 32.6685 1054.14 Q31.4974 1055.5 31.4505 1059.25 Q31.4505 1060.98 30.3731 1060.98 Q29.4831 1060.98 29.0614 1060.65 Q28.593 1060.28 28.5462 1060 Q28.4525 1059.67 28.4525 1059.25 Q28.4525 1057.65 28.593 1054.28 Q28.7335 1050.91 28.7335 1049.27 Q28.7335 1047.63 28.593 1044.35 Q28.4525 1041.07 28.4525 1039.48 Q28.4525 1038.92 28.7335 1038.64 Q28.9678 1038.31 29.2488 1038.26 L29.5299 1038.26 Z" fill="#000000" fill-rule="nonzero" fill-opacity="1" /><path clip-path="url(#clip760)" d="M103.284 1028.67 Q102.137 1028.67 101.383 1027.12 L96.9557 1017.78 L92.5288 1027.26 Q91.873 1028.67 90.7253 1028.67 Q90.0695 1028.67 89.4792 1028.14 Q88.8562 1027.58 88.8562 1026.86 Q88.8562 1026.34 89.5776 1025.39 L95.6112 1017.06 Q84.5277 1018.07 84.1998 1018.04 Q83.544 1018.04 83.0521 1017.55 Q82.5274 1017.06 82.5274 1016.24 Q82.5274 1015.58 83.0193 1015.06 Q83.4784 1014.5 84.1998 1014.5 L95.6112 1015.48 L90.1023 1008.04 Q88.8234 1006.3 88.8562 1005.68 Q88.8562 1004.92 89.4464 1004.4 Q90.0367 1003.88 90.7253 1003.88 Q91.873 1003.88 92.5944 1005.42 L97.0212 1014.76 L101.481 1005.29 Q102.137 1003.88 103.284 1003.88 Q103.94 1003.88 104.563 1004.43 Q105.154 1004.96 105.154 1005.68 Q105.154 1006.07 104.76 1006.76 Q104.694 1006.89 103.645 1008.3 Q102.596 1009.71 100.989 1011.91 Q99.3822 1014.07 98.3657 1015.48 Q109.449 1014.47 109.777 1014.5 Q110.433 1014.5 110.958 1014.99 Q111.482 1015.48 111.482 1016.3 Q111.482 1016.96 111.023 1017.52 Q110.531 1018.04 109.777 1018.04 L98.3657 1017.06 L105.154 1026.44 Q105.154 1027.45 104.662 1028.01 Q104.137 1028.53 103.842 1028.6 Q103.547 1028.67 103.284 1028.67 Z" fill="#000000" fill-rule="nonzero" fill-opacity="1" /><path clip-path="url(#clip760)" d="M-1.34896 1023.34 Q-3.02133 1023.34 -3.70995 1022.33 Q-4.43136 1021.31 -4.43136 1020.23 Q-4.43136 1018.88 -3.61157 1018.03 Q-2.82458 1017.15 -1.34896 1017.15 Q-0.693135 1017.15 -0.332429 1017.21 L19.9327 1019.44 L19.9327 1020.98 L-0.332429 1023.28 Q-0.693135 1023.34 -1.34896 1023.34 Z" fill="#000000" fill-rule="nonzero" fill-opacity="1" /><path clip-path="url(#clip760)" d="M68.6454 884.982 Q69.2075 884.42 70.0039 884.42 Q70.8002 884.42 71.3624 884.982 Q71.9245 885.544 71.9245 886.34 L71.9245 946.395 Q71.9245 947.192 71.3624 947.754 Q70.8002 948.316 70.0039 948.316 Q69.2075 948.316 68.6454 947.754 Q68.0832 947.192 68.0832 946.395 L68.0832 886.34 Q68.0832 885.544 68.6454 884.982 Z" fill="#000000" fill-rule="nonzero" fill-opacity="1" /><path clip-path="url(#clip760)" d="M29.5299 781.323 Q31.4505 781.323 31.4505 782.916 Q31.5442 785.726 32.1064 787.647 Q32.6217 789.568 33.6522 790.692 Q34.6828 791.769 35.8071 792.378 Q36.8845 792.941 38.5241 793.315 L72.5804 801.841 Q82.1836 804.277 89.1634 812.147 Q96.0965 820.017 96.0965 828.964 Q96.0965 834.07 93.9885 838.333 Q91.8804 842.549 87.6176 845.173 Q83.3547 847.796 77.6864 847.796 Q74.9694 847.796 72.1119 847.093 L48.4084 841.284 L39.9763 839.13 Q33.7459 837.537 33.1838 837.537 Q32.2937 837.537 32.0595 838.099 Q31.7785 838.614 31.6379 840.113 L31.4505 843.767 Q31.4505 844.892 31.4037 845.36 Q31.3568 845.782 31.1226 846.109 Q30.8884 846.437 30.3731 846.437 Q29.7173 846.437 29.2957 846.297 Q28.8272 846.109 28.6867 845.782 Q28.5462 845.454 28.4993 845.219 Q28.4525 844.985 28.4525 844.61 L28.7335 832.243 L28.4525 819.97 Q28.4525 818.612 29.5299 818.612 Q30.8884 818.612 31.1695 819.221 Q31.4505 819.83 31.4505 821.891 Q31.4505 825.404 31.919 826.997 Q32.3406 828.543 33.0901 829.011 Q33.7928 829.433 35.854 829.948 L73.1893 839.27 Q75.0631 839.739 76.9369 840.02 Q78.7639 840.254 79.7008 840.254 L80.6377 840.301 Q86.587 840.301 89.8661 837.022 Q93.1453 833.696 93.1453 828.589 Q93.1453 821.094 87.196 814.114 Q81.2467 807.088 71.9245 804.699 L37.6809 796.079 Q36.8377 795.798 35.6666 795.798 Q33.7928 795.798 32.6685 797.203 Q31.4974 798.562 31.4505 802.31 Q31.4505 804.043 30.3731 804.043 Q29.4831 804.043 29.0614 803.715 Q28.593 803.34 28.5462 803.059 Q28.4525 802.731 28.4525 802.31 Q28.4525 800.717 28.593 797.344 Q28.7335 793.971 28.7335 792.332 Q28.7335 790.692 28.593 787.413 Q28.4525 784.134 28.4525 782.541 Q28.4525 781.979 28.7335 781.698 Q28.9678 781.37 29.2488 781.323 L29.5299 781.323 Z" fill="#000000" fill-rule="nonzero" fill-opacity="1" /><path clip-path="url(#clip760)" d="M29.5299 705.712 Q31.4505 705.712 31.4505 707.304 Q31.5442 710.115 32.1064 712.036 Q32.6217 713.956 33.6522 715.081 Q34.6828 716.158 35.8071 716.767 Q36.8845 717.329 38.5241 717.704 L72.5804 726.23 Q82.1836 728.666 89.1634 736.536 Q96.0965 744.406 96.0965 753.353 Q96.0965 758.459 93.9885 762.722 Q91.8804 766.938 87.6176 769.561 Q83.3547 772.185 77.6864 772.185 Q74.9694 772.185 72.1119 771.482 L48.4084 765.673 L39.9763 763.518 Q33.7459 761.926 33.1838 761.926 Q32.2937 761.926 32.0595 762.488 Q31.7785 763.003 31.6379 764.502 L31.4505 768.156 Q31.4505 769.28 31.4037 769.749 Q31.3568 770.17 31.1226 770.498 Q30.8884 770.826 30.3731 770.826 Q29.7173 770.826 29.2957 770.686 Q28.8272 770.498 28.6867 770.17 Q28.5462 769.842 28.4993 769.608 Q28.4525 769.374 28.4525 768.999 L28.7335 756.632 L28.4525 744.359 Q28.4525 743 29.5299 743 Q30.8884 743 31.1695 743.609 Q31.4505 744.218 31.4505 746.279 Q31.4505 749.793 31.919 751.385 Q32.3406 752.931 33.0901 753.4 Q33.7928 753.821 35.854 754.337 L73.1893 763.659 Q75.0631 764.127 76.9369 764.408 Q78.7639 764.643 79.7008 764.643 L80.6377 764.689 Q86.587 764.689 89.8661 761.41 Q93.1453 758.084 93.1453 752.978 Q93.1453 745.483 87.196 738.503 Q81.2467 731.476 71.9245 729.087 L37.6809 720.468 Q36.8377 720.187 35.6666 720.187 Q33.7928 720.187 32.6685 721.592 Q31.4974 722.951 31.4505 726.698 Q31.4505 728.431 30.3731 728.431 Q29.4831 728.431 29.0614 728.104 Q28.593 727.729 28.5462 727.448 Q28.4525 727.12 28.4525 726.698 Q28.4525 725.105 28.593 721.733 Q28.7335 718.36 28.7335 716.72 Q28.7335 715.081 28.593 711.802 Q28.4525 708.522 28.4525 706.93 Q28.4525 706.368 28.7335 706.086 Q28.9678 705.759 29.2488 705.712 L29.5299 705.712 Z" fill="#000000" fill-rule="nonzero" fill-opacity="1" /><path clip-path="url(#clip760)" d="M30.2794 699.721 Q27.8903 699.721 26.9066 698.269 Q25.876 696.817 25.876 695.271 Q25.876 693.35 27.0471 692.132 Q28.1714 690.868 30.2794 690.868 Q31.2163 690.868 31.7316 690.961 L60.6817 694.147 L60.6817 696.348 L31.7316 699.628 Q31.2163 699.721 30.2794 699.721 Z" fill="#000000" fill-rule="nonzero" fill-opacity="1" /><path clip-path="url(#clip760)" d="M115.022 673.323 L24.9859 673.323 Q22.1284 673.323 22.1284 671.402 Q22.1284 669.482 25.1265 669.482 L114.788 669.482 Q117.879 669.482 117.879 671.402 Q117.879 673.323 115.022 673.323 M115.022 662.736 L25.6886 662.736 Q22.1284 662.736 22.1284 660.815 Q22.1284 658.895 25.1265 658.895 L114.788 658.895 Q117.879 658.895 117.879 660.815 Q117.879 662.736 115.022 662.736 Z" fill="#000000" fill-rule="nonzero" fill-opacity="1" /><path clip-path="url(#clip760)" d="M100.945 601.123 L112.553 602.467 Q113.603 602.566 113.93 602.73 Q114.226 602.894 114.226 603.418 Q114.226 604.205 113.439 604.205 Q113.111 604.205 112.225 604.074 Q110.422 603.877 108.585 603.877 Q106.52 603.877 105.241 604.271 Q103.929 604.632 102.978 605.681 Q102.027 606.73 101.634 608.665 Q101.207 610.6 101.207 613.682 L101.207 622.536 Q101.207 624.7 101.601 625.225 Q101.994 625.717 103.831 626.176 L120.882 630.471 L120.882 624.372 Q120.882 620.109 119.636 618.437 Q118.39 616.764 114.422 615.715 Q113.799 615.551 113.57 615.486 Q113.307 615.387 113.176 615.223 Q113.012 615.027 113.012 614.699 Q113.012 614.403 113.209 614.207 Q113.373 614.01 113.57 613.944 L113.767 613.879 Q114.094 613.879 114.849 614.076 L129.408 617.781 Q130.392 618.043 130.621 618.207 Q130.818 618.338 130.818 618.798 Q130.818 619.125 130.589 619.355 Q130.359 619.585 129.998 619.585 Q129.605 619.519 129.277 619.388 Q127.277 618.929 125.998 618.929 Q125.178 618.929 124.686 619.093 Q124.194 619.257 123.768 619.814 Q123.342 620.372 123.145 621.519 Q122.948 622.667 122.948 624.503 L122.948 630.996 L139.672 635.16 L141.213 635.456 Q141.902 635.456 142.164 635.095 Q142.426 634.701 142.557 633.291 Q142.721 631.193 142.721 629.815 Q142.721 628.11 142.787 627.914 Q142.984 627.52 143.508 627.52 Q144.099 627.52 144.427 627.782 Q144.722 628.045 144.754 628.274 Q144.787 628.504 144.787 628.93 L144.59 638.931 L144.787 647.785 Q144.787 648.802 143.967 648.802 Q143.344 648.802 143.082 648.539 Q142.787 648.277 142.754 647.982 Q142.721 647.687 142.721 646.933 Q142.721 645.293 142.623 644.309 Q142.525 643.326 142.393 642.702 Q142.229 642.047 141.77 641.719 Q141.311 641.358 140.918 641.194 Q140.492 641.03 139.541 640.801 L104.027 631.947 Q102.814 631.619 102.421 631.619 Q101.994 631.619 101.732 631.914 Q101.47 632.176 101.371 632.898 Q101.24 633.619 101.24 634.21 Q101.207 634.767 101.207 635.98 Q101.207 636.767 101.175 637.095 Q101.142 637.39 100.978 637.62 Q100.814 637.849 100.453 637.849 Q99.5351 637.849 99.3383 637.456 Q99.1088 637.03 99.1088 635.849 L99.1088 602.926 Q99.1088 601.615 99.4039 601.32 Q99.6662 600.992 100.945 601.123 Z" fill="#000000" fill-rule="nonzero" fill-opacity="1" /><path clip-path="url(#clip760)" d="M116.615 591.213 Q116.146 591.213 115.116 590.838 L24.6112 556.97 Q24.5175 556.97 24.0022 556.735 Q23.4869 556.501 23.159 556.361 Q22.7842 556.22 22.5032 555.939 Q22.2221 555.611 22.2221 555.236 Q22.2221 554.299 23.3932 554.299 Q23.4869 554.299 24.6112 554.581 L115.209 588.543 Q116.849 589.105 117.317 589.48 Q117.786 589.808 117.786 590.37 Q117.786 591.213 116.615 591.213 Z" fill="#000000" fill-rule="nonzero" fill-opacity="1" /><path clip-path="url(#clip760)" d="M115.022 543.705 L24.9859 543.705 Q22.1284 543.705 22.1284 541.785 Q22.1284 539.864 25.1265 539.864 L114.788 539.864 Q117.879 539.864 117.879 541.785 Q117.879 543.705 115.022 543.705 M115.022 533.118 L25.6886 533.118 Q22.1284 533.118 22.1284 531.198 Q22.1284 529.277 25.1265 529.277 L114.788 529.277 Q117.879 529.277 117.879 531.198 Q117.879 533.118 115.022 533.118 Z" fill="#000000" fill-rule="nonzero" fill-opacity="1" /><path clip-path="url(#clip760)" d="M29.5299 434.717 Q31.4505 434.717 31.4505 436.309 Q31.5442 439.12 32.1064 441.041 Q32.6217 442.961 33.6522 444.086 Q34.6828 445.163 35.8071 445.772 Q36.8845 446.334 38.5241 446.709 L72.5804 455.235 Q82.1836 457.671 89.1634 465.541 Q96.0965 473.411 96.0965 482.358 Q96.0965 487.464 93.9885 491.727 Q91.8804 495.943 87.6176 498.566 Q83.3547 501.19 77.6864 501.19 Q74.9694 501.19 72.1119 500.487 L48.4084 494.678 L39.9763 492.523 Q33.7459 490.931 33.1838 490.931 Q32.2937 490.931 32.0595 491.493 Q31.7785 492.008 31.6379 493.507 L31.4505 497.161 Q31.4505 498.285 31.4037 498.754 Q31.3568 499.175 31.1226 499.503 Q30.8884 499.831 30.3731 499.831 Q29.7173 499.831 29.2957 499.691 Q28.8272 499.503 28.6867 499.175 Q28.5462 498.847 28.4993 498.613 Q28.4525 498.379 28.4525 498.004 L28.7335 485.637 L28.4525 473.364 Q28.4525 472.005 29.5299 472.005 Q30.8884 472.005 31.1695 472.614 Q31.4505 473.223 31.4505 475.284 Q31.4505 478.798 31.919 480.39 Q32.3406 481.936 33.0901 482.405 Q33.7928 482.826 35.854 483.342 L73.1893 492.664 Q75.0631 493.132 76.9369 493.413 Q78.7639 493.648 79.7008 493.648 L80.6377 493.694 Q86.587 493.694 89.8661 490.415 Q93.1453 487.089 93.1453 481.983 Q93.1453 474.488 87.196 467.508 Q81.2467 460.481 71.9245 458.092 L37.6809 449.473 Q36.8377 449.192 35.6666 449.192 Q33.7928 449.192 32.6685 450.597 Q31.4974 451.956 31.4505 455.703 Q31.4505 457.437 30.3731 457.437 Q29.4831 457.437 29.0614 457.109 Q28.593 456.734 28.5462 456.453 Q28.4525 456.125 28.4525 455.703 Q28.4525 454.111 28.593 450.738 Q28.7335 447.365 28.7335 445.725 Q28.7335 444.086 28.593 440.807 Q28.4525 437.527 28.4525 435.935 Q28.4525 435.373 28.7335 435.091 Q28.9678 434.764 29.2488 434.717 L29.5299 434.717 Z" fill="#000000" fill-rule="nonzero" fill-opacity="1" /><path clip-path="url(#clip760)" d="M29.5299 359.105 Q31.4505 359.105 31.4505 360.698 Q31.5442 363.509 32.1064 365.429 Q32.6217 367.35 33.6522 368.474 Q34.6828 369.552 35.8071 370.161 Q36.8845 370.723 38.5241 371.098 L72.5804 379.623 Q82.1836 382.059 89.1634 389.929 Q96.0965 397.799 96.0965 406.747 Q96.0965 411.853 93.9885 416.116 Q91.8804 420.332 87.6176 422.955 Q83.3547 425.578 77.6864 425.578 Q74.9694 425.578 72.1119 424.876 L48.4084 419.067 L39.9763 416.912 Q33.7459 415.319 33.1838 415.319 Q32.2937 415.319 32.0595 415.881 Q31.7785 416.397 31.6379 417.896 L31.4505 421.55 Q31.4505 422.674 31.4037 423.142 Q31.3568 423.564 31.1226 423.892 Q30.8884 424.22 30.3731 424.22 Q29.7173 424.22 29.2957 424.079 Q28.8272 423.892 28.6867 423.564 Q28.5462 423.236 28.4993 423.002 Q28.4525 422.768 28.4525 422.393 L28.7335 410.026 L28.4525 397.752 Q28.4525 396.394 29.5299 396.394 Q30.8884 396.394 31.1695 397.003 Q31.4505 397.612 31.4505 399.673 Q31.4505 403.186 31.919 404.779 Q32.3406 406.325 33.0901 406.794 Q33.7928 407.215 35.854 407.73 L73.1893 417.053 Q75.0631 417.521 76.9369 417.802 Q78.7639 418.036 79.7008 418.036 L80.6377 418.083 Q86.587 418.083 89.8661 414.804 Q93.1453 411.478 93.1453 406.372 Q93.1453 398.877 87.196 391.897 Q81.2467 384.87 71.9245 382.481 L37.6809 373.862 Q36.8377 373.581 35.6666 373.581 Q33.7928 373.581 32.6685 374.986 Q31.4974 376.344 31.4505 380.092 Q31.4505 381.825 30.3731 381.825 Q29.4831 381.825 29.0614 381.497 Q28.593 381.123 28.5462 380.841 Q28.4525 380.514 28.4525 380.092 Q28.4525 378.499 28.593 375.126 Q28.7335 371.754 28.7335 370.114 Q28.7335 368.474 28.593 365.195 Q28.4525 361.916 28.4525 360.323 Q28.4525 359.761 28.7335 359.48 Q28.9678 359.152 29.2488 359.105 L29.5299 359.105 Z" fill="#000000" fill-rule="nonzero" fill-opacity="1" /><path clip-path="url(#clip760)" d="M30.2794 353.115 Q27.8903 353.115 26.9066 351.663 Q25.876 350.211 25.876 348.665 Q25.876 346.744 27.0471 345.526 Q28.1714 344.261 30.2794 344.261 Q31.2163 344.261 31.7316 344.355 L60.6817 347.541 L60.6817 349.742 L31.7316 353.021 Q31.2163 353.115 30.2794 353.115 Z" fill="#000000" fill-rule="nonzero" fill-opacity="1" /><path clip-path="url(#clip760)" d="M115.022 326.717 L24.9859 326.717 Q22.1284 326.717 22.1284 324.796 Q22.1284 322.875 25.1265 322.875 L114.788 322.875 Q117.879 322.875 117.879 324.796 Q117.879 326.717 115.022 326.717 M115.022 316.13 L25.6886 316.13 Q22.1284 316.13 22.1284 314.209 Q22.1284 312.288 25.1265 312.288 L114.788 312.288 Q117.879 312.288 117.879 314.209 Q117.879 316.13 115.022 316.13 Z" fill="#000000" fill-rule="nonzero" fill-opacity="1" /><path clip-path="url(#clip760)" d="M100.945 254.517 L112.553 255.861 Q113.603 255.96 113.93 256.123 Q114.226 256.287 114.226 256.812 Q114.226 257.599 113.439 257.599 Q113.111 257.599 112.225 257.468 Q110.422 257.271 108.585 257.271 Q106.52 257.271 105.241 257.665 Q103.929 258.025 102.978 259.075 Q102.027 260.124 101.634 262.059 Q101.207 263.993 101.207 267.076 L101.207 275.929 Q101.207 278.094 101.601 278.618 Q101.994 279.11 103.831 279.569 L120.882 283.865 L120.882 277.766 Q120.882 273.503 119.636 271.831 Q118.39 270.158 114.422 269.109 Q113.799 268.945 113.57 268.879 Q113.307 268.781 113.176 268.617 Q113.012 268.42 113.012 268.092 Q113.012 267.797 113.209 267.6 Q113.373 267.404 113.57 267.338 L113.767 267.273 Q114.094 267.273 114.849 267.469 L129.408 271.175 Q130.392 271.437 130.621 271.601 Q130.818 271.732 130.818 272.191 Q130.818 272.519 130.589 272.749 Q130.359 272.978 129.998 272.978 Q129.605 272.913 129.277 272.782 Q127.277 272.322 125.998 272.322 Q125.178 272.322 124.686 272.486 Q124.194 272.65 123.768 273.208 Q123.342 273.765 123.145 274.913 Q122.948 276.061 122.948 277.897 L122.948 284.39 L139.672 288.554 L141.213 288.849 Q141.902 288.849 142.164 288.489 Q142.426 288.095 142.557 286.685 Q142.721 284.586 142.721 283.209 Q142.721 281.504 142.787 281.307 Q142.984 280.914 143.508 280.914 Q144.099 280.914 144.427 281.176 Q144.722 281.438 144.754 281.668 Q144.787 281.898 144.787 282.324 L144.59 292.325 L144.787 301.179 Q144.787 302.195 143.967 302.195 Q143.344 302.195 143.082 301.933 Q142.787 301.671 142.754 301.376 Q142.721 301.081 142.721 300.326 Q142.721 298.687 142.623 297.703 Q142.525 296.719 142.393 296.096 Q142.229 295.44 141.77 295.112 Q141.311 294.752 140.918 294.588 Q140.492 294.424 139.541 294.194 L104.027 285.341 Q102.814 285.013 102.421 285.013 Q101.994 285.013 101.732 285.308 Q101.47 285.57 101.371 286.292 Q101.24 287.013 101.24 287.603 Q101.207 288.161 101.207 289.374 Q101.207 290.161 101.175 290.489 Q101.142 290.784 100.978 291.014 Q100.814 291.243 100.453 291.243 Q99.5351 291.243 99.3383 290.85 Q99.1088 290.423 99.1088 289.243 L99.1088 256.32 Q99.1088 255.009 99.4039 254.713 Q99.6662 254.386 100.945 254.517 Z" fill="#000000" fill-rule="nonzero" fill-opacity="1" /><path clip-path="url(#clip762)" d="M484.901 954.672 L424.57 954.672 L545.232 954.672 L484.901 954.672 L484.901 655.602 L484.901 954.672  Z" fill="#3da44d" fill-rule="evenodd" fill-opacity="1"/>
<polyline clip-path="url(#clip762)" style="stroke:#000000; stroke-linecap:round; stroke-linejoin:round; stroke-width:4; stroke-opacity:1; fill:none" points="484.901,954.672 424.57,954.672 545.232,954.672 484.901,954.672 484.901,655.602 484.901,954.672 "/>
<path clip-path="url(#clip762)" d="M605.564 655.602 L605.564 575.323 L364.239 575.323 L364.239 655.602 L605.564 655.602 L605.564 575.323 L605.564 655.602  Z" fill="#3da44d" fill-rule="evenodd" fill-opacity="1"/>
<polyline clip-path="url(#clip762)" style="stroke:#000000; stroke-linecap:round; stroke-linejoin:round; stroke-width:4; stroke-opacity:1; fill:none" points="605.564,655.602 605.564,575.323 364.239,575.323 364.239,655.602 605.564,655.602 605.564,575.323 605.564,655.602 "/>
<path clip-path="url(#clip762)" d="M605.564 442.584 L364.239 442.584 L364.239 575.323 L605.564 575.323 L605.564 442.584 L484.901 442.584 L605.564 442.584  Z" fill="#3da44d" fill-rule="evenodd" fill-opacity="1"/>
<polyline clip-path="url(#clip762)" style="stroke:#000000; stroke-linecap:round; stroke-linejoin:round; stroke-width:4; stroke-opacity:1; fill:none" points="605.564,442.584 364.239,442.584 364.239,575.323 605.564,575.323 605.564,442.584 484.901,442.584 605.564,442.584 "/>
<path clip-path="url(#clip762)" d="M484.901 206.536 L424.57 206.536 L545.232 206.536 L484.901 206.536 L484.901 442.584 L484.901 206.536  Z" fill="#3da44d" fill-rule="evenodd" fill-opacity="1"/>
<polyline clip-path="url(#clip762)" style="stroke:#000000; stroke-linecap:round; stroke-linejoin:round; stroke-width:4; stroke-opacity:1; fill:none" points="484.901,206.536 424.57,206.536 545.232,206.536 484.901,206.536 484.901,442.584 484.901,206.536 "/>
<circle clip-path="url(#clip762)" cx="484.901" cy="87.4872" r="14.4" fill="#3da44d" fill-rule="evenodd" fill-opacity="1" stroke="#000000" stroke-opacity="1" stroke-width="3.2"/>
<circle clip-path="url(#clip762)" cx="484.901" cy="116.134" r="14.4" fill="#3da44d" fill-rule="evenodd" fill-opacity="1" stroke="#000000" stroke-opacity="1" stroke-width="3.2"/>
<polyline clip-path="url(#clip762)" style="stroke:#3da44d; stroke-linecap:round; stroke-linejoin:round; stroke-width:0; stroke-opacity:1; fill:none" points="484.901,954.672 424.57,954.672 545.232,954.672 484.901,954.672 484.901,655.602 "/>
<polyline clip-path="url(#clip762)" style="stroke:#3da44d; stroke-linecap:round; stroke-linejoin:round; stroke-width:0; stroke-opacity:1; fill:none" points="605.564,655.602 605.564,575.323 364.239,575.323 364.239,655.602 605.564,655.602 605.564,575.323 "/>
<polyline clip-path="url(#clip762)" style="stroke:#3da44d; stroke-linecap:round; stroke-linejoin:round; stroke-width:0; stroke-opacity:1; fill:none" points="605.564,442.584 364.239,442.584 364.239,575.323 605.564,575.323 605.564,442.584 484.901,442.584 "/>
<polyline clip-path="url(#clip762)" style="stroke:#3da44d; stroke-linecap:round; stroke-linejoin:round; stroke-width:0; stroke-opacity:1; fill:none" points="484.901,206.536 424.57,206.536 545.232,206.536 484.901,206.536 484.901,442.584 "/>
<path clip-path="url(#clip762)" d="M907.22 1368.57 L846.888 1368.57 L967.551 1368.57 L907.22 1368.57 L907.22 1322.11 L907.22 1368.57  Z" fill="#ac8d18" fill-rule="evenodd" fill-opacity="1"/>
<polyline clip-path="url(#clip762)" style="stroke:#000000; stroke-linecap:round; stroke-linejoin:round; stroke-width:4; stroke-opacity:1; fill:none" points="907.22,1368.57 846.888,1368.57 967.551,1368.57 907.22,1368.57 907.22,1322.11 907.22,1368.57 "/>
<path clip-path="url(#clip762)" d="M1027.88 1322.11 L1027.88 1259.94 L786.557 1259.94 L786.557 1322.11 L1027.88 1322.11 L1027.88 1259.94 L1027.88 1322.11  Z" fill="#ac8d18" fill-rule="evenodd" fill-opacity="1"/>
<polyline clip-path="url(#clip762)" style="stroke:#000000; stroke-linecap:round; stroke-linejoin:round; stroke-width:4; stroke-opacity:1; fill:none" points="1027.88,1322.11 1027.88,1259.94 786.557,1259.94 786.557,1322.11 1027.88,1322.11 1027.88,1259.94 1027.88,1322.11 "/>
<path clip-path="url(#clip762)" d="M1027.88 1182.74 L786.557 1182.74 L786.557 1259.94 L1027.88 1259.94 L1027.88 1182.74 L907.22 1182.74 L1027.88 1182.74  Z" fill="#ac8d18" fill-rule="evenodd" fill-opacity="1"/>
<polyline clip-path="url(#clip762)" style="stroke:#000000; stroke-linecap:round; stroke-linejoin:round; stroke-width:4; stroke-opacity:1; fill:none" points="1027.88,1182.74 786.557,1182.74 786.557,1259.94 1027.88,1259.94 1027.88,1182.74 907.22,1182.74 1027.88,1182.74 "/>
<path clip-path="url(#clip762)" d="M907.22 1047.02 L846.888 1047.02 L967.551 1047.02 L907.22 1047.02 L907.22 1182.74 L907.22 1047.02  Z" fill="#ac8d18" fill-rule="evenodd" fill-opacity="1"/>
<polyline clip-path="url(#clip762)" style="stroke:#000000; stroke-linecap:round; stroke-linejoin:round; stroke-width:4; stroke-opacity:1; fill:none" points="907.22,1047.02 846.888,1047.02 967.551,1047.02 907.22,1047.02 907.22,1182.74 907.22,1047.02 "/>
<polyline clip-path="url(#clip762)" style="stroke:#ac8d18; stroke-linecap:round; stroke-linejoin:round; stroke-width:0; stroke-opacity:1; fill:none" points="907.22,1368.57 846.888,1368.57 967.551,1368.57 907.22,1368.57 907.22,1322.11 "/>
<polyline clip-path="url(#clip762)" style="stroke:#ac8d18; stroke-linecap:round; stroke-linejoin:round; stroke-width:0; stroke-opacity:1; fill:none" points="1027.88,1322.11 1027.88,1259.94 786.557,1259.94 786.557,1322.11 1027.88,1322.11 1027.88,1259.94 "/>
<polyline clip-path="url(#clip762)" style="stroke:#ac8d18; stroke-linecap:round; stroke-linejoin:round; stroke-width:0; stroke-opacity:1; fill:none" points="1027.88,1182.74 786.557,1182.74 786.557,1259.94 1027.88,1259.94 1027.88,1182.74 907.22,1182.74 "/>
<polyline clip-path="url(#clip762)" style="stroke:#ac8d18; stroke-linecap:round; stroke-linejoin:round; stroke-width:0; stroke-opacity:1; fill:none" points="907.22,1047.02 846.888,1047.02 967.551,1047.02 907.22,1047.02 907.22,1182.74 "/>
<path clip-path="url(#clip762)" d="M1329.54 1428.41 L1269.21 1428.41 L1389.87 1428.41 L1329.54 1428.41 L1329.54 1321.56 L1329.54 1428.41  Z" fill="#f05f73" fill-rule="evenodd" fill-opacity="1"/>
<polyline clip-path="url(#clip762)" style="stroke:#000000; stroke-linecap:round; stroke-linejoin:round; stroke-width:4; stroke-opacity:1; fill:none" points="1329.54,1428.41 1269.21,1428.41 1389.87,1428.41 1329.54,1428.41 1329.54,1321.56 1329.54,1428.41 "/>
<path clip-path="url(#clip762)" d="M1450.2 1321.56 L1450.2 1260.78 L1208.88 1260.78 L1208.88 1321.56 L1450.2 1321.56 L1450.2 1260.78 L1450.2 1321.56  Z" fill="#f05f73" fill-rule="evenodd" fill-opacity="1"/>
<polyline clip-path="url(#clip762)" style="stroke:#000000; stroke-linecap:round; stroke-linejoin:round; stroke-width:4; stroke-opacity:1; fill:none" points="1450.2,1321.56 1450.2,1260.78 1208.88,1260.78 1208.88,1321.56 1450.2,1321.56 1450.2,1260.78 1450.2,1321.56 "/>
<path clip-path="url(#clip762)" d="M1450.2 1209.3 L1208.88 1209.3 L1208.88 1260.78 L1450.2 1260.78 L1450.2 1209.3 L1329.54 1209.3 L1450.2 1209.3  Z" fill="#f05f73" fill-rule="evenodd" fill-opacity="1"/>
<polyline clip-path="url(#clip762)" style="stroke:#000000; stroke-linecap:round; stroke-linejoin:round; stroke-width:4; stroke-opacity:1; fill:none" points="1450.2,1209.3 1208.88,1209.3 1208.88,1260.78 1450.2,1260.78 1450.2,1209.3 1329.54,1209.3 1450.2,1209.3 "/>
<path clip-path="url(#clip762)" d="M1329.54 1065.38 L1269.21 1065.38 L1389.87 1065.38 L1329.54 1065.38 L1329.54 1209.3 L1329.54 1065.38  Z" fill="#f05f73" fill-rule="evenodd" fill-opacity="1"/>
<polyline clip-path="url(#clip762)" style="stroke:#000000; stroke-linecap:round; stroke-linejoin:round; stroke-width:4; stroke-opacity:1; fill:none" points="1329.54,1065.38 1269.21,1065.38 1389.87,1065.38 1329.54,1065.38 1329.54,1209.3 1329.54,1065.38 "/>
<circle clip-path="url(#clip762)" cx="1329.54" cy="1015.59" r="14.4" fill="#f05f73" fill-rule="evenodd" fill-opacity="1" stroke="#000000" stroke-opacity="1" stroke-width="3.2"/>
<polyline clip-path="url(#clip762)" style="stroke:#f05f73; stroke-linecap:round; stroke-linejoin:round; stroke-width:0; stroke-opacity:1; fill:none" points="1329.54,1428.41 1269.21,1428.41 1389.87,1428.41 1329.54,1428.41 1329.54,1321.56 "/>
<polyline clip-path="url(#clip762)" style="stroke:#f05f73; stroke-linecap:round; stroke-linejoin:round; stroke-width:0; stroke-opacity:1; fill:none" points="1450.2,1321.56 1450.2,1260.78 1208.88,1260.78 1208.88,1321.56 1450.2,1321.56 1450.2,1260.78 "/>
<polyline clip-path="url(#clip762)" style="stroke:#f05f73; stroke-linecap:round; stroke-linejoin:round; stroke-width:0; stroke-opacity:1; fill:none" points="1450.2,1209.3 1208.88,1209.3 1208.88,1260.78 1450.2,1260.78 1450.2,1209.3 1329.54,1209.3 "/>
<polyline clip-path="url(#clip762)" style="stroke:#f05f73; stroke-linecap:round; stroke-linejoin:round; stroke-width:0; stroke-opacity:1; fill:none" points="1329.54,1065.38 1269.21,1065.38 1389.87,1065.38 1329.54,1065.38 1329.54,1209.3 "/>
<path clip-path="url(#clip762)" d="M1751.86 1428.92 L1691.53 1428.92 L1812.19 1428.92 L1751.86 1428.92 L1751.86 1321.95 L1751.86 1428.92  Z" fill="#009af9" fill-rule="evenodd" fill-opacity="1"/>
<polyline clip-path="url(#clip762)" style="stroke:#000000; stroke-linecap:round; stroke-linejoin:round; stroke-width:4; stroke-opacity:1; fill:none" points="1751.86,1428.92 1691.53,1428.92 1812.19,1428.92 1751.86,1428.92 1751.86,1321.95 1751.86,1428.92 "/>
<path clip-path="url(#clip762)" d="M1872.52 1321.95 L1872.52 1259.88 L1631.19 1259.88 L1631.19 1321.95 L1872.52 1321.95 L1872.52 1259.88 L1872.52 1321.95  Z" fill="#009af9" fill-rule="evenodd" fill-opacity="1"/>
<polyline clip-path="url(#clip762)" style="stroke:#000000; stroke-linecap:round; stroke-linejoin:round; stroke-width:4; stroke-opacity:1; fill:none" points="1872.52,1321.95 1872.52,1259.88 1631.19,1259.88 1631.19,1321.95 1872.52,1321.95 1872.52,1259.88 1872.52,1321.95 "/>
<path clip-path="url(#clip762)" d="M1872.52 1214.15 L1631.19 1214.15 L1631.19 1259.88 L1872.52 1259.88 L1872.52 1214.15 L1751.86 1214.15 L1872.52 1214.15  Z" fill="#009af9" fill-rule="evenodd" fill-opacity="1"/>
<polyline clip-path="url(#clip762)" style="stroke:#000000; stroke-linecap:round; stroke-linejoin:round; stroke-width:4; stroke-opacity:1; fill:none" points="1872.52,1214.15 1631.19,1214.15 1631.19,1259.88 1872.52,1259.88 1872.52,1214.15 1751.86,1214.15 1872.52,1214.15 "/>
<path clip-path="url(#clip762)" d="M1751.86 1065.89 L1691.53 1065.89 L1812.19 1065.89 L1751.86 1065.89 L1751.86 1214.15 L1751.86 1065.89  Z" fill="#009af9" fill-rule="evenodd" fill-opacity="1"/>
<polyline clip-path="url(#clip762)" style="stroke:#000000; stroke-linecap:round; stroke-linejoin:round; stroke-width:4; stroke-opacity:1; fill:none" points="1751.86,1065.89 1691.53,1065.89 1812.19,1065.89 1751.86,1065.89 1751.86,1214.15 1751.86,1065.89 "/>
<circle clip-path="url(#clip762)" cx="1751.86" cy="1008.46" r="14.4" fill="#009af9" fill-rule="evenodd" fill-opacity="1" stroke="#000000" stroke-opacity="1" stroke-width="3.2"/>
<polyline clip-path="url(#clip762)" style="stroke:#009af9; stroke-linecap:round; stroke-linejoin:round; stroke-width:0; stroke-opacity:1; fill:none" points="1751.86,1428.92 1691.53,1428.92 1812.19,1428.92 1751.86,1428.92 1751.86,1321.95 "/>
<polyline clip-path="url(#clip762)" style="stroke:#009af9; stroke-linecap:round; stroke-linejoin:round; stroke-width:0; stroke-opacity:1; fill:none" points="1872.52,1321.95 1872.52,1259.88 1631.19,1259.88 1631.19,1321.95 1872.52,1321.95 1872.52,1259.88 "/>
<polyline clip-path="url(#clip762)" style="stroke:#009af9; stroke-linecap:round; stroke-linejoin:round; stroke-width:0; stroke-opacity:1; fill:none" points="1872.52,1214.15 1631.19,1214.15 1631.19,1259.88 1872.52,1259.88 1872.52,1214.15 1751.86,1214.15 "/>
<polyline clip-path="url(#clip762)" style="stroke:#009af9; stroke-linecap:round; stroke-linejoin:round; stroke-width:0; stroke-opacity:1; fill:none" points="1751.86,1065.89 1691.53,1065.89 1812.19,1065.89 1751.86,1065.89 1751.86,1214.15 "/>
<path clip-path="url(#clip762)" d="M2174.18 1259.47 L2113.84 1259.47 L2234.51 1259.47 L2174.18 1259.47 L2174.18 1131.58 L2174.18 1259.47  Z" fill="#c271d2" fill-rule="evenodd" fill-opacity="1"/>
<polyline clip-path="url(#clip762)" style="stroke:#000000; stroke-linecap:round; stroke-linejoin:round; stroke-width:4; stroke-opacity:1; fill:none" points="2174.18,1259.47 2113.84,1259.47 2234.51,1259.47 2174.18,1259.47 2174.18,1131.58 2174.18,1259.47 "/>
<path clip-path="url(#clip762)" d="M2294.84 1131.58 L2294.84 1057.34 L2053.51 1057.34 L2053.51 1131.58 L2294.84 1131.58 L2294.84 1057.34 L2294.84 1131.58  Z" fill="#c271d2" fill-rule="evenodd" fill-opacity="1"/>
<polyline clip-path="url(#clip762)" style="stroke:#000000; stroke-linecap:round; stroke-linejoin:round; stroke-width:4; stroke-opacity:1; fill:none" points="2294.84,1131.58 2294.84,1057.34 2053.51,1057.34 2053.51,1131.58 2294.84,1131.58 2294.84,1057.34 2294.84,1131.58 "/>
<path clip-path="url(#clip762)" d="M2294.84 1020.56 L2053.51 1020.56 L2053.51 1057.34 L2294.84 1057.34 L2294.84 1020.56 L2174.18 1020.56 L2294.84 1020.56  Z" fill="#c271d2" fill-rule="evenodd" fill-opacity="1"/>
<polyline clip-path="url(#clip762)" style="stroke:#000000; stroke-linecap:round; stroke-linejoin:round; stroke-width:4; stroke-opacity:1; fill:none" points="2294.84,1020.56 2053.51,1020.56 2053.51,1057.34 2294.84,1057.34 2294.84,1020.56 2174.18,1020.56 2294.84,1020.56 "/>
<path clip-path="url(#clip762)" d="M2174.18 860.903 L2113.84 860.903 L2234.51 860.903 L2174.18 860.903 L2174.18 1020.56 L2174.18 860.903  Z" fill="#c271d2" fill-rule="evenodd" fill-opacity="1"/>
<polyline clip-path="url(#clip762)" style="stroke:#000000; stroke-linecap:round; stroke-linejoin:round; stroke-width:4; stroke-opacity:1; fill:none" points="2174.18,860.903 2113.84,860.903 2234.51,860.903 2174.18,860.903 2174.18,1020.56 2174.18,860.903 "/>
<circle clip-path="url(#clip762)" cx="2174.18" cy="797.643" r="14.4" fill="#c271d2" fill-rule="evenodd" fill-opacity="1" stroke="#000000" stroke-opacity="1" stroke-width="3.2"/>
<polyline clip-path="url(#clip762)" style="stroke:#c271d2; stroke-linecap:round; stroke-linejoin:round; stroke-width:0; stroke-opacity:1; fill:none" points="2174.18,1259.47 2113.84,1259.47 2234.51,1259.47 2174.18,1259.47 2174.18,1131.58 "/>
<polyline clip-path="url(#clip762)" style="stroke:#c271d2; stroke-linecap:round; stroke-linejoin:round; stroke-width:0; stroke-opacity:1; fill:none" points="2294.84,1131.58 2294.84,1057.34 2053.51,1057.34 2053.51,1131.58 2294.84,1131.58 2294.84,1057.34 "/>
<polyline clip-path="url(#clip762)" style="stroke:#c271d2; stroke-linecap:round; stroke-linejoin:round; stroke-width:0; stroke-opacity:1; fill:none" points="2294.84,1020.56 2053.51,1020.56 2053.51,1057.34 2294.84,1057.34 2294.84,1020.56 2174.18,1020.56 "/>
<polyline clip-path="url(#clip762)" style="stroke:#c271d2; stroke-linecap:round; stroke-linejoin:round; stroke-width:0; stroke-opacity:1; fill:none" points="2174.18,860.903 2113.84,860.903 2234.51,860.903 2174.18,860.903 2174.18,1020.56 "/>
</svg>
