<?xml version="1.0" encoding="utf-8"?>
<svg xmlns="http://www.w3.org/2000/svg" xmlns:xlink="http://www.w3.org/1999/xlink" width="600" height="400" viewBox="0 0 2400 1600">
<defs>
  <clipPath id="clip500">
    <rect x="0" y="0" width="2400" height="1600"/>
  </clipPath>
</defs>
<path clip-path="url(#clip500)" d="M0 1600 L2400 1600 L2400 0 L0 0  Z" fill="#ffffff" fill-rule="evenodd" fill-opacity="1"/>
<defs>
  <clipPath id="clip501">
    <rect x="480" y="0" width="1681" height="1600"/>
  </clipPath>
</defs>
<path clip-path="url(#clip500)" d="M519.704 1384.3 L2352.76 1384.3 L2352.76 47.2441 L519.704 47.2441  Z" fill="#ffffff" fill-rule="evenodd" fill-opacity="1"/>
<defs>
  <clipPath id="clip502">
    <rect x="519" y="47" width="1834" height="1338"/>
  </clipPath>
</defs>
<polyline clip-path="url(#clip502)" style="stroke:#000000; stroke-linecap:round; stroke-linejoin:round; stroke-width:2; stroke-opacity:0.1; fill:none" points="571.583,1384.3 571.583,47.2441 "/>
<polyline clip-path="url(#clip502)" style="stroke:#000000; stroke-linecap:round; stroke-linejoin:round; stroke-width:2; stroke-opacity:0.1; fill:none" points="917.442,1384.3 917.442,47.2441 "/>
<polyline clip-path="url(#clip502)" style="stroke:#000000; stroke-linecap:round; stroke-linejoin:round; stroke-width:2; stroke-opacity:0.1; fill:none" points="1263.3,1384.3 1263.3,47.2441 "/>
<polyline clip-path="url(#clip502)" style="stroke:#000000; stroke-linecap:round; stroke-linejoin:round; stroke-width:2; stroke-opacity:0.1; fill:none" points="1609.16,1384.3 1609.16,47.2441 "/>
<polyline clip-path="url(#clip502)" style="stroke:#000000; stroke-linecap:round; stroke-linejoin:round; stroke-width:2; stroke-opacity:0.1; fill:none" points="1955.02,1384.3 1955.02,47.2441 "/>
<polyline clip-path="url(#clip502)" style="stroke:#000000; stroke-linecap:round; stroke-linejoin:round; stroke-width:2; stroke-opacity:0.1; fill:none" points="2300.88,1384.3 2300.88,47.2441 "/>
<polyline clip-path="url(#clip500)" style="stroke:#000000; stroke-linecap:round; stroke-linejoin:round; stroke-width:4; stroke-opacity:1; fill:none" points="519.704,1384.3 2352.76,1384.3 "/>
<polyline clip-path="url(#clip500)" style="stroke:#000000; stroke-linecap:round; stroke-linejoin:round; stroke-width:4; stroke-opacity:1; fill:none" points="571.583,1384.3 571.583,1365.4 "/>
<polyline clip-path="url(#clip500)" style="stroke:#000000; stroke-linecap:round; stroke-linejoin:round; stroke-width:4; stroke-opacity:1; fill:none" points="917.442,1384.3 917.442,1365.4 "/>
<polyline clip-path="url(#clip500)" style="stroke:#000000; stroke-linecap:round; stroke-linejoin:round; stroke-width:4; stroke-opacity:1; fill:none" points="1263.3,1384.3 1263.3,1365.4 "/>
<polyline clip-path="url(#clip500)" style="stroke:#000000; stroke-linecap:round; stroke-linejoin:round; stroke-width:4; stroke-opacity:1; fill:none" points="1609.16,1384.3 1609.16,1365.4 "/>
<polyline clip-path="url(#clip500)" style="stroke:#000000; stroke-linecap:round; stroke-linejoin:round; stroke-width:4; stroke-opacity:1; fill:none" points="1955.02,1384.3 1955.02,1365.4 "/>
<polyline clip-path="url(#clip500)" style="stroke:#000000; stroke-linecap:round; stroke-linejoin:round; stroke-width:4; stroke-opacity:1; fill:none" points="2300.88,1384.3 2300.88,1365.4 "/>
<path clip-path="url(#clip500)" d="M571.583 1421.08 Q566.166 1421.08 563.423 1426.43 Q560.715 1431.74 560.715 1442.43 Q560.715 1453.09 563.423 1458.44 Q566.166 1463.75 571.583 1463.75 Q577.034 1463.75 579.743 1458.44 Q582.486 1453.09 582.486 1442.43 Q582.486 1431.74 579.743 1426.43 Q577.034 1421.08 571.583 1421.08 M571.583 1415.52 Q580.298 1415.52 584.882 1422.43 Q589.5 1429.31 589.5 1442.43 Q589.5 1455.52 584.882 1462.43 Q580.298 1469.31 571.583 1469.31 Q562.868 1469.31 558.25 1462.43 Q553.666 1455.52 553.666 1442.43 Q553.666 1429.31 558.25 1422.43 Q562.868 1415.52 571.583 1415.52 Z" fill="#000000" fill-rule="nonzero" fill-opacity="1" /><path clip-path="url(#clip500)" d="M856.852 1462.4 L868.31 1462.4 L868.31 1422.85 L855.845 1425.35 L855.845 1418.96 L868.241 1416.46 L875.255 1416.46 L875.255 1462.4 L886.713 1462.4 L886.713 1468.3 L856.852 1468.3 L856.852 1462.4 Z" fill="#000000" fill-rule="nonzero" fill-opacity="1" /><path clip-path="url(#clip500)" d="M915.879 1421.08 Q910.463 1421.08 907.72 1426.43 Q905.011 1431.74 905.011 1442.43 Q905.011 1453.09 907.72 1458.44 Q910.463 1463.75 915.879 1463.75 Q921.331 1463.75 924.039 1458.44 Q926.782 1453.09 926.782 1442.43 Q926.782 1431.74 924.039 1426.43 Q921.331 1421.08 915.879 1421.08 M915.879 1415.52 Q924.595 1415.52 929.178 1422.43 Q933.796 1429.31 933.796 1442.43 Q933.796 1455.52 929.178 1462.43 Q924.595 1469.31 915.879 1469.31 Q907.164 1469.31 902.546 1462.43 Q897.963 1455.52 897.963 1442.43 Q897.963 1429.31 902.546 1422.43 Q907.164 1415.52 915.879 1415.52 Z" fill="#000000" fill-rule="nonzero" fill-opacity="1" /><path clip-path="url(#clip500)" d="M961.122 1421.08 Q955.705 1421.08 952.962 1426.43 Q950.254 1431.74 950.254 1442.43 Q950.254 1453.09 952.962 1458.44 Q955.705 1463.75 961.122 1463.75 Q966.573 1463.75 969.282 1458.44 Q972.025 1453.09 972.025 1442.43 Q972.025 1431.74 969.282 1426.43 Q966.573 1421.08 961.122 1421.08 M961.122 1415.52 Q969.837 1415.52 974.421 1422.43 Q979.039 1429.31 979.039 1442.43 Q979.039 1455.52 974.421 1462.43 Q969.837 1469.31 961.122 1469.31 Q952.407 1469.31 947.789 1462.43 Q943.206 1455.52 943.206 1442.43 Q943.206 1429.31 947.789 1422.43 Q952.407 1415.52 961.122 1415.52 Z" fill="#000000" fill-rule="nonzero" fill-opacity="1" /><path clip-path="url(#clip500)" d="M1208.84 1462.4 L1233.32 1462.4 L1233.32 1468.3 L1200.4 1468.3 L1200.4 1462.4 Q1204.39 1458.27 1211.27 1451.32 Q1218.18 1444.34 1219.95 1442.33 Q1223.32 1438.54 1224.64 1435.94 Q1225.99 1433.3 1225.99 1430.77 Q1225.99 1426.63 1223.08 1424.03 Q1220.19 1421.43 1215.54 1421.43 Q1212.24 1421.43 1208.56 1422.57 Q1204.92 1423.72 1200.75 1426.04 L1200.75 1418.96 Q1204.98 1417.26 1208.67 1416.39 Q1212.35 1415.52 1215.4 1415.52 Q1223.46 1415.52 1228.25 1419.55 Q1233.04 1423.58 1233.04 1430.31 Q1233.04 1433.51 1231.83 1436.39 Q1230.64 1439.24 1227.48 1443.13 Q1226.62 1444.13 1221.96 1448.96 Q1217.31 1453.75 1208.84 1462.4 Z" fill="#000000" fill-rule="nonzero" fill-opacity="1" /><path clip-path="url(#clip500)" d="M1263.04 1421.08 Q1257.62 1421.08 1254.88 1426.43 Q1252.17 1431.74 1252.17 1442.43 Q1252.17 1453.09 1254.88 1458.44 Q1257.62 1463.75 1263.04 1463.75 Q1268.49 1463.75 1271.2 1458.44 Q1273.94 1453.09 1273.94 1442.43 Q1273.94 1431.74 1271.2 1426.43 Q1268.49 1421.08 1263.04 1421.08 M1263.04 1415.52 Q1271.76 1415.52 1276.34 1422.43 Q1280.96 1429.31 1280.96 1442.43 Q1280.96 1455.52 1276.34 1462.43 Q1271.76 1469.31 1263.04 1469.31 Q1254.32 1469.31 1249.71 1462.43 Q1245.12 1455.52 1245.12 1442.43 Q1245.12 1429.31 1249.71 1422.43 Q1254.32 1415.52 1263.04 1415.52 Z" fill="#000000" fill-rule="nonzero" fill-opacity="1" /><path clip-path="url(#clip500)" d="M1308.28 1421.08 Q1302.87 1421.08 1300.12 1426.43 Q1297.42 1431.74 1297.42 1442.43 Q1297.42 1453.09 1300.12 1458.44 Q1302.87 1463.75 1308.28 1463.75 Q1313.73 1463.75 1316.44 1458.44 Q1319.19 1453.09 1319.19 1442.43 Q1319.19 1431.74 1316.44 1426.43 Q1313.73 1421.08 1308.28 1421.08 M1308.28 1415.52 Q1317 1415.52 1321.58 1422.43 Q1326.2 1429.31 1326.2 1442.43 Q1326.2 1455.52 1321.58 1462.43 Q1317 1469.31 1308.28 1469.31 Q1299.57 1469.31 1294.95 1462.43 Q1290.37 1455.52 1290.37 1442.43 Q1290.37 1429.31 1294.95 1422.43 Q1299.57 1415.52 1308.28 1415.52 Z" fill="#000000" fill-rule="nonzero" fill-opacity="1" /><path clip-path="url(#clip500)" d="M1569.8 1440.35 Q1574.84 1441.42 1577.65 1444.83 Q1580.5 1448.23 1580.5 1453.23 Q1580.5 1460.9 1575.22 1465.11 Q1569.94 1469.31 1560.22 1469.31 Q1556.95 1469.31 1553.48 1468.65 Q1550.05 1468.02 1546.36 1466.74 L1546.36 1459.97 Q1549.28 1461.67 1552.75 1462.54 Q1556.23 1463.4 1560.01 1463.4 Q1566.61 1463.4 1570.05 1460.8 Q1573.52 1458.2 1573.52 1453.23 Q1573.52 1448.65 1570.29 1446.08 Q1567.09 1443.47 1561.36 1443.47 L1555.32 1443.47 L1555.32 1437.71 L1561.64 1437.71 Q1566.82 1437.71 1569.56 1435.66 Q1572.3 1433.58 1572.3 1429.69 Q1572.3 1425.7 1569.45 1423.58 Q1566.64 1421.43 1561.36 1421.43 Q1558.48 1421.43 1555.18 1422.05 Q1551.89 1422.68 1547.93 1423.99 L1547.93 1417.74 Q1551.92 1416.63 1555.39 1416.08 Q1558.9 1415.52 1561.99 1415.52 Q1569.98 1415.52 1574.63 1419.17 Q1579.28 1422.78 1579.28 1428.96 Q1579.28 1433.27 1576.82 1436.25 Q1574.35 1439.2 1569.8 1440.35 Z" fill="#000000" fill-rule="nonzero" fill-opacity="1" /><path clip-path="url(#clip500)" d="M1608.79 1421.08 Q1603.38 1421.08 1600.64 1426.43 Q1597.93 1431.74 1597.93 1442.43 Q1597.93 1453.09 1600.64 1458.44 Q1603.38 1463.75 1608.79 1463.75 Q1614.25 1463.75 1616.95 1458.44 Q1619.7 1453.09 1619.7 1442.43 Q1619.7 1431.74 1616.95 1426.43 Q1614.25 1421.08 1608.79 1421.08 M1608.79 1415.52 Q1617.51 1415.52 1622.09 1422.43 Q1626.71 1429.31 1626.71 1442.43 Q1626.71 1455.52 1622.09 1462.43 Q1617.51 1469.31 1608.79 1469.31 Q1600.08 1469.31 1595.46 1462.43 Q1590.88 1455.52 1590.88 1442.43 Q1590.88 1429.31 1595.46 1422.43 Q1600.08 1415.52 1608.79 1415.52 Z" fill="#000000" fill-rule="nonzero" fill-opacity="1" /><path clip-path="url(#clip500)" d="M1654.04 1421.08 Q1648.62 1421.08 1645.88 1426.43 Q1643.17 1431.74 1643.17 1442.43 Q1643.17 1453.09 1645.88 1458.44 Q1648.62 1463.75 1654.04 1463.75 Q1659.49 1463.75 1662.2 1458.44 Q1664.94 1453.09 1664.94 1442.43 Q1664.94 1431.74 1662.2 1426.43 Q1659.49 1421.08 1654.04 1421.08 M1654.04 1415.52 Q1662.75 1415.52 1667.34 1422.43 Q1671.95 1429.31 1671.95 1442.43 Q1671.95 1455.52 1667.34 1462.43 Q1662.75 1469.31 1654.04 1469.31 Q1645.32 1469.31 1640.7 1462.43 Q1636.12 1455.52 1636.12 1442.43 Q1636.12 1429.31 1640.7 1422.43 Q1645.32 1415.52 1654.04 1415.52 Z" fill="#000000" fill-rule="nonzero" fill-opacity="1" /><path clip-path="url(#clip500)" d="M1914.65 1422.57 L1896.95 1450.24 L1914.65 1450.24 L1914.65 1422.57 M1912.81 1416.46 L1921.63 1416.46 L1921.63 1450.24 L1929.03 1450.24 L1929.03 1456.08 L1921.63 1456.08 L1921.63 1468.3 L1914.65 1468.3 L1914.65 1456.08 L1891.25 1456.08 L1891.25 1449.31 L1912.81 1416.46 Z" fill="#000000" fill-rule="nonzero" fill-opacity="1" /><path clip-path="url(#clip500)" d="M1955.63 1421.08 Q1950.21 1421.08 1947.47 1426.43 Q1944.76 1431.74 1944.76 1442.43 Q1944.76 1453.09 1947.47 1458.44 Q1950.21 1463.75 1955.63 1463.75 Q1961.08 1463.75 1963.79 1458.44 Q1966.53 1453.09 1966.53 1442.43 Q1966.53 1431.74 1963.79 1426.43 Q1961.08 1421.08 1955.63 1421.08 M1955.63 1415.52 Q1964.34 1415.52 1968.92 1422.43 Q1973.54 1429.31 1973.54 1442.43 Q1973.54 1455.52 1968.92 1462.43 Q1964.34 1469.31 1955.63 1469.31 Q1946.91 1469.31 1942.29 1462.43 Q1937.71 1455.52 1937.71 1442.43 Q1937.71 1429.31 1942.29 1422.43 Q1946.91 1415.52 1955.63 1415.52 Z" fill="#000000" fill-rule="nonzero" fill-opacity="1" /><path clip-path="url(#clip500)" d="M2000.87 1421.08 Q1995.45 1421.08 1992.71 1426.43 Q1990 1431.74 1990 1442.43 Q1990 1453.09 1992.71 1458.44 Q1995.45 1463.75 2000.87 1463.75 Q2006.32 1463.75 2009.03 1458.44 Q2011.77 1453.09 2011.77 1442.43 Q2011.77 1431.74 2009.03 1426.43 Q2006.32 1421.08 2000.87 1421.08 M2000.87 1415.52 Q2009.58 1415.52 2014.17 1422.43 Q2018.79 1429.31 2018.79 1442.43 Q2018.79 1455.52 2014.17 1462.43 Q2009.58 1469.31 2000.87 1469.31 Q1992.15 1469.31 1987.54 1462.43 Q1982.95 1455.52 1982.95 1442.43 Q1982.95 1429.31 1987.54 1422.43 Q1992.15 1415.52 2000.87 1415.52 Z" fill="#000000" fill-rule="nonzero" fill-opacity="1" /><path clip-path="url(#clip500)" d="M2240.3 1416.46 L2267.84 1416.46 L2267.84 1422.36 L2246.73 1422.36 L2246.73 1435.07 Q2248.26 1434.55 2249.78 1434.31 Q2251.31 1434.03 2252.84 1434.03 Q2261.52 1434.03 2266.59 1438.79 Q2271.66 1443.54 2271.66 1451.67 Q2271.66 1460.04 2266.45 1464.69 Q2261.24 1469.31 2251.76 1469.31 Q2248.5 1469.31 2245.1 1468.75 Q2241.73 1468.2 2238.12 1467.08 L2238.12 1460.04 Q2241.24 1461.74 2244.58 1462.57 Q2247.91 1463.4 2251.62 1463.4 Q2257.63 1463.4 2261.14 1460.24 Q2264.64 1457.08 2264.64 1451.67 Q2264.64 1446.25 2261.14 1443.09 Q2257.63 1439.93 2251.62 1439.93 Q2248.81 1439.93 2246 1440.56 Q2243.22 1441.18 2240.3 1442.5 L2240.3 1416.46 Z" fill="#000000" fill-rule="nonzero" fill-opacity="1" /><path clip-path="url(#clip500)" d="M2300.48 1421.08 Q2295.06 1421.08 2292.32 1426.43 Q2289.61 1431.74 2289.61 1442.43 Q2289.61 1453.09 2292.32 1458.44 Q2295.06 1463.75 2300.48 1463.75 Q2305.93 1463.75 2308.64 1458.44 Q2311.38 1453.09 2311.38 1442.43 Q2311.38 1431.74 2308.64 1426.43 Q2305.93 1421.08 2300.48 1421.08 M2300.48 1415.52 Q2309.19 1415.52 2313.78 1422.43 Q2318.39 1429.31 2318.39 1442.43 Q2318.39 1455.52 2313.78 1462.43 Q2309.19 1469.31 2300.48 1469.31 Q2291.76 1469.31 2287.14 1462.43 Q2282.56 1455.52 2282.56 1442.43 Q2282.56 1429.31 2287.14 1422.43 Q2291.76 1415.52 2300.48 1415.52 Z" fill="#000000" fill-rule="nonzero" fill-opacity="1" /><path clip-path="url(#clip500)" d="M2345.72 1421.08 Q2340.3 1421.08 2337.56 1426.43 Q2334.85 1431.74 2334.85 1442.43 Q2334.85 1453.09 2337.56 1458.44 Q2340.3 1463.75 2345.72 1463.75 Q2351.17 1463.75 2353.88 1458.44 Q2356.62 1453.09 2356.62 1442.43 Q2356.62 1431.74 2353.88 1426.43 Q2351.17 1421.08 2345.72 1421.08 M2345.72 1415.52 Q2354.44 1415.52 2359.02 1422.43 Q2363.64 1429.31 2363.64 1442.43 Q2363.64 1455.52 2359.02 1462.43 Q2354.44 1469.31 2345.72 1469.31 Q2337.01 1469.31 2332.39 1462.43 Q2327.8 1455.52 2327.8 1442.43 Q2327.8 1429.31 2332.39 1422.43 Q2337.01 1415.52 2345.72 1415.52 Z" fill="#000000" fill-rule="nonzero" fill-opacity="1" /><path clip-path="url(#clip500)" d="M1217.41 1511.88 L1226.76 1511.88 L1226.76 1581 L1217.41 1581 L1217.41 1511.88 Z" fill="#000000" fill-rule="nonzero" fill-opacity="1" /><path clip-path="url(#clip500)" d="M1253.43 1514.43 L1253.43 1529.15 L1270.98 1529.15 L1270.98 1535.77 L1253.43 1535.77 L1253.43 1563.92 Q1253.43 1570.26 1255.14 1572.07 Q1256.9 1573.87 1262.23 1573.87 L1270.98 1573.87 L1270.98 1581 L1262.23 1581 Q1252.37 1581 1248.62 1577.35 Q1244.87 1573.64 1244.87 1563.92 L1244.87 1535.77 L1238.62 1535.77 L1238.62 1529.15 L1244.87 1529.15 L1244.87 1514.43 L1253.43 1514.43 Z" fill="#000000" fill-rule="nonzero" fill-opacity="1" /><path clip-path="url(#clip500)" d="M1326.53 1552.95 L1326.53 1557.12 L1287.37 1557.12 Q1287.92 1565.91 1292.64 1570.54 Q1297.41 1575.12 1305.88 1575.12 Q1310.79 1575.12 1315.37 1573.92 Q1320 1572.72 1324.54 1570.31 L1324.54 1578.36 Q1319.96 1580.31 1315.14 1581.33 Q1310.33 1582.35 1305.37 1582.35 Q1292.97 1582.35 1285.7 1575.12 Q1278.48 1567.9 1278.48 1555.59 Q1278.48 1542.86 1285.33 1535.4 Q1292.23 1527.9 1303.89 1527.9 Q1314.36 1527.9 1320.42 1534.66 Q1326.53 1541.37 1326.53 1552.95 M1318.01 1550.45 Q1317.92 1543.46 1314.08 1539.29 Q1310.28 1535.12 1303.99 1535.12 Q1296.86 1535.12 1292.55 1539.15 Q1288.29 1543.18 1287.64 1550.49 L1318.01 1550.45 Z" fill="#000000" fill-rule="nonzero" fill-opacity="1" /><path clip-path="url(#clip500)" d="M1370.56 1537.12 Q1369.12 1536.28 1367.41 1535.91 Q1365.74 1535.49 1363.71 1535.49 Q1356.49 1535.49 1352.6 1540.22 Q1348.75 1544.89 1348.75 1553.69 L1348.75 1581 L1340.19 1581 L1340.19 1529.15 L1348.75 1529.15 L1348.75 1537.21 Q1351.44 1532.49 1355.74 1530.22 Q1360.05 1527.9 1366.21 1527.9 Q1367.09 1527.9 1368.15 1528.04 Q1369.22 1528.13 1370.51 1528.37 L1370.56 1537.12 Z" fill="#000000" fill-rule="nonzero" fill-opacity="1" /><path clip-path="url(#clip500)" d="M1403.06 1554.94 Q1392.73 1554.94 1388.75 1557.3 Q1384.77 1559.66 1384.77 1565.36 Q1384.77 1569.89 1387.73 1572.58 Q1390.74 1575.22 1395.88 1575.22 Q1402.97 1575.22 1407.23 1570.22 Q1411.53 1565.17 1411.53 1556.84 L1411.53 1554.94 L1403.06 1554.94 M1420.05 1551.42 L1420.05 1581 L1411.53 1581 L1411.53 1573.13 Q1408.61 1577.86 1404.26 1580.12 Q1399.91 1582.35 1393.61 1582.35 Q1385.65 1582.35 1380.93 1577.9 Q1376.25 1573.41 1376.25 1565.91 Q1376.25 1557.16 1382.09 1552.72 Q1387.97 1548.27 1399.59 1548.27 L1411.53 1548.27 L1411.53 1547.44 Q1411.53 1541.56 1407.64 1538.37 Q1403.8 1535.12 1396.81 1535.12 Q1392.36 1535.12 1388.15 1536.19 Q1383.94 1537.25 1380.05 1539.38 L1380.05 1531.51 Q1384.73 1529.71 1389.12 1528.83 Q1393.52 1527.9 1397.69 1527.9 Q1408.94 1527.9 1414.49 1533.74 Q1420.05 1539.57 1420.05 1551.42 Z" fill="#000000" fill-rule="nonzero" fill-opacity="1" /><path clip-path="url(#clip500)" d="M1446.02 1514.43 L1446.02 1529.15 L1463.57 1529.15 L1463.57 1535.77 L1446.02 1535.77 L1446.02 1563.92 Q1446.02 1570.26 1447.73 1572.07 Q1449.49 1573.87 1454.82 1573.87 L1463.57 1573.87 L1463.57 1581 L1454.82 1581 Q1444.96 1581 1441.21 1577.35 Q1437.46 1573.64 1437.46 1563.92 L1437.46 1535.77 L1431.21 1535.77 L1431.21 1529.15 L1437.46 1529.15 L1437.46 1514.43 L1446.02 1514.43 Z" fill="#000000" fill-rule="nonzero" fill-opacity="1" /><path clip-path="url(#clip500)" d="M1474.77 1529.15 L1483.29 1529.15 L1483.29 1581 L1474.77 1581 L1474.77 1529.15 M1474.77 1508.97 L1483.29 1508.97 L1483.29 1519.75 L1474.77 1519.75 L1474.77 1508.97 Z" fill="#000000" fill-rule="nonzero" fill-opacity="1" /><path clip-path="url(#clip500)" d="M1521.21 1535.12 Q1514.35 1535.12 1510.37 1540.49 Q1506.39 1545.82 1506.39 1555.12 Q1506.39 1564.43 1510.33 1569.8 Q1514.31 1575.12 1521.21 1575.12 Q1528.01 1575.12 1531.99 1569.75 Q1535.97 1564.38 1535.97 1555.12 Q1535.97 1545.91 1531.99 1540.54 Q1528.01 1535.12 1521.21 1535.12 M1521.21 1527.9 Q1532.32 1527.9 1538.66 1535.12 Q1545 1542.35 1545 1555.12 Q1545 1567.86 1538.66 1575.12 Q1532.32 1582.35 1521.21 1582.35 Q1510.05 1582.35 1503.71 1575.12 Q1497.41 1567.86 1497.41 1555.12 Q1497.41 1542.35 1503.71 1535.12 Q1510.05 1527.9 1521.21 1527.9 Z" fill="#000000" fill-rule="nonzero" fill-opacity="1" /><path clip-path="url(#clip500)" d="M1602.22 1549.71 L1602.22 1581 L1593.71 1581 L1593.71 1549.99 Q1593.71 1542.62 1590.84 1538.97 Q1587.97 1535.31 1582.22 1535.31 Q1575.33 1535.31 1571.35 1539.71 Q1567.36 1544.11 1567.36 1551.7 L1567.36 1581 L1558.8 1581 L1558.8 1529.15 L1567.36 1529.15 L1567.36 1537.21 Q1570.42 1532.53 1574.54 1530.22 Q1578.71 1527.9 1584.12 1527.9 Q1593.06 1527.9 1597.64 1533.46 Q1602.22 1538.97 1602.22 1549.71 Z" fill="#000000" fill-rule="nonzero" fill-opacity="1" /><path clip-path="url(#clip500)" d="M1652.27 1530.68 L1652.27 1538.74 Q1648.66 1536.88 1644.77 1535.96 Q1640.88 1535.03 1636.72 1535.03 Q1630.37 1535.03 1627.18 1536.98 Q1624.03 1538.92 1624.03 1542.81 Q1624.03 1545.77 1626.3 1547.49 Q1628.57 1549.15 1635.42 1550.68 L1638.34 1551.33 Q1647.41 1553.27 1651.21 1556.84 Q1655.05 1560.36 1655.05 1566.7 Q1655.05 1573.92 1649.31 1578.13 Q1643.61 1582.35 1633.61 1582.35 Q1629.45 1582.35 1624.91 1581.51 Q1620.42 1580.73 1615.42 1579.11 L1615.42 1570.31 Q1620.14 1572.76 1624.72 1574.01 Q1629.31 1575.22 1633.8 1575.22 Q1639.82 1575.22 1643.06 1573.18 Q1646.3 1571.1 1646.3 1567.35 Q1646.3 1563.87 1643.94 1562.02 Q1641.62 1560.17 1633.71 1558.46 L1630.74 1557.76 Q1622.83 1556.1 1619.31 1552.67 Q1615.79 1549.2 1615.79 1543.18 Q1615.79 1535.87 1620.97 1531.88 Q1626.16 1527.9 1635.7 1527.9 Q1640.42 1527.9 1644.59 1528.6 Q1648.75 1529.29 1652.27 1530.68 Z" fill="#000000" fill-rule="nonzero" fill-opacity="1" /><polyline clip-path="url(#clip502)" style="stroke:#000000; stroke-linecap:round; stroke-linejoin:round; stroke-width:2; stroke-opacity:0.1; fill:none" points="519.704,1062.16 2352.76,1062.16 "/>
<polyline clip-path="url(#clip502)" style="stroke:#000000; stroke-linecap:round; stroke-linejoin:round; stroke-width:2; stroke-opacity:0.1; fill:none" points="519.704,738.033 2352.76,738.033 "/>
<polyline clip-path="url(#clip502)" style="stroke:#000000; stroke-linecap:round; stroke-linejoin:round; stroke-width:2; stroke-opacity:0.1; fill:none" points="519.704,413.903 2352.76,413.903 "/>
<polyline clip-path="url(#clip502)" style="stroke:#000000; stroke-linecap:round; stroke-linejoin:round; stroke-width:2; stroke-opacity:0.1; fill:none" points="519.704,89.7733 2352.76,89.7733 "/>
<polyline clip-path="url(#clip500)" style="stroke:#000000; stroke-linecap:round; stroke-linejoin:round; stroke-width:4; stroke-opacity:1; fill:none" points="519.704,1384.3 519.704,47.2441 "/>
<polyline clip-path="url(#clip500)" style="stroke:#000000; stroke-linecap:round; stroke-linejoin:round; stroke-width:4; stroke-opacity:1; fill:none" points="519.704,1062.16 538.602,1062.16 "/>
<polyline clip-path="url(#clip500)" style="stroke:#000000; stroke-linecap:round; stroke-linejoin:round; stroke-width:4; stroke-opacity:1; fill:none" points="519.704,738.033 538.602,738.033 "/>
<polyline clip-path="url(#clip500)" style="stroke:#000000; stroke-linecap:round; stroke-linejoin:round; stroke-width:4; stroke-opacity:1; fill:none" points="519.704,413.903 538.602,413.903 "/>
<polyline clip-path="url(#clip500)" style="stroke:#000000; stroke-linecap:round; stroke-linejoin:round; stroke-width:4; stroke-opacity:1; fill:none" points="519.704,89.7733 538.602,89.7733 "/>
<path clip-path="url(#clip500)" d="M213.923 1048.62 L236.868 1048.62 L236.868 1053.54 L219.276 1053.54 L219.276 1064.13 Q220.549 1063.7 221.822 1063.49 Q223.095 1063.26 224.369 1063.26 Q231.602 1063.26 235.827 1067.23 Q240.051 1071.19 240.051 1077.96 Q240.051 1084.94 235.711 1088.81 Q231.371 1092.66 223.472 1092.66 Q220.752 1092.66 217.916 1092.2 Q215.109 1091.74 212.1 1090.81 L212.1 1084.94 Q214.704 1086.35 217.482 1087.05 Q220.26 1087.74 223.356 1087.74 Q228.362 1087.74 231.284 1085.11 Q234.206 1082.48 234.206 1077.96 Q234.206 1073.45 231.284 1070.82 Q228.362 1068.18 223.356 1068.18 Q221.012 1068.18 218.668 1068.7 Q216.354 1069.22 213.923 1070.32 L213.923 1048.62 Z" fill="#000000" fill-rule="nonzero" fill-opacity="1" /><path clip-path="url(#clip500)" d="M251.567 1084.47 L257.673 1084.47 L257.673 1091.82 L251.567 1091.82 L251.567 1084.47 Z" fill="#000000" fill-rule="nonzero" fill-opacity="1" /><path clip-path="url(#clip500)" d="M282.904 1052.47 Q278.39 1052.47 276.104 1056.93 Q273.847 1061.35 273.847 1070.27 Q273.847 1079.15 276.104 1083.6 Q278.39 1088.03 282.904 1088.03 Q287.447 1088.03 289.704 1083.6 Q291.99 1079.15 291.99 1070.27 Q291.99 1061.35 289.704 1056.93 Q287.447 1052.47 282.904 1052.47 M282.904 1047.84 Q290.167 1047.84 293.986 1053.6 Q297.835 1059.33 297.835 1070.27 Q297.835 1081.17 293.986 1086.93 Q290.167 1092.66 282.904 1092.66 Q275.641 1092.66 271.793 1086.93 Q267.974 1081.17 267.974 1070.27 Q267.974 1059.33 271.793 1053.6 Q275.641 1047.84 282.904 1047.84 Z" fill="#000000" fill-rule="nonzero" fill-opacity="1" /><path clip-path="url(#clip500)" d="M320.606 1052.47 Q316.093 1052.47 313.807 1056.93 Q311.55 1061.35 311.55 1070.27 Q311.55 1079.15 313.807 1083.6 Q316.093 1088.03 320.606 1088.03 Q325.149 1088.03 327.406 1083.6 Q329.692 1079.15 329.692 1070.27 Q329.692 1061.35 327.406 1056.93 Q325.149 1052.47 320.606 1052.47 M320.606 1047.84 Q327.869 1047.84 331.689 1053.6 Q335.537 1059.33 335.537 1070.27 Q335.537 1081.17 331.689 1086.93 Q327.869 1092.66 320.606 1092.66 Q313.344 1092.66 309.495 1086.93 Q305.676 1081.17 305.676 1070.27 Q305.676 1059.33 309.495 1053.6 Q313.344 1047.84 320.606 1047.84 Z" fill="#000000" fill-rule="nonzero" fill-opacity="1" /><path clip-path="url(#clip500)" d="M381.023 1059.99 L367.799 1073.27 L381.023 1086.5 L377.58 1090 L364.298 1076.72 L351.017 1090 L347.603 1086.5 L360.797 1073.27 L347.603 1059.99 L351.017 1056.49 L364.298 1069.77 L377.58 1056.49 L381.023 1059.99 Z" fill="#000000" fill-rule="nonzero" fill-opacity="1" /><path clip-path="url(#clip500)" d="M396.474 1086.9 L406.023 1086.9 L406.023 1053.95 L395.635 1056.03 L395.635 1050.71 L405.965 1048.62 L411.81 1048.62 L411.81 1086.9 L421.358 1086.9 L421.358 1091.82 L396.474 1091.82 L396.474 1086.9 Z" fill="#000000" fill-rule="nonzero" fill-opacity="1" /><path clip-path="url(#clip500)" d="M445.664 1052.47 Q441.15 1052.47 438.864 1056.93 Q436.607 1061.35 436.607 1070.27 Q436.607 1079.15 438.864 1083.6 Q441.15 1088.03 445.664 1088.03 Q450.206 1088.03 452.463 1083.6 Q454.749 1079.15 454.749 1070.27 Q454.749 1061.35 452.463 1056.93 Q450.206 1052.47 445.664 1052.47 M445.664 1047.84 Q452.926 1047.84 456.746 1053.6 Q460.594 1059.33 460.594 1070.27 Q460.594 1081.17 456.746 1086.93 Q452.926 1092.66 445.664 1092.66 Q438.401 1092.66 434.553 1086.93 Q430.733 1081.17 430.733 1070.27 Q430.733 1059.33 434.553 1053.6 Q438.401 1047.84 445.664 1047.84 Z" fill="#000000" fill-rule="nonzero" fill-opacity="1" /><path clip-path="url(#clip500)" d="M476.463 1038.63 Q479.872 1039.36 481.776 1041.67 Q483.704 1043.97 483.704 1047.36 Q483.704 1052.55 480.131 1055.4 Q476.557 1058.24 469.974 1058.24 Q467.765 1058.24 465.414 1057.79 Q463.086 1057.37 460.594 1056.5 L460.594 1051.92 Q462.569 1053.07 464.92 1053.66 Q467.271 1054.24 469.833 1054.24 Q474.3 1054.24 476.628 1052.48 Q478.979 1050.72 478.979 1047.36 Q478.979 1044.25 476.792 1042.51 Q474.629 1040.75 470.75 1040.75 L466.66 1040.75 L466.66 1036.85 L470.938 1036.85 Q474.441 1036.85 476.299 1035.46 Q478.156 1034.05 478.156 1031.42 Q478.156 1028.71 476.228 1027.28 Q474.324 1025.82 470.75 1025.82 Q468.799 1025.82 466.566 1026.24 Q464.332 1026.67 461.652 1027.56 L461.652 1023.33 Q464.356 1022.58 466.707 1022.2 Q469.081 1021.82 471.173 1021.82 Q476.581 1021.82 479.731 1024.29 Q482.881 1026.74 482.881 1030.92 Q482.881 1033.84 481.212 1035.86 Q479.543 1037.86 476.463 1038.63 Z" fill="#000000" fill-rule="nonzero" fill-opacity="1" /><path clip-path="url(#clip500)" d="M212.409 762.773 L221.958 762.773 L221.958 729.816 L211.57 731.9 L211.57 726.576 L221.9 724.492 L227.745 724.492 L227.745 762.773 L237.293 762.773 L237.293 767.692 L212.409 767.692 L212.409 762.773 Z" fill="#000000" fill-rule="nonzero" fill-opacity="1" /><path clip-path="url(#clip500)" d="M249.099 760.343 L255.204 760.343 L255.204 767.692 L249.099 767.692 L249.099 760.343 Z" fill="#000000" fill-rule="nonzero" fill-opacity="1" /><path clip-path="url(#clip500)" d="M280.436 728.341 Q275.922 728.341 273.636 732.797 Q271.379 737.224 271.379 746.136 Q271.379 755.019 273.636 759.475 Q275.922 763.902 280.436 763.902 Q284.978 763.902 287.235 759.475 Q289.521 755.019 289.521 746.136 Q289.521 737.224 287.235 732.797 Q284.978 728.341 280.436 728.341 M280.436 723.711 Q287.698 723.711 291.518 729.469 Q295.366 735.198 295.366 746.136 Q295.366 757.044 291.518 762.802 Q287.698 768.532 280.436 768.532 Q273.173 768.532 269.325 762.802 Q265.505 757.044 265.505 746.136 Q265.505 735.198 269.325 729.469 Q273.173 723.711 280.436 723.711 Z" fill="#000000" fill-rule="nonzero" fill-opacity="1" /><path clip-path="url(#clip500)" d="M318.138 728.341 Q313.624 728.341 311.338 732.797 Q309.081 737.224 309.081 746.136 Q309.081 755.019 311.338 759.475 Q313.624 763.902 318.138 763.902 Q322.681 763.902 324.938 759.475 Q327.224 755.019 327.224 746.136 Q327.224 737.224 324.938 732.797 Q322.681 728.341 318.138 728.341 M318.138 723.711 Q325.401 723.711 329.22 729.469 Q333.068 735.198 333.068 746.136 Q333.068 757.044 329.22 762.802 Q325.401 768.532 318.138 768.532 Q310.875 768.532 307.027 762.802 Q303.207 757.044 303.207 746.136 Q303.207 735.198 307.027 729.469 Q310.875 723.711 318.138 723.711 Z" fill="#000000" fill-rule="nonzero" fill-opacity="1" /><path clip-path="url(#clip500)" d="M378.554 735.864 L365.331 749.145 L378.554 762.368 L375.111 765.87 L361.83 752.588 L348.549 765.87 L345.134 762.368 L358.329 749.145 L345.134 735.864 L348.549 732.363 L361.83 745.644 L375.111 732.363 L378.554 735.864 Z" fill="#000000" fill-rule="nonzero" fill-opacity="1" /><path clip-path="url(#clip500)" d="M394.006 762.773 L403.554 762.773 L403.554 729.816 L393.166 731.9 L393.166 726.576 L403.496 724.492 L409.341 724.492 L409.341 762.773 L418.89 762.773 L418.89 767.692 L394.006 767.692 L394.006 762.773 Z" fill="#000000" fill-rule="nonzero" fill-opacity="1" /><path clip-path="url(#clip500)" d="M443.195 728.341 Q438.681 728.341 436.395 732.797 Q434.138 737.224 434.138 746.136 Q434.138 755.019 436.395 759.475 Q438.681 763.902 443.195 763.902 Q447.738 763.902 449.995 759.475 Q452.281 755.019 452.281 746.136 Q452.281 737.224 449.995 732.797 Q447.738 728.341 443.195 728.341 M443.195 723.711 Q450.458 723.711 454.277 729.469 Q458.126 735.198 458.126 746.136 Q458.126 757.044 454.277 762.802 Q450.458 768.532 443.195 768.532 Q435.932 768.532 432.084 762.802 Q428.265 757.044 428.265 746.136 Q428.265 735.198 432.084 729.469 Q435.932 723.711 443.195 723.711 Z" fill="#000000" fill-rule="nonzero" fill-opacity="1" /><path clip-path="url(#clip500)" d="M473.971 702.467 L461.981 721.204 L473.971 721.204 L473.971 702.467 M472.725 698.329 L478.697 698.329 L478.697 721.204 L483.704 721.204 L483.704 725.154 L478.697 725.154 L478.697 733.429 L473.971 733.429 L473.971 725.154 L458.126 725.154 L458.126 720.57 L472.725 698.329 Z" fill="#000000" fill-rule="nonzero" fill-opacity="1" /><path clip-path="url(#clip500)" d="M212.409 438.644 L221.958 438.644 L221.958 405.687 L211.57 407.77 L211.57 402.446 L221.9 400.363 L227.745 400.363 L227.745 438.644 L237.293 438.644 L237.293 443.563 L212.409 443.563 L212.409 438.644 Z" fill="#000000" fill-rule="nonzero" fill-opacity="1" /><path clip-path="url(#clip500)" d="M249.099 436.213 L255.204 436.213 L255.204 443.563 L249.099 443.563 L249.099 436.213 Z" fill="#000000" fill-rule="nonzero" fill-opacity="1" /><path clip-path="url(#clip500)" d="M267.994 400.363 L290.939 400.363 L290.939 405.282 L273.346 405.282 L273.346 415.872 Q274.62 415.438 275.893 415.235 Q277.166 415.004 278.439 415.004 Q285.673 415.004 289.897 418.968 Q294.122 422.932 294.122 429.703 Q294.122 436.676 289.782 440.553 Q285.441 444.402 277.542 444.402 Q274.822 444.402 271.987 443.939 Q269.18 443.476 266.171 442.55 L266.171 436.676 Q268.775 438.094 271.553 438.788 Q274.33 439.483 277.426 439.483 Q282.432 439.483 285.355 436.85 Q288.277 434.217 288.277 429.703 Q288.277 425.189 285.355 422.556 Q282.432 419.923 277.426 419.923 Q275.083 419.923 272.739 420.444 Q270.424 420.964 267.994 422.064 L267.994 400.363 Z" fill="#000000" fill-rule="nonzero" fill-opacity="1" /><path clip-path="url(#clip500)" d="M318.138 404.211 Q313.624 404.211 311.338 408.667 Q309.081 413.094 309.081 422.006 Q309.081 430.889 311.338 435.345 Q313.624 439.772 318.138 439.772 Q322.681 439.772 324.938 435.345 Q327.224 430.889 327.224 422.006 Q327.224 413.094 324.938 408.667 Q322.681 404.211 318.138 404.211 M318.138 399.581 Q325.401 399.581 329.22 405.339 Q333.068 411.069 333.068 422.006 Q333.068 432.915 329.22 438.673 Q325.401 444.402 318.138 444.402 Q310.875 444.402 307.027 438.673 Q303.207 432.915 303.207 422.006 Q303.207 411.069 307.027 405.339 Q310.875 399.581 318.138 399.581 Z" fill="#000000" fill-rule="nonzero" fill-opacity="1" /><path clip-path="url(#clip500)" d="M378.554 411.734 L365.331 425.015 L378.554 438.239 L375.111 441.74 L361.83 428.459 L348.549 441.74 L345.134 438.239 L358.329 425.015 L345.134 411.734 L348.549 408.233 L361.83 421.514 L375.111 408.233 L378.554 411.734 Z" fill="#000000" fill-rule="nonzero" fill-opacity="1" /><path clip-path="url(#clip500)" d="M394.006 438.644 L403.554 438.644 L403.554 405.687 L393.166 407.77 L393.166 402.446 L403.496 400.363 L409.341 400.363 L409.341 438.644 L418.89 438.644 L418.89 443.563 L394.006 443.563 L394.006 438.644 Z" fill="#000000" fill-rule="nonzero" fill-opacity="1" /><path clip-path="url(#clip500)" d="M443.195 404.211 Q438.681 404.211 436.395 408.667 Q434.138 413.094 434.138 422.006 Q434.138 430.889 436.395 435.345 Q438.681 439.772 443.195 439.772 Q447.738 439.772 449.995 435.345 Q452.281 430.889 452.281 422.006 Q452.281 413.094 449.995 408.667 Q447.738 404.211 443.195 404.211 M443.195 399.581 Q450.458 399.581 454.277 405.339 Q458.126 411.069 458.126 422.006 Q458.126 432.915 454.277 438.673 Q450.458 444.402 443.195 444.402 Q435.932 444.402 432.084 438.673 Q428.265 432.915 428.265 422.006 Q428.265 411.069 432.084 405.339 Q435.932 399.581 443.195 399.581 Z" fill="#000000" fill-rule="nonzero" fill-opacity="1" /><path clip-path="url(#clip500)" d="M473.971 378.337 L461.981 397.075 L473.971 397.075 L473.971 378.337 M472.725 374.2 L478.697 374.2 L478.697 397.075 L483.704 397.075 L483.704 401.024 L478.697 401.024 L478.697 409.3 L473.971 409.3 L473.971 401.024 L458.126 401.024 L458.126 396.44 L472.725 374.2 Z" fill="#000000" fill-rule="nonzero" fill-opacity="1" /><path clip-path="url(#clip500)" d="M216.431 114.514 L236.83 114.514 L236.83 119.433 L209.4 119.433 L209.4 114.514 Q212.728 111.071 218.457 105.284 Q224.215 99.4676 225.69 97.7894 Q228.497 94.6354 229.597 92.4653 Q230.725 90.2662 230.725 88.154 Q230.725 84.7107 228.295 82.5406 Q225.893 80.3705 222.016 80.3705 Q219.267 80.3705 216.2 81.3253 Q213.162 82.2802 209.689 84.2188 L209.689 78.3161 Q213.219 76.8983 216.287 76.1749 Q219.354 75.4515 221.9 75.4515 Q228.613 75.4515 232.606 78.808 Q236.599 82.1644 236.599 87.7778 Q236.599 90.4399 235.586 92.8415 Q234.602 95.2141 231.969 98.4549 Q231.246 99.294 227.369 103.316 Q223.491 107.309 216.431 114.514 Z" fill="#000000" fill-rule="nonzero" fill-opacity="1" /><path clip-path="url(#clip500)" d="M249.099 112.083 L255.204 112.083 L255.204 119.433 L249.099 119.433 L249.099 112.083 Z" fill="#000000" fill-rule="nonzero" fill-opacity="1" /><path clip-path="url(#clip500)" d="M280.436 80.0811 Q275.922 80.0811 273.636 84.5371 Q271.379 88.9642 271.379 97.8762 Q271.379 106.759 273.636 111.215 Q275.922 115.642 280.436 115.642 Q284.978 115.642 287.235 111.215 Q289.521 106.759 289.521 97.8762 Q289.521 88.9642 287.235 84.5371 Q284.978 80.0811 280.436 80.0811 M280.436 75.4515 Q287.698 75.4515 291.518 81.2096 Q295.366 86.9387 295.366 97.8762 Q295.366 108.785 291.518 114.543 Q287.698 120.272 280.436 120.272 Q273.173 120.272 269.325 114.543 Q265.505 108.785 265.505 97.8762 Q265.505 86.9387 269.325 81.2096 Q273.173 75.4515 280.436 75.4515 Z" fill="#000000" fill-rule="nonzero" fill-opacity="1" /><path clip-path="url(#clip500)" d="M318.138 80.0811 Q313.624 80.0811 311.338 84.5371 Q309.081 88.9642 309.081 97.8762 Q309.081 106.759 311.338 111.215 Q313.624 115.642 318.138 115.642 Q322.681 115.642 324.938 111.215 Q327.224 106.759 327.224 97.8762 Q327.224 88.9642 324.938 84.5371 Q322.681 80.0811 318.138 80.0811 M318.138 75.4515 Q325.401 75.4515 329.22 81.2096 Q333.068 86.9387 333.068 97.8762 Q333.068 108.785 329.22 114.543 Q325.401 120.272 318.138 120.272 Q310.875 120.272 307.027 114.543 Q303.207 108.785 303.207 97.8762 Q303.207 86.9387 307.027 81.2096 Q310.875 75.4515 318.138 75.4515 Z" fill="#000000" fill-rule="nonzero" fill-opacity="1" /><path clip-path="url(#clip500)" d="M378.554 87.6042 L365.331 100.885 L378.554 114.109 L375.111 117.61 L361.83 104.329 L348.549 117.61 L345.134 114.109 L358.329 100.885 L345.134 87.6042 L348.549 84.1031 L361.83 97.3843 L375.111 84.1031 L378.554 87.6042 Z" fill="#000000" fill-rule="nonzero" fill-opacity="1" /><path clip-path="url(#clip500)" d="M394.006 114.514 L403.554 114.514 L403.554 81.5568 L393.166 83.6401 L393.166 78.3161 L403.496 76.2328 L409.341 76.2328 L409.341 114.514 L418.89 114.514 L418.89 119.433 L394.006 119.433 L394.006 114.514 Z" fill="#000000" fill-rule="nonzero" fill-opacity="1" /><path clip-path="url(#clip500)" d="M443.195 80.0811 Q438.681 80.0811 436.395 84.5371 Q434.138 88.9642 434.138 97.8762 Q434.138 106.759 436.395 111.215 Q438.681 115.642 443.195 115.642 Q447.738 115.642 449.995 111.215 Q452.281 106.759 452.281 97.8762 Q452.281 88.9642 449.995 84.5371 Q447.738 80.0811 443.195 80.0811 M443.195 75.4515 Q450.458 75.4515 454.277 81.2096 Q458.126 86.9387 458.126 97.8762 Q458.126 108.785 454.277 114.543 Q450.458 120.272 443.195 120.272 Q435.932 120.272 432.084 114.543 Q428.265 108.785 428.265 97.8762 Q428.265 86.9387 432.084 81.2096 Q435.932 75.4515 443.195 75.4515 Z" fill="#000000" fill-rule="nonzero" fill-opacity="1" /><path clip-path="url(#clip500)" d="M473.971 54.2075 L461.981 72.9447 L473.971 72.9447 L473.971 54.2075 M472.725 50.0698 L478.697 50.0698 L478.697 72.9447 L483.704 72.9447 L483.704 76.8943 L478.697 76.8943 L478.697 85.1698 L473.971 85.1698 L473.971 76.8943 L458.126 76.8943 L458.126 72.3099 L472.725 50.0698 Z" fill="#000000" fill-rule="nonzero" fill-opacity="1" /><path clip-path="url(#clip500)" d="M160.309 1350.74 L70.2734 1350.74 Q67.4158 1350.74 67.4158 1348.82 Q67.4158 1346.9 70.4139 1346.9 L160.075 1346.9 Q163.167 1346.9 163.167 1348.82 Q163.167 1350.74 160.309 1350.74 M160.309 1340.15 L70.9761 1340.15 Q67.4158 1340.15 67.4158 1338.23 Q67.4158 1336.31 70.4139 1336.31 L160.075 1336.31 Q163.167 1336.31 163.167 1338.23 Q163.167 1340.15 160.309 1340.15 Z" fill="#000000" fill-rule="nonzero" fill-opacity="1" /><path clip-path="url(#clip500)" d="M115.291 1304.77 Q99.083 1304.77 86.0133 1298.73 Q80.5324 1296.15 75.9416 1292.54 Q71.3508 1288.94 69.3365 1286.55 Q67.3222 1284.16 67.3222 1283.5 Q67.3222 1282.56 68.2591 1282.52 Q68.7275 1282.52 69.8986 1283.78 Q85.6385 1299.24 115.291 1299.19 Q145.038 1299.19 160.169 1284.16 Q161.808 1282.52 162.324 1282.52 Q163.26 1282.52 163.26 1283.5 Q163.26 1284.16 161.34 1286.45 Q159.419 1288.75 155.016 1292.31 Q150.612 1295.87 145.225 1298.44 Q132.155 1304.77 115.291 1304.77 Z" fill="#000000" fill-rule="nonzero" fill-opacity="1" /><path clip-path="url(#clip500)" d="M74.911 1205.48 Q75.52 1205.48 75.8948 1205.62 Q76.2695 1205.71 76.4569 1206.08 Q76.5974 1206.41 76.6443 1206.65 Q76.6911 1206.83 76.738 1207.4 Q76.9254 1209.69 77.5343 1211.61 Q78.0965 1213.53 79.2208 1215.17 Q80.345 1216.77 81.0946 1217.66 Q81.8441 1218.5 83.3431 1220 L84.7016 1221.31 L112.012 1245.11 Q112.949 1245.95 115.01 1246.47 L128.548 1249.84 Q134.17 1251.15 134.591 1251.15 Q135.435 1251.15 135.716 1250.68 Q135.95 1250.17 136.09 1248.57 L136.325 1244.92 Q136.325 1242.76 136.699 1242.44 Q136.934 1242.25 137.355 1242.25 Q138.245 1242.25 138.714 1242.62 Q139.135 1242.95 139.229 1243.28 Q139.276 1243.56 139.276 1244.08 L138.995 1256.35 L139.276 1268.44 Q139.276 1269.79 138.198 1269.79 Q137.496 1269.79 137.121 1269.7 Q136.699 1269.56 136.559 1269.14 Q136.372 1268.72 136.372 1268.39 Q136.325 1268.06 136.325 1267.17 Q136.278 1265.02 136.278 1263.94 Q136.231 1262.81 135.95 1261.74 Q135.669 1260.66 135.481 1260.28 Q135.247 1259.86 134.451 1259.39 Q133.608 1258.88 132.952 1258.74 Q132.296 1258.55 130.656 1258.18 Q129.204 1257.8 121.287 1255.83 Q113.371 1253.87 113.183 1253.87 Q112.668 1253.87 111.544 1254.24 L79.9703 1266.05 Q78.5649 1266.56 78.0028 1266.98 Q77.4406 1267.4 77.1127 1268.81 Q76.738 1270.22 76.738 1273.03 Q76.738 1273.82 76.6911 1274.2 Q76.6443 1274.57 76.4101 1274.9 Q76.1758 1275.23 75.6605 1275.23 Q74.7705 1275.23 74.3489 1274.85 Q73.8804 1274.48 73.8336 1274.2 Q73.7399 1273.87 73.7399 1273.4 Q73.7399 1272.23 73.8804 1268.06 Q74.021 1263.89 74.021 1262.67 L73.7399 1250.59 Q73.7399 1249.14 74.8173 1249.14 Q76.129 1249.14 76.4569 1249.65 Q76.738 1250.17 76.738 1251.43 Q76.738 1257.1 79.0334 1257.1 Q79.3144 1257.1 80.6729 1256.54 L109.155 1246 L83.5305 1223.75 L83.1557 1223.42 Q82.781 1223.14 82.4999 1222.9 Q82.2188 1222.67 81.7035 1222.29 Q81.1882 1221.92 80.7666 1221.73 Q80.345 1221.5 79.8297 1221.31 Q79.3144 1221.12 78.9397 1221.12 Q78.237 1221.12 77.7686 1221.54 Q77.2533 1221.97 77.0659 1222.62 Q76.8785 1223.28 76.8317 1223.75 Q76.738 1224.21 76.738 1224.59 Q76.738 1226.04 75.5669 1226.04 Q74.7236 1226.04 74.302 1225.67 Q73.8336 1225.29 73.7867 1225.01 Q73.7399 1224.68 73.7399 1224.21 Q73.7399 1222.67 73.8804 1219.44 Q74.021 1216.2 74.021 1214.61 Q74.021 1213.3 73.8804 1210.63 Q73.7399 1207.96 73.7399 1206.74 Q73.7399 1205.48 74.911 1205.48 Z" fill="#000000" fill-rule="nonzero" fill-opacity="1" /><path clip-path="url(#clip500)" d="M113.933 1130.12 Q114.495 1129.55 115.291 1129.55 Q116.088 1129.55 116.65 1130.12 Q117.212 1130.68 117.212 1131.48 L117.212 1191.53 Q117.212 1192.33 116.65 1192.89 Q116.088 1193.45 115.291 1193.45 Q114.495 1193.45 113.933 1192.89 Q113.371 1192.33 113.371 1191.53 L113.371 1131.48 Q113.371 1130.68 113.933 1130.12 Z" fill="#000000" fill-rule="nonzero" fill-opacity="1" /><path clip-path="url(#clip500)" d="M115.572 1034.98 Q115.853 1034.98 116.931 1035.36 L137.636 1042.95 Q138.854 1043.37 139.089 1043.79 Q139.276 1044.21 139.276 1045.95 L139.276 1090.35 Q139.276 1091.43 139.229 1091.85 Q139.182 1092.27 138.948 1092.6 Q138.714 1092.93 138.198 1092.93 Q137.262 1092.93 136.84 1092.6 Q136.418 1092.23 136.372 1091.81 Q136.325 1091.38 136.325 1090.35 Q136.325 1088.01 136.184 1086.61 Q136.044 1085.2 135.856 1084.31 Q135.622 1083.37 134.966 1082.91 Q134.31 1082.39 133.748 1082.16 Q133.139 1081.92 131.781 1081.59 L80.2513 1068.76 Q78.7055 1068.38 78.4712 1068.38 Q77.5812 1068.38 77.347 1068.95 Q77.0659 1069.46 76.9254 1070.96 L76.738 1074.61 Q76.738 1075.74 76.6911 1076.21 Q76.6443 1076.63 76.4101 1076.96 Q76.1758 1077.28 75.6605 1077.28 Q74.7705 1077.28 74.3489 1076.96 Q73.8804 1076.58 73.8336 1076.3 Q73.7399 1075.97 73.7399 1075.46 L74.021 1062.72 L73.7399 1048.52 Q73.7399 1046.98 74.911 1046.98 Q76.2227 1046.98 76.5038 1047.63 Q76.738 1048.29 76.738 1050.63 Q76.738 1055.13 77.2064 1057.19 Q77.6749 1059.2 78.4712 1059.76 Q79.2208 1060.28 81.2351 1060.8 L133.046 1073.77 Q134.779 1074.24 135.247 1074.24 Q135.763 1074.24 135.95 1074.01 Q136.09 1073.72 136.184 1072.97 Q136.325 1072.13 136.325 1070.87 L136.325 1061.87 Q136.325 1059.16 135.903 1056.77 Q135.481 1054.38 134.872 1052.55 Q134.263 1050.68 133.139 1048.99 Q132.015 1047.3 131.031 1046.13 Q130.001 1044.91 128.408 1043.74 Q126.768 1042.53 125.644 1041.82 Q124.473 1041.07 122.599 1040.23 Q120.678 1039.39 119.601 1038.97 Q118.477 1038.5 116.556 1037.79 Q115.572 1037.37 115.291 1037.23 Q115.01 1037.09 114.776 1036.86 Q114.542 1036.58 114.542 1036.15 Q114.542 1035.59 114.87 1035.31 Q115.198 1034.98 115.572 1034.98 Z" fill="#000000" fill-rule="nonzero" fill-opacity="1" /><path clip-path="url(#clip500)" d="M86.2006 970.216 Q84.6548 970.216 83.3899 970.638 Q82.0783 971.013 81.1882 971.622 Q80.2513 972.184 79.5487 973.261 Q78.7992 974.339 78.3307 975.229 Q77.8623 976.119 77.5812 977.618 Q77.2533 979.117 77.1127 980.101 Q76.9254 981.084 76.8317 982.771 Q76.738 984.457 76.738 985.3 Q76.738 986.097 76.738 987.689 Q76.738 992.702 76.8317 993.545 Q77.019 994.81 77.7686 995.278 Q78.4712 995.747 80.3919 996.215 L105.407 1002.45 L105.407 991.718 Q105.407 985.862 103.767 981.834 Q102.128 977.805 99.8325 975.51 Q97.3029 972.98 93.2274 971.622 Q89.1519 970.216 86.2006 970.216 M130.375 959.77 Q130.891 959.77 132.062 960.191 Q133.233 960.566 134.872 961.503 Q136.465 962.44 137.917 963.705 Q139.37 964.97 140.353 966.984 Q141.384 968.998 141.384 971.294 Q141.384 971.856 141.337 972.418 Q141.337 972.98 141.103 974.385 Q140.915 975.744 140.541 976.868 Q140.213 977.993 139.416 979.398 Q138.667 980.803 137.636 981.787 Q136.559 982.724 134.872 983.38 Q133.139 984.036 131.031 984.036 Q129.157 984.036 122.88 982.49 Q117.54 981.131 116.228 981.131 Q114.776 981.131 113.418 981.6 Q112.059 982.021 110.654 983.099 Q109.248 984.129 108.405 986.331 Q107.515 988.533 107.515 991.624 L107.515 1003.01 L132.952 1009.38 Q132.999 1009.38 133.655 1009.52 Q134.263 1009.66 134.591 1009.66 Q135.2 1009.66 135.575 1009.28 Q135.95 1008.86 136.137 1007.83 Q136.278 1006.8 136.325 1006.01 Q136.325 1005.16 136.325 1003.43 Q136.325 1001.27 136.699 1000.9 Q136.934 1000.71 137.355 1000.71 Q138.011 1000.71 138.48 1000.9 Q138.901 1001.04 139.042 1001.41 Q139.182 1001.74 139.229 1001.98 Q139.276 1002.21 139.276 1002.63 L138.995 1014.81 L139.276 1026.9 Q139.276 1028.26 138.198 1028.26 Q137.262 1028.26 136.887 1027.93 Q136.465 1027.6 136.418 1027.18 Q136.325 1026.76 136.325 1025.68 Q136.325 1023.34 136.184 1021.93 Q136.044 1020.53 135.856 1019.64 Q135.622 1018.7 134.966 1018.23 Q134.31 1017.72 133.748 1017.48 Q133.139 1017.25 131.781 1016.92 L80.2513 1004.09 Q78.7055 1003.71 78.4712 1003.71 Q77.5812 1003.71 77.347 1004.27 Q77.0659 1004.79 76.9254 1006.29 L76.738 1009.94 Q76.738 1011.07 76.6911 1011.53 Q76.6443 1011.96 76.4101 1012.28 Q76.1758 1012.61 75.6605 1012.61 Q74.3489 1012.61 74.0678 1012.05 Q73.7399 1011.49 73.7399 1009.85 L73.7399 982.49 Q73.7399 973.168 77.8154 967.265 Q81.8909 961.316 88.1213 961.316 Q90.932 961.316 93.5553 962.581 Q96.1786 963.845 98.2398 965.953 Q100.301 968.015 102.034 970.778 Q103.721 973.542 104.892 976.493 Q106.016 979.398 106.672 982.396 Q107.14 981.084 107.843 979.866 Q108.546 978.602 109.857 977.009 Q111.169 975.369 113.277 974.385 Q115.385 973.402 117.961 973.402 Q119.788 973.402 122.505 973.776 Q130.235 974.713 133.42 974.713 Q136.465 974.713 137.871 973.917 Q139.276 973.121 139.276 970.872 Q139.276 968.67 137.308 966.234 Q135.294 963.752 130.563 962.159 Q129.204 961.784 129.204 960.894 Q129.204 960.847 129.204 960.8 Q129.204 960.707 129.298 960.519 Q129.345 960.332 129.485 960.191 Q129.579 960.004 129.813 959.91 Q130.047 959.77 130.375 959.77 Z" fill="#000000" fill-rule="nonzero" fill-opacity="1" /><path clip-path="url(#clip500)" d="M75.5669 948.556 Q73.1778 948.556 72.194 947.104 Q71.1634 945.652 71.1634 944.106 Q71.1634 942.185 72.3346 940.967 Q73.4588 939.703 75.5669 939.703 Q76.5038 939.703 77.019 939.796 L105.969 942.982 L105.969 945.183 L77.019 948.463 Q76.5038 948.556 75.5669 948.556 Z" fill="#000000" fill-rule="nonzero" fill-opacity="1" /><path clip-path="url(#clip500)" d="M162.324 922.158 Q161.855 922.158 160.684 920.94 Q144.944 905.481 115.291 905.481 Q85.5448 905.481 70.5076 920.331 Q68.7743 922.158 68.2591 922.158 Q67.3222 922.158 67.3222 921.221 Q67.3222 920.565 69.2428 918.27 Q71.1634 915.928 75.5669 912.414 Q79.9703 908.854 85.3574 906.231 Q98.4272 899.907 115.291 899.907 Q131.5 899.907 144.569 905.95 Q150.05 908.526 154.641 912.133 Q159.232 915.74 161.246 918.129 Q163.26 920.518 163.26 921.221 Q163.26 922.158 162.324 922.158 Z" fill="#000000" fill-rule="nonzero" fill-opacity="1" /><path clip-path="url(#clip500)" d="M139.276 885.321 L136.325 885.321 L136.325 883.915 Q136.325 878.809 135.622 877.217 Q134.872 875.577 132.155 875.437 L80.954 875.437 Q78.4712 875.53 77.7217 877.123 Q76.9254 878.716 76.9254 883.915 L76.9254 885.321 L74.021 885.321 L74.2084 870.658 L74.021 866.068 L74.021 839.085 L74.2084 834.494 L74.021 819.832 L76.9254 819.832 L76.9254 821.05 Q76.9254 826.53 77.7217 828.076 Q78.4712 829.622 81.0477 829.716 L132.249 829.716 Q134.732 829.622 135.528 828.076 Q136.325 826.53 136.325 821.424 L136.325 819.832 L139.276 819.832 Q138.995 827.139 138.995 834.588 Q138.995 836.04 139.276 848.126 L136.325 848.126 L136.325 846.58 Q136.325 841.287 135.575 839.834 Q134.779 838.335 132.062 838.242 L76.9254 838.242 L76.9254 866.911 L132.062 866.911 Q134.732 866.817 135.528 865.271 Q136.325 863.678 136.325 858.104 L136.325 857.026 L139.276 857.026 Q138.995 864.334 138.995 871.829 Q138.995 873.235 139.276 885.321 Z" fill="#000000" fill-rule="nonzero" fill-opacity="1" /><path clip-path="url(#clip500)" d="M55.3434 765.887 Q55.7369 765.494 56.2944 765.494 Q56.8518 765.494 57.2453 765.887 Q57.6388 766.281 57.6388 766.838 L57.6388 808.877 Q57.6388 809.434 57.2453 809.828 Q56.8518 810.221 56.2944 810.221 Q55.7369 810.221 55.3434 809.828 Q54.9499 809.434 54.9499 808.877 L54.9499 766.838 Q54.9499 766.281 55.3434 765.887 Z" fill="#000000" fill-rule="nonzero" fill-opacity="1" /><path clip-path="url(#clip500)" d="M34.7504 758.487 L32.6517 758.487 Q32.6517 750.42 28.3561 746.256 Q28.3561 745.108 28.6184 744.911 Q28.8807 744.715 30.094 744.715 L67.7713 744.715 Q69.7716 744.715 70.3947 743.731 Q71.0177 742.747 71.0177 738.452 L71.0177 736.32 L73.0836 736.32 Q72.8868 738.681 72.8868 747.207 Q72.8868 755.733 73.0836 758.061 L71.0177 758.061 L71.0177 755.929 Q71.0177 751.699 70.4275 750.683 Q69.8044 749.666 67.7713 749.666 L32.9796 749.666 Q34.7504 753.175 34.7504 758.487 Z" fill="#000000" fill-rule="nonzero" fill-opacity="1" /><path clip-path="url(#clip500)" d="M88.9218 725.232 Q88.5939 725.232 87.8725 724.969 L24.5195 701.261 Q24.4539 701.261 24.0932 701.097 Q23.7325 700.933 23.5029 700.835 Q23.2406 700.736 23.0438 700.54 Q22.8471 700.31 22.8471 700.048 Q22.8471 699.392 23.6669 699.392 Q23.7325 699.392 24.5195 699.589 L87.9381 723.363 Q89.0858 723.756 89.4137 724.018 Q89.7416 724.248 89.7416 724.641 Q89.7416 725.232 88.9218 725.232 Z" fill="#000000" fill-rule="nonzero" fill-opacity="1" /><path clip-path="url(#clip500)" d="M73.0836 691.976 Q71.8703 691.976 71.5096 691.878 Q71.1489 691.747 70.5914 691.222 L56.2288 678.335 Q48.2932 671.285 41.3743 671.285 Q36.8818 671.285 33.6683 673.646 Q30.4547 675.974 30.4547 680.27 Q30.4547 683.221 32.2582 685.713 Q34.0618 688.205 37.2753 689.353 Q37.2097 689.156 37.2097 688.467 Q37.2097 686.795 38.2591 685.877 Q39.3084 684.926 40.7184 684.926 Q42.522 684.926 43.4073 686.106 Q44.2599 687.254 44.2599 688.402 Q44.2599 688.861 44.1615 689.484 Q44.0632 690.074 43.145 691.025 Q42.194 691.976 40.5217 691.976 Q35.8325 691.976 32.0943 688.435 Q28.3561 684.86 28.3561 679.417 Q28.3561 673.252 32.0287 669.219 Q35.6685 665.153 41.3743 665.153 Q43.3745 665.153 45.2108 665.776 Q47.0144 666.366 48.4244 667.186 Q49.8344 667.973 52.097 670.137 Q54.3597 672.301 55.9664 674.039 Q57.5732 675.777 60.9835 679.679 L67.9025 686.795 L67.9025 674.695 Q67.9025 668.793 67.3779 668.334 Q66.4269 667.678 61.4098 666.858 L61.4098 665.153 L73.0836 667.055 L73.0836 691.976 Z" fill="#000000" fill-rule="nonzero" fill-opacity="1" /><path clip-path="url(#clip500)" d="M160.309 648.481 L70.2734 648.481 Q67.4158 648.481 67.4158 646.56 Q67.4158 644.639 70.4139 644.639 L160.075 644.639 Q163.167 644.639 163.167 646.56 Q163.167 648.481 160.309 648.481 M160.309 637.894 L70.9761 637.894 Q67.4158 637.894 67.4158 635.973 Q67.4158 634.052 70.4139 634.052 L160.075 634.052 Q163.167 634.052 163.167 635.973 Q163.167 637.894 160.309 637.894 Z" fill="#000000" fill-rule="nonzero" fill-opacity="1" /><path clip-path="url(#clip500)" d="M146.233 576.281 L157.841 577.625 Q158.89 577.724 159.218 577.887 Q159.513 578.051 159.513 578.576 Q159.513 579.363 158.726 579.363 Q158.398 579.363 157.513 579.232 Q155.709 579.035 153.873 579.035 Q151.807 579.035 150.528 579.429 Q149.217 579.789 148.266 580.839 Q147.315 581.888 146.921 583.823 Q146.495 585.757 146.495 588.84 L146.495 597.694 Q146.495 599.858 146.888 600.382 Q147.282 600.874 149.118 601.333 L166.17 605.629 L166.17 599.53 Q166.17 595.267 164.924 593.595 Q163.678 591.922 159.71 590.873 Q159.087 590.709 158.857 590.643 Q158.595 590.545 158.464 590.381 Q158.3 590.184 158.3 589.856 Q158.3 589.561 158.497 589.364 Q158.66 589.168 158.857 589.102 L159.054 589.037 Q159.382 589.037 160.136 589.233 L174.695 592.939 Q175.679 593.201 175.909 593.365 Q176.106 593.496 176.106 593.955 Q176.106 594.283 175.876 594.513 Q175.646 594.742 175.286 594.742 Q174.892 594.677 174.564 594.546 Q172.564 594.086 171.285 594.086 Q170.465 594.086 169.974 594.25 Q169.482 594.414 169.055 594.972 Q168.629 595.529 168.432 596.677 Q168.236 597.825 168.236 599.661 L168.236 606.154 L184.959 610.318 L186.5 610.613 Q187.189 610.613 187.451 610.253 Q187.714 609.859 187.845 608.449 Q188.009 606.35 188.009 604.973 Q188.009 603.268 188.074 603.071 Q188.271 602.678 188.796 602.678 Q189.386 602.678 189.714 602.94 Q190.009 603.202 190.042 603.432 Q190.075 603.662 190.075 604.088 L189.878 614.089 L190.075 622.943 Q190.075 623.959 189.255 623.959 Q188.632 623.959 188.369 623.697 Q188.074 623.435 188.042 623.14 Q188.009 622.845 188.009 622.09 Q188.009 620.451 187.91 619.467 Q187.812 618.483 187.681 617.86 Q187.517 617.204 187.058 616.876 Q186.599 616.516 186.205 616.352 Q185.779 616.188 184.828 615.958 L149.315 607.105 Q148.102 606.777 147.708 606.777 Q147.282 606.777 147.02 607.072 Q146.757 607.334 146.659 608.056 Q146.528 608.777 146.528 609.367 Q146.495 609.925 146.495 611.138 Q146.495 611.925 146.462 612.253 Q146.429 612.548 146.265 612.778 Q146.101 613.007 145.741 613.007 Q144.822 613.007 144.626 612.614 Q144.396 612.187 144.396 611.007 L144.396 578.084 Q144.396 576.773 144.691 576.477 Q144.954 576.15 146.233 576.281 Z" fill="#000000" fill-rule="nonzero" fill-opacity="1" /><path clip-path="url(#clip500)" d="M81.3931 623.959 Q80.1798 623.959 79.8191 623.861 Q79.4584 623.73 78.9009 623.205 L64.5383 610.318 Q56.6028 603.268 49.6838 603.268 Q45.1914 603.268 41.9778 605.629 Q38.7642 607.957 38.7642 612.253 Q38.7642 615.204 40.5678 617.696 Q42.3713 620.188 45.5849 621.336 Q45.5193 621.139 45.5193 620.451 Q45.5193 618.778 46.5686 617.86 Q47.6179 616.909 49.028 616.909 Q50.8315 616.909 51.7169 618.09 Q52.5694 619.237 52.5694 620.385 Q52.5694 620.844 52.4711 621.467 Q52.3727 622.058 51.4545 623.008 Q50.5036 623.959 48.8312 623.959 Q44.142 623.959 40.4038 620.418 Q36.6656 616.844 36.6656 611.4 Q36.6656 605.236 40.3382 601.202 Q43.9781 597.136 49.6838 597.136 Q51.6841 597.136 53.5204 597.759 Q55.3239 598.349 56.7339 599.169 Q58.144 599.956 60.4066 602.12 Q62.6692 604.285 64.276 606.023 Q65.8827 607.76 69.2931 611.663 L76.212 618.778 L76.212 606.678 Q76.212 600.776 75.6874 600.317 Q74.7364 599.661 69.7193 598.841 L69.7193 597.136 L81.3931 599.038 L81.3931 623.959 Z" fill="#000000" fill-rule="nonzero" fill-opacity="1" /><path clip-path="url(#clip500)" d="M116.462 527.315 Q116.462 529.517 115.291 529.517 Q114.12 529.517 114.12 527.222 Q114.12 526.941 114.167 526.472 Q114.214 525.957 114.214 525.863 L114.214 498.834 L87.0907 498.834 Q86.997 498.834 86.5754 498.88 Q86.107 498.927 85.8259 498.927 Q83.5305 498.927 83.5305 497.803 Q83.5305 496.632 85.8259 496.632 L114.214 496.632 L114.214 469.556 Q114.214 469.462 114.167 468.993 Q114.12 468.525 114.12 468.244 Q114.12 466.042 115.291 466.042 Q116.462 465.995 116.462 468.338 Q116.462 468.619 116.416 469.04 Q116.369 469.462 116.369 469.556 L116.369 496.632 L144.85 496.632 Q147.052 496.632 147.052 497.803 Q147.052 498.927 144.757 498.927 Q144.476 498.927 144.007 498.88 Q143.586 498.834 143.492 498.834 L116.369 498.834 L116.369 525.863 Q116.369 525.957 116.416 526.519 Q116.462 527.034 116.462 527.315 Z" fill="#000000" fill-rule="nonzero" fill-opacity="1" /><path clip-path="url(#clip500)" d="M63.5967 357.198 Q69.0072 357.198 74.3195 359.527 Q79.5989 361.822 83.5994 365.56 Q87.5672 369.266 90.0265 374.283 Q92.4859 379.3 92.4859 384.415 L92.4859 406.648 Q92.4859 407.435 92.4531 407.763 Q92.4203 408.058 92.2564 408.287 Q92.0596 408.517 91.6661 408.517 Q91.0431 408.517 90.7807 408.255 Q90.4856 407.992 90.4528 407.697 Q90.42 407.402 90.42 406.648 Q90.42 405.008 90.3217 404.024 Q90.2233 403.041 90.0921 402.418 Q89.9282 401.762 89.4691 401.434 Q89.01 401.073 88.6165 400.909 Q88.1902 400.745 87.2393 400.516 L51.1687 391.531 Q50.0866 391.269 49.9226 391.269 Q49.3652 391.269 49.1684 391.597 Q48.9389 391.892 48.8405 392.744 Q48.7094 394.384 48.7094 395.63 Q48.7094 396.45 48.6766 396.778 Q48.6438 397.073 48.4798 397.335 Q48.2831 397.565 47.8896 397.565 Q47.2665 397.565 47.0042 397.302 Q46.7091 397.007 46.6763 396.679 Q46.6107 396.351 46.6107 395.564 L46.6107 373.004 Q46.6107 368.118 48.9061 364.478 Q51.1687 360.838 55.0053 359.035 Q58.8091 357.198 63.5967 357.198 M61.1373 363.068 Q54.8741 363.068 51.7917 366.478 Q48.7094 369.856 48.7094 375.201 L48.7094 382.382 Q48.7094 384.514 49.1029 385.038 Q49.4636 385.563 51.2671 386.022 L88.1246 395.236 Q89.3379 395.564 89.6658 395.564 Q90.0265 395.564 90.1577 395.4 Q90.2561 395.204 90.3217 394.679 Q90.42 394.089 90.42 393.203 L90.42 385.629 Q90.42 382.71 89.633 380.054 Q88.8133 377.365 87.5344 375.43 Q86.2227 373.496 85.1078 372.25 Q83.9601 371.004 82.8124 370.118 Q80.2219 368.118 76.8444 366.642 Q73.4669 365.134 70.3845 364.445 Q67.2693 363.724 64.9739 363.396 Q62.6457 363.068 61.1373 363.068 Z" fill="#000000" fill-rule="nonzero" fill-opacity="1" /><path clip-path="url(#clip500)" d="M118.086 408.517 L118.086 347.461 L112.966 347.461 L112.966 408.517  Z" fill="#000000" fill-rule="evenodd" fill-opacity="1"/>
<path clip-path="url(#clip500)" d="M182.863 396.517 Q181.649 396.517 181.289 396.419 Q180.928 396.287 180.371 395.763 L166.008 382.876 Q158.072 375.826 151.153 375.826 Q146.661 375.826 143.447 378.187 Q140.234 380.515 140.234 384.81 Q140.234 387.762 142.037 390.254 Q143.841 392.746 147.055 393.894 Q146.989 393.697 146.989 393.008 Q146.989 391.336 148.038 390.418 Q149.088 389.467 150.498 389.467 Q152.301 389.467 153.187 390.647 Q154.039 391.795 154.039 392.943 Q154.039 393.402 153.941 394.025 Q153.842 394.615 152.924 395.566 Q151.973 396.517 150.301 396.517 Q145.612 396.517 141.873 392.975 Q138.135 389.401 138.135 383.958 Q138.135 377.793 141.808 373.76 Q145.448 369.694 151.153 369.694 Q153.154 369.694 154.99 370.317 Q156.794 370.907 158.204 371.727 Q159.614 372.514 161.876 374.678 Q164.139 376.842 165.746 378.58 Q167.352 380.318 170.763 384.22 L177.682 391.336 L177.682 379.236 Q177.682 373.333 177.157 372.874 Q176.206 372.218 171.189 371.399 L171.189 369.694 L182.863 371.595 L182.863 396.517 Z" fill="#000000" fill-rule="nonzero" fill-opacity="1" /><path clip-path="url(#clip500)" d="M139.276 337.221 L136.325 337.221 Q136.325 332.115 135.716 330.944 Q135.06 329.773 131.968 329.773 L82.0783 329.773 Q78.5181 329.773 77.628 331.038 Q76.738 332.256 76.738 337.221 L73.7399 337.221 L72.7093 323.449 L131.968 323.449 Q135.06 323.449 135.716 322.231 Q136.325 321.013 136.325 315.954 L139.276 315.954 Q139.276 317.125 139.182 319.561 Q139.089 321.997 139.042 323.777 Q138.995 325.557 138.995 326.588 Q138.995 327.712 139.276 337.221 Z" fill="#000000" fill-rule="nonzero" fill-opacity="1" /><path clip-path="url(#clip500)" d="M134.123 301.52 Q127.846 307.844 118.758 307.844 Q109.623 307.844 102.971 301.66 Q96.2723 295.43 96.2723 286.529 Q96.2723 277.816 102.924 271.586 Q109.529 265.309 118.758 265.309 Q127.799 265.309 134.076 271.633 Q140.353 277.91 140.353 286.623 Q140.353 295.149 134.123 301.52 M117.961 299.88 Q127.284 299.88 131.5 297.444 Q137.917 293.697 137.917 286.529 Q137.917 282.969 135.997 280.018 Q134.076 277.02 130.844 275.38 Q126.628 273.272 117.961 273.272 Q108.733 273.272 104.658 275.802 Q98.4272 279.549 98.4272 286.623 Q98.4272 289.715 100.067 292.76 Q101.659 295.758 104.845 297.585 Q109.061 299.88 117.961 299.88 Z" fill="#000000" fill-rule="nonzero" fill-opacity="1" /><path clip-path="url(#clip500)" d="M146.865 263.792 Q143.773 263.792 141.103 261.45 Q138.433 259.061 137.262 254.938 Q134.591 259.154 128.736 259.154 Q124.239 259.154 120.772 256.203 Q117.025 260.7 110.888 260.7 Q105.22 260.7 101.05 256.203 Q96.8813 251.706 96.8813 245.148 Q96.8813 239.386 100.348 234.982 Q95.8507 230.391 95.8038 224.817 Q95.8038 222.334 97.3497 221.163 Q98.8956 219.945 100.535 219.945 Q101.987 219.945 102.69 220.882 Q103.393 221.772 103.393 222.709 Q103.393 223.88 102.643 224.723 Q101.847 225.52 100.629 225.52 Q98.6145 225.52 98.0056 223.974 Q97.9119 224.255 97.9119 224.911 Q97.9119 229.595 101.659 233.577 Q105.313 229.642 110.982 229.642 Q116.65 229.642 120.819 234.139 Q124.988 238.636 124.988 245.148 Q124.988 250.535 121.99 254.657 Q123.911 256.297 126.534 256.297 Q128.923 256.297 130.797 254.845 Q132.671 253.392 132.952 251.191 Q133.046 250.535 133.046 244.023 Q133.046 240.182 133.139 238.074 Q133.233 235.966 133.889 232.968 Q134.498 229.923 135.716 227.534 Q139.182 221.304 146.677 221.257 Q152.158 221.257 155.578 227.581 Q159.044 233.858 159.044 242.571 Q159.044 251.378 155.531 257.608 Q152.065 263.792 146.865 263.792 M146.865 258.779 Q150.8 258.779 153.798 254.142 Q156.843 249.504 156.843 242.477 Q156.843 235.591 153.845 230.954 Q150.893 226.269 146.865 226.269 Q144.007 226.269 142.18 227.909 Q140.353 229.548 139.604 232.921 Q138.901 236.247 138.761 238.589 Q138.62 240.932 138.62 245.241 L138.62 250.91 Q138.807 254.189 141.197 256.484 Q143.586 258.779 146.865 258.779 M110.982 253.533 Q122.787 253.533 122.787 245.148 Q122.787 240.932 118.945 238.355 Q116.369 236.809 110.888 236.809 Q99.083 236.809 99.083 245.148 Q99.083 249.364 102.924 251.987 Q105.501 253.533 110.982 253.533 Z" fill="#000000" fill-rule="nonzero" fill-opacity="1" /><path clip-path="url(#clip500)" d="M160.309 216.284 L70.9761 216.284 Q67.4158 216.284 67.4158 214.363 Q67.4158 212.443 70.2734 212.443 L159.607 212.443 Q163.167 212.443 163.167 214.363 Q163.167 216.284 160.309 216.284 Z" fill="#000000" fill-rule="nonzero" fill-opacity="1" /><path clip-path="url(#clip500)" d="M139.276 199.343 L136.325 199.343 L136.325 197.937 Q136.325 192.831 135.622 191.238 Q134.872 189.599 132.155 189.458 L80.954 189.458 Q78.4712 189.552 77.7217 191.145 Q76.9254 192.737 76.9254 197.937 L76.9254 199.343 L74.021 199.343 L74.2084 184.68 L74.021 180.089 L74.021 153.107 L74.2084 148.516 L74.021 133.853 L76.9254 133.853 L76.9254 135.071 Q76.9254 140.552 77.7217 142.098 Q78.4712 143.644 81.0477 143.738 L132.249 143.738 Q134.732 143.644 135.528 142.098 Q136.325 140.552 136.325 135.446 L136.325 133.853 L139.276 133.853 Q138.995 141.161 138.995 148.61 Q138.995 150.062 139.276 162.148 L136.325 162.148 L136.325 160.602 Q136.325 155.308 135.575 153.856 Q134.779 152.357 132.062 152.263 L76.9254 152.263 L76.9254 180.932 L132.062 180.932 Q134.732 180.839 135.528 179.293 Q136.325 177.7 136.325 172.126 L136.325 171.048 L139.276 171.048 Q138.995 178.356 138.995 185.851 Q138.995 187.257 139.276 199.343 Z" fill="#000000" fill-rule="nonzero" fill-opacity="1" /><path clip-path="url(#clip500)" d="M160.309 120.401 L70.9761 120.401 Q67.4158 120.401 67.4158 118.48 Q67.4158 116.56 70.2734 116.56 L159.607 116.56 Q163.167 116.56 163.167 118.48 Q163.167 120.401 160.309 120.401 Z" fill="#000000" fill-rule="nonzero" fill-opacity="1" /><path clip-path="url(#clip502)" d="M-1313.35 226.21 L4185.81 226.21 L4185.81 66.2022 L-1313.35 66.2022  Z" fill="#3da44d" fill-rule="evenodd" fill-opacity="0.3"/>
<polyline clip-path="url(#clip502)" style="stroke:#3da44d; stroke-linecap:round; stroke-linejoin:round; stroke-width:12; stroke-opacity:1; fill:none" points="-1313.35,146.206 4185.81,146.206 "/>
<path clip-path="url(#clip502)" d="M571.583 226.21 L575.042 726.247 L578.5 1110.94 L658.048 1267.02 L744.512 1264.46 L830.977 1263.15 L917.442 1263.15 L1263.3 1263.15 L1609.16 1263.15 L1955.02 1263.15 L2300.88 1263.15 L2300.88 1103.14 L1955.02 1103.14 L1609.16 1103.14 L1263.3 1103.14 L917.442 1103.14 L830.977 1103.14 L744.512 1104.45 L658.048 1107.01 L578.5 950.928 L575.042 566.239 L571.583 66.2022  Z" fill="#f05f73" fill-rule="evenodd" fill-opacity="0.3"/>
<polyline clip-path="url(#clip502)" style="stroke:#f05f73; stroke-linecap:round; stroke-linejoin:round; stroke-width:12; stroke-opacity:1; fill:none" points="571.583,146.206 575.042,646.243 578.5,1030.93 658.048,1187.01 744.512,1184.46 830.977,1183.15 917.442,1183.15 1263.3,1183.15 1609.16,1183.15 1955.02,1183.15 2300.88,1183.15 "/>
<path clip-path="url(#clip502)" d="M571.583 162.206 L560.271 157.518 L555.583 146.206 L560.271 134.894 L571.583 130.206 L582.895 134.894 L587.583 146.206 L582.895 157.518 Z" fill="#f05f73" fill-rule="evenodd" fill-opacity="1" stroke="#000000" stroke-opacity="1" stroke-width="3.2"/>
<path clip-path="url(#clip502)" d="M575.042 662.243 L563.73 657.555 L559.042 646.243 L563.73 634.931 L575.042 630.243 L586.354 634.931 L591.042 646.243 L586.354 657.555 Z" fill="#f05f73" fill-rule="evenodd" fill-opacity="1" stroke="#000000" stroke-opacity="1" stroke-width="3.2"/>
<path clip-path="url(#clip502)" d="M578.5 1046.93 L567.188 1042.24 L562.5 1030.93 L567.188 1019.62 L578.5 1014.93 L589.812 1019.62 L594.5 1030.93 L589.812 1042.24 Z" fill="#f05f73" fill-rule="evenodd" fill-opacity="1" stroke="#000000" stroke-opacity="1" stroke-width="3.2"/>
<path clip-path="url(#clip502)" d="M658.048 1203.01 L646.736 1198.33 L642.048 1187.01 L646.736 1175.7 L658.048 1171.01 L669.36 1175.7 L674.048 1187.01 L669.36 1198.33 Z" fill="#f05f73" fill-rule="evenodd" fill-opacity="1" stroke="#000000" stroke-opacity="1" stroke-width="3.2"/>
<path clip-path="url(#clip502)" d="M744.512 1200.46 L733.2 1195.77 L728.512 1184.46 L733.2 1173.15 L744.512 1168.46 L755.824 1173.15 L760.512 1184.46 L755.824 1195.77 Z" fill="#f05f73" fill-rule="evenodd" fill-opacity="1" stroke="#000000" stroke-opacity="1" stroke-width="3.2"/>
<path clip-path="url(#clip502)" d="M830.977 1199.15 L819.665 1194.46 L814.977 1183.15 L819.665 1171.83 L830.977 1167.15 L842.289 1171.83 L846.977 1183.15 L842.289 1194.46 Z" fill="#f05f73" fill-rule="evenodd" fill-opacity="1" stroke="#000000" stroke-opacity="1" stroke-width="3.2"/>
<path clip-path="url(#clip502)" d="M917.442 1199.15 L906.13 1194.46 L901.442 1183.15 L906.13 1171.83 L917.442 1167.15 L928.754 1171.83 L933.442 1183.15 L928.754 1194.46 Z" fill="#f05f73" fill-rule="evenodd" fill-opacity="1" stroke="#000000" stroke-opacity="1" stroke-width="3.2"/>
<path clip-path="url(#clip502)" d="M1263.3 1199.15 L1251.99 1194.46 L1247.3 1183.15 L1251.99 1171.83 L1263.3 1167.15 L1274.61 1171.83 L1279.3 1183.15 L1274.61 1194.46 Z" fill="#f05f73" fill-rule="evenodd" fill-opacity="1" stroke="#000000" stroke-opacity="1" stroke-width="3.2"/>
<path clip-path="url(#clip502)" d="M1609.16 1199.15 L1597.85 1194.46 L1593.16 1183.15 L1597.85 1171.83 L1609.16 1167.15 L1620.47 1171.83 L1625.16 1183.15 L1620.47 1194.46 Z" fill="#f05f73" fill-rule="evenodd" fill-opacity="1" stroke="#000000" stroke-opacity="1" stroke-width="3.2"/>
<path clip-path="url(#clip502)" d="M1955.02 1199.15 L1943.71 1194.46 L1939.02 1183.15 L1943.71 1171.83 L1955.02 1167.15 L1966.33 1171.83 L1971.02 1183.15 L1966.33 1194.46 Z" fill="#f05f73" fill-rule="evenodd" fill-opacity="1" stroke="#000000" stroke-opacity="1" stroke-width="3.2"/>
<path clip-path="url(#clip502)" d="M2300.88 1199.15 L2289.57 1194.46 L2284.88 1183.15 L2289.57 1171.83 L2300.88 1167.15 L2312.19 1171.83 L2316.88 1183.15 L2312.19 1194.46 Z" fill="#f05f73" fill-rule="evenodd" fill-opacity="1" stroke="#000000" stroke-opacity="1" stroke-width="3.2"/>
<path clip-path="url(#clip502)" d="M571.583 226.21 L575.042 227.997 L578.5 229.779 L658.048 229.212 L744.512 309.11 L830.977 576.692 L917.442 832.311 L1263.3 1064.81 L1609.16 1118.36 L1955.02 1134.41 L2300.88 1144.41 L2300.88 984.406 L1955.02 974.401 L1609.16 958.351 L1263.3 904.802 L917.442 672.303 L830.977 416.684 L744.512 149.102 L658.048 69.2037 L578.5 69.7711 L575.042 67.9893 L571.583 66.2022  Z" fill="#009af9" fill-rule="evenodd" fill-opacity="0.3"/>
<polyline clip-path="url(#clip502)" style="stroke:#009af9; stroke-linecap:round; stroke-linejoin:round; stroke-width:12; stroke-opacity:1; fill:none" points="571.583,146.206 575.042,147.993 578.5,149.775 658.048,149.208 744.512,229.106 830.977,496.688 917.442,752.307 1263.3,984.806 1609.16,1038.35 1955.02,1054.4 2300.88,1064.41 "/>
<line clip-path="url(#clip502)" x1="571.583" y1="146.206" x2="555.583" y2="130.206" style="stroke:#009af9; stroke-width:12; stroke-opacity:1"/>
<line clip-path="url(#clip502)" x1="571.583" y1="146.206" x2="555.583" y2="162.206" style="stroke:#009af9; stroke-width:12; stroke-opacity:1"/>
<line clip-path="url(#clip502)" x1="571.583" y1="146.206" x2="587.583" y2="162.206" style="stroke:#009af9; stroke-width:12; stroke-opacity:1"/>
<line clip-path="url(#clip502)" x1="571.583" y1="146.206" x2="587.583" y2="130.206" style="stroke:#009af9; stroke-width:12; stroke-opacity:1"/>
<line clip-path="url(#clip502)" x1="575.042" y1="147.993" x2="559.042" y2="131.993" style="stroke:#009af9; stroke-width:12; stroke-opacity:1"/>
<line clip-path="url(#clip502)" x1="575.042" y1="147.993" x2="559.042" y2="163.993" style="stroke:#009af9; stroke-width:12; stroke-opacity:1"/>
<line clip-path="url(#clip502)" x1="575.042" y1="147.993" x2="591.042" y2="163.993" style="stroke:#009af9; stroke-width:12; stroke-opacity:1"/>
<line clip-path="url(#clip502)" x1="575.042" y1="147.993" x2="591.042" y2="131.993" style="stroke:#009af9; stroke-width:12; stroke-opacity:1"/>
<line clip-path="url(#clip502)" x1="578.5" y1="149.775" x2="562.5" y2="133.775" style="stroke:#009af9; stroke-width:12; stroke-opacity:1"/>
<line clip-path="url(#clip502)" x1="578.5" y1="149.775" x2="562.5" y2="165.775" style="stroke:#009af9; stroke-width:12; stroke-opacity:1"/>
<line clip-path="url(#clip502)" x1="578.5" y1="149.775" x2="594.5" y2="165.775" style="stroke:#009af9; stroke-width:12; stroke-opacity:1"/>
<line clip-path="url(#clip502)" x1="578.5" y1="149.775" x2="594.5" y2="133.775" style="stroke:#009af9; stroke-width:12; stroke-opacity:1"/>
<line clip-path="url(#clip502)" x1="658.048" y1="149.208" x2="642.048" y2="133.208" style="stroke:#009af9; stroke-width:12; stroke-opacity:1"/>
<line clip-path="url(#clip502)" x1="658.048" y1="149.208" x2="642.048" y2="165.208" style="stroke:#009af9; stroke-width:12; stroke-opacity:1"/>
<line clip-path="url(#clip502)" x1="658.048" y1="149.208" x2="674.048" y2="165.208" style="stroke:#009af9; stroke-width:12; stroke-opacity:1"/>
<line clip-path="url(#clip502)" x1="658.048" y1="149.208" x2="674.048" y2="133.208" style="stroke:#009af9; stroke-width:12; stroke-opacity:1"/>
<line clip-path="url(#clip502)" x1="744.512" y1="229.106" x2="728.512" y2="213.106" style="stroke:#009af9; stroke-width:12; stroke-opacity:1"/>
<line clip-path="url(#clip502)" x1="744.512" y1="229.106" x2="728.512" y2="245.106" style="stroke:#009af9; stroke-width:12; stroke-opacity:1"/>
<line clip-path="url(#clip502)" x1="744.512" y1="229.106" x2="760.512" y2="245.106" style="stroke:#009af9; stroke-width:12; stroke-opacity:1"/>
<line clip-path="url(#clip502)" x1="744.512" y1="229.106" x2="760.512" y2="213.106" style="stroke:#009af9; stroke-width:12; stroke-opacity:1"/>
<line clip-path="url(#clip502)" x1="830.977" y1="496.688" x2="814.977" y2="480.688" style="stroke:#009af9; stroke-width:12; stroke-opacity:1"/>
<line clip-path="url(#clip502)" x1="830.977" y1="496.688" x2="814.977" y2="512.688" style="stroke:#009af9; stroke-width:12; stroke-opacity:1"/>
<line clip-path="url(#clip502)" x1="830.977" y1="496.688" x2="846.977" y2="512.688" style="stroke:#009af9; stroke-width:12; stroke-opacity:1"/>
<line clip-path="url(#clip502)" x1="830.977" y1="496.688" x2="846.977" y2="480.688" style="stroke:#009af9; stroke-width:12; stroke-opacity:1"/>
<line clip-path="url(#clip502)" x1="917.442" y1="752.307" x2="901.442" y2="736.307" style="stroke:#009af9; stroke-width:12; stroke-opacity:1"/>
<line clip-path="url(#clip502)" x1="917.442" y1="752.307" x2="901.442" y2="768.307" style="stroke:#009af9; stroke-width:12; stroke-opacity:1"/>
<line clip-path="url(#clip502)" x1="917.442" y1="752.307" x2="933.442" y2="768.307" style="stroke:#009af9; stroke-width:12; stroke-opacity:1"/>
<line clip-path="url(#clip502)" x1="917.442" y1="752.307" x2="933.442" y2="736.307" style="stroke:#009af9; stroke-width:12; stroke-opacity:1"/>
<line clip-path="url(#clip502)" x1="1263.3" y1="984.806" x2="1247.3" y2="968.806" style="stroke:#009af9; stroke-width:12; stroke-opacity:1"/>
<line clip-path="url(#clip502)" x1="1263.3" y1="984.806" x2="1247.3" y2="1000.81" style="stroke:#009af9; stroke-width:12; stroke-opacity:1"/>
<line clip-path="url(#clip502)" x1="1263.3" y1="984.806" x2="1279.3" y2="1000.81" style="stroke:#009af9; stroke-width:12; stroke-opacity:1"/>
<line clip-path="url(#clip502)" x1="1263.3" y1="984.806" x2="1279.3" y2="968.806" style="stroke:#009af9; stroke-width:12; stroke-opacity:1"/>
<line clip-path="url(#clip502)" x1="1609.16" y1="1038.35" x2="1593.16" y2="1022.35" style="stroke:#009af9; stroke-width:12; stroke-opacity:1"/>
<line clip-path="url(#clip502)" x1="1609.16" y1="1038.35" x2="1593.16" y2="1054.35" style="stroke:#009af9; stroke-width:12; stroke-opacity:1"/>
<line clip-path="url(#clip502)" x1="1609.16" y1="1038.35" x2="1625.16" y2="1054.35" style="stroke:#009af9; stroke-width:12; stroke-opacity:1"/>
<line clip-path="url(#clip502)" x1="1609.16" y1="1038.35" x2="1625.16" y2="1022.35" style="stroke:#009af9; stroke-width:12; stroke-opacity:1"/>
<line clip-path="url(#clip502)" x1="1955.02" y1="1054.4" x2="1939.02" y2="1038.4" style="stroke:#009af9; stroke-width:12; stroke-opacity:1"/>
<line clip-path="url(#clip502)" x1="1955.02" y1="1054.4" x2="1939.02" y2="1070.4" style="stroke:#009af9; stroke-width:12; stroke-opacity:1"/>
<line clip-path="url(#clip502)" x1="1955.02" y1="1054.4" x2="1971.02" y2="1070.4" style="stroke:#009af9; stroke-width:12; stroke-opacity:1"/>
<line clip-path="url(#clip502)" x1="1955.02" y1="1054.4" x2="1971.02" y2="1038.4" style="stroke:#009af9; stroke-width:12; stroke-opacity:1"/>
<line clip-path="url(#clip502)" x1="2300.88" y1="1064.41" x2="2284.88" y2="1048.41" style="stroke:#009af9; stroke-width:12; stroke-opacity:1"/>
<line clip-path="url(#clip502)" x1="2300.88" y1="1064.41" x2="2284.88" y2="1080.41" style="stroke:#009af9; stroke-width:12; stroke-opacity:1"/>
<line clip-path="url(#clip502)" x1="2300.88" y1="1064.41" x2="2316.88" y2="1080.41" style="stroke:#009af9; stroke-width:12; stroke-opacity:1"/>
<line clip-path="url(#clip502)" x1="2300.88" y1="1064.41" x2="2316.88" y2="1048.41" style="stroke:#009af9; stroke-width:12; stroke-opacity:1"/>
<path clip-path="url(#clip500)" d="M2161.95 246.903 L2161.95 269.629 L2172.24 269.629 Q2177.95 269.629 2181.07 266.672 Q2184.19 263.715 2184.19 258.246 Q2184.19 252.818 2181.07 249.861 Q2177.95 246.903 2172.24 246.903 L2161.95 246.903 M2153.77 240.179 L2172.24 240.179 Q2182.41 240.179 2187.59 244.797 Q2192.82 249.374 2192.82 258.246 Q2192.82 267.198 2187.59 271.776 Q2182.41 276.353 2172.24 276.353 L2161.95 276.353 L2161.95 300.659 L2153.77 300.659 L2153.77 240.179 Z" fill="#3da44d" fill-rule="nonzero" fill-opacity="1" /><path clip-path="url(#clip500)" d="M2249.08 244.837 L2249.08 253.466 Q2244.95 249.617 2240.25 247.714 Q2235.59 245.81 2230.33 245.81 Q2219.96 245.81 2214.45 252.17 Q2208.94 258.489 2208.94 270.48 Q2208.94 282.43 2214.45 288.79 Q2219.96 295.109 2230.33 295.109 Q2235.59 295.109 2240.25 293.205 Q2244.95 291.301 2249.08 287.453 L2249.08 296 Q2244.79 298.917 2239.97 300.375 Q2235.19 301.834 2229.84 301.834 Q2216.11 301.834 2208.21 293.448 Q2200.31 285.022 2200.31 270.48 Q2200.31 255.896 2208.21 247.511 Q2216.11 239.085 2229.84 239.085 Q2235.27 239.085 2240.05 240.543 Q2244.87 241.961 2249.08 244.837 Z" fill="#3da44d" fill-rule="nonzero" fill-opacity="1" /><path clip-path="url(#clip500)" d="M2281.94 248.24 L2270.84 278.338 L2293.08 278.338 L2281.94 248.24 M2277.32 240.179 L2286.6 240.179 L2309.64 300.659 L2301.14 300.659 L2295.63 285.144 L2268.37 285.144 L2262.86 300.659 L2254.23 300.659 L2277.32 240.179 Z" fill="#3da44d" fill-rule="nonzero" fill-opacity="1" /><path clip-path="url(#clip500)" d="M972.869 612.137 L981.052 612.137 L981.052 665.73 L1010.5 665.73 L1010.5 672.617 L972.869 672.617 L972.869 612.137 Z" fill="#009af9" fill-rule="nonzero" fill-opacity="1" /><path clip-path="url(#clip500)" d="M1047.77 644.26 Q1050.4 645.152 1052.87 648.068 Q1055.39 650.985 1057.9 656.089 L1066.2 672.617 L1057.41 672.617 L1049.67 657.102 Q1046.68 651.025 1043.84 649.041 Q1041.05 647.056 1036.18 647.056 L1027.27 647.056 L1027.27 672.617 L1019.09 672.617 L1019.09 612.137 L1037.56 612.137 Q1047.93 612.137 1053.04 616.471 Q1058.14 620.806 1058.14 629.556 Q1058.14 635.267 1055.47 639.035 Q1052.83 642.802 1047.77 644.26 M1027.27 618.861 L1027.27 640.331 L1037.56 640.331 Q1043.48 640.331 1046.47 637.617 Q1049.51 634.862 1049.51 629.556 Q1049.51 624.249 1046.47 621.575 Q1043.48 618.861 1037.56 618.861 L1027.27 618.861 Z" fill="#009af9" fill-rule="nonzero" fill-opacity="1" /><path clip-path="url(#clip500)" d="M1069.28 646.569 L1091.12 646.569 L1091.12 653.213 L1069.28 653.213 L1069.28 646.569 Z" fill="#009af9" fill-rule="nonzero" fill-opacity="1" /><path clip-path="url(#clip500)" d="M1121.7 620.198 L1110.6 650.296 L1132.84 650.296 L1121.7 620.198 M1117.08 612.137 L1126.36 612.137 L1149.41 672.617 L1140.9 672.617 L1135.39 657.102 L1108.13 657.102 L1102.62 672.617 L1093.99 672.617 L1117.08 612.137 Z" fill="#009af9" fill-rule="nonzero" fill-opacity="1" /><path clip-path="url(#clip500)" d="M1158.24 612.137 L1166.42 612.137 L1166.42 665.73 L1195.87 665.73 L1195.87 672.617 L1158.24 672.617 L1158.24 612.137 Z" fill="#009af9" fill-rule="nonzero" fill-opacity="1" /><path clip-path="url(#clip500)" d="M1212.64 618.861 L1212.64 641.587 L1222.93 641.587 Q1228.64 641.587 1231.76 638.63 Q1234.88 635.673 1234.88 630.204 Q1234.88 624.776 1231.76 621.818 Q1228.64 618.861 1222.93 618.861 L1212.64 618.861 M1204.46 612.137 L1222.93 612.137 Q1233.1 612.137 1238.28 616.755 Q1243.51 621.332 1243.51 630.204 Q1243.51 639.156 1238.28 643.734 Q1233.1 648.311 1222.93 648.311 L1212.64 648.311 L1212.64 672.617 L1204.46 672.617 L1204.46 612.137 Z" fill="#009af9" fill-rule="nonzero" fill-opacity="1" /><path clip-path="url(#clip500)" d="M1299.78 616.795 L1299.78 625.424 Q1295.65 621.575 1290.95 619.671 Q1286.29 617.768 1281.02 617.768 Q1270.65 617.768 1265.14 624.127 Q1259.63 630.447 1259.63 642.438 Q1259.63 654.388 1265.14 660.748 Q1270.65 667.067 1281.02 667.067 Q1286.29 667.067 1290.95 665.163 Q1295.65 663.259 1299.78 659.411 L1299.78 667.958 Q1295.48 670.875 1290.66 672.333 Q1285.88 673.792 1280.54 673.792 Q1266.8 673.792 1258.9 665.406 Q1251 656.98 1251 642.438 Q1251 627.854 1258.9 619.469 Q1266.8 611.043 1280.54 611.043 Q1285.96 611.043 1290.74 612.501 Q1295.56 613.919 1299.78 616.795 Z" fill="#009af9" fill-rule="nonzero" fill-opacity="1" /><path clip-path="url(#clip500)" d="M1332.63 620.198 L1321.53 650.296 L1343.77 650.296 L1332.63 620.198 M1328.01 612.137 L1337.29 612.137 L1360.34 672.617 L1351.83 672.617 L1346.32 657.102 L1319.06 657.102 L1313.55 672.617 L1304.92 672.617 L1328.01 612.137 Z" fill="#009af9" fill-rule="nonzero" fill-opacity="1" /><path clip-path="url(#clip500)" d="M1369.17 612.137 L1377.35 612.137 L1377.35 636.928 L1407.09 636.928 L1407.09 612.137 L1415.27 612.137 L1415.27 672.617 L1407.09 672.617 L1407.09 643.815 L1377.35 643.815 L1377.35 672.617 L1369.17 672.617 L1369.17 612.137 Z" fill="#009af9" fill-rule="nonzero" fill-opacity="1" /><path clip-path="url(#clip500)" d="M1475.51 609.666 Q1470.08 618.983 1467.44 628.097 Q1464.81 637.212 1464.81 646.569 Q1464.81 655.927 1467.44 665.123 Q1470.12 674.278 1475.51 683.554 L1469.02 683.554 Q1462.95 674.035 1459.91 664.839 Q1456.91 655.643 1456.91 646.569 Q1456.91 637.536 1459.91 628.381 Q1462.91 619.226 1469.02 609.666 L1475.51 609.666 Z" fill="#009af9" fill-rule="nonzero" fill-opacity="1" /><path clip-path="url(#clip500)" d="M1498.47 618.861 L1498.47 641.587 L1508.76 641.587 Q1514.48 641.587 1517.59 638.63 Q1520.71 635.673 1520.71 630.204 Q1520.71 624.776 1517.59 621.818 Q1514.48 618.861 1508.76 618.861 L1498.47 618.861 M1490.29 612.137 L1508.76 612.137 Q1518.93 612.137 1524.12 616.755 Q1529.34 621.332 1529.34 630.204 Q1529.34 639.156 1524.12 643.734 Q1518.93 648.311 1508.76 648.311 L1498.47 648.311 L1498.47 672.617 L1490.29 672.617 L1490.29 612.137 Z" fill="#009af9" fill-rule="nonzero" fill-opacity="1" /><path clip-path="url(#clip500)" d="M1555.23 620.198 L1544.13 650.296 L1566.37 650.296 L1555.23 620.198 M1550.61 612.137 L1559.89 612.137 L1582.94 672.617 L1574.43 672.617 L1568.92 657.102 L1541.66 657.102 L1536.15 672.617 L1527.52 672.617 L1550.61 612.137 Z" fill="#009af9" fill-rule="nonzero" fill-opacity="1" /><path clip-path="url(#clip500)" d="M1591.77 612.137 L1599.95 612.137 L1599.95 665.73 L1629.4 665.73 L1629.4 672.617 L1591.77 672.617 L1591.77 612.137 Z" fill="#009af9" fill-rule="nonzero" fill-opacity="1" /><path clip-path="url(#clip500)" d="M1637.99 612.137 L1650.18 612.137 L1665.61 653.294 L1681.13 612.137 L1693.32 612.137 L1693.32 672.617 L1685.34 672.617 L1685.34 619.509 L1669.75 660.991 L1661.52 660.991 L1645.93 619.509 L1645.93 672.617 L1637.99 672.617 L1637.99 612.137 Z" fill="#009af9" fill-rule="nonzero" fill-opacity="1" /><path clip-path="url(#clip500)" d="M1708.07 609.666 L1714.55 609.666 Q1720.63 619.226 1723.62 628.381 Q1726.66 637.536 1726.66 646.569 Q1726.66 655.643 1723.62 664.839 Q1720.63 674.035 1714.55 683.554 L1708.07 683.554 Q1713.46 674.278 1716.09 665.123 Q1718.76 655.927 1718.76 646.569 Q1718.76 637.212 1716.09 628.097 Q1713.46 618.983 1708.07 609.666 Z" fill="#009af9" fill-rule="nonzero" fill-opacity="1" /><path clip-path="url(#clip500)" d="M779.807 1281.66 L787.99 1281.66 L787.99 1335.25 L817.44 1335.25 L817.44 1342.14 L779.807 1342.14 L779.807 1281.66 Z" fill="#f05f73" fill-rule="nonzero" fill-opacity="1" /><path clip-path="url(#clip500)" d="M854.708 1313.78 Q857.341 1314.68 859.812 1317.59 Q862.324 1320.51 864.835 1325.61 L873.14 1342.14 L864.349 1342.14 L856.612 1326.63 Q853.614 1320.55 850.779 1318.56 Q847.984 1316.58 843.122 1316.58 L834.21 1316.58 L834.21 1342.14 L826.028 1342.14 L826.028 1281.66 L844.5 1281.66 Q854.87 1281.66 859.974 1286 Q865.078 1290.33 865.078 1299.08 Q865.078 1304.79 862.405 1308.56 Q859.772 1312.33 854.708 1313.78 M834.21 1288.39 L834.21 1309.86 L844.5 1309.86 Q850.414 1309.86 853.412 1307.14 Q856.45 1304.39 856.45 1299.08 Q856.45 1293.77 853.412 1291.1 Q850.414 1288.39 844.5 1288.39 L834.21 1288.39 Z" fill="#f05f73" fill-rule="nonzero" fill-opacity="1" /><path clip-path="url(#clip500)" d="M876.218 1316.09 L898.053 1316.09 L898.053 1322.74 L876.218 1322.74 L876.218 1316.09 Z" fill="#f05f73" fill-rule="nonzero" fill-opacity="1" /><path clip-path="url(#clip500)" d="M928.637 1289.72 L917.538 1319.82 L939.777 1319.82 L928.637 1289.72 M924.019 1281.66 L933.296 1281.66 L956.345 1342.14 L947.838 1342.14 L942.329 1326.63 L915.066 1326.63 L909.557 1342.14 L900.929 1342.14 L924.019 1281.66 Z" fill="#f05f73" fill-rule="nonzero" fill-opacity="1" /><path clip-path="url(#clip500)" d="M965.176 1281.66 L973.359 1281.66 L973.359 1335.25 L1002.81 1335.25 L1002.81 1342.14 L965.176 1342.14 L965.176 1281.66 Z" fill="#f05f73" fill-rule="nonzero" fill-opacity="1" /><path clip-path="url(#clip500)" d="M1019.58 1288.39 L1019.58 1311.11 L1029.87 1311.11 Q1035.58 1311.11 1038.7 1308.15 Q1041.82 1305.2 1041.82 1299.73 Q1041.82 1294.3 1038.7 1291.34 Q1035.58 1288.39 1029.87 1288.39 L1019.58 1288.39 M1011.4 1281.66 L1029.87 1281.66 Q1040.04 1281.66 1045.22 1286.28 Q1050.45 1290.86 1050.45 1299.73 Q1050.45 1308.68 1045.22 1313.26 Q1040.04 1317.84 1029.87 1317.84 L1019.58 1317.84 L1019.58 1342.14 L1011.4 1342.14 L1011.4 1281.66 Z" fill="#f05f73" fill-rule="nonzero" fill-opacity="1" /><path clip-path="url(#clip500)" d="M1106.71 1286.32 L1106.71 1294.95 Q1102.58 1291.1 1097.88 1289.2 Q1093.23 1287.29 1087.96 1287.29 Q1077.59 1287.29 1072.08 1293.65 Q1066.57 1299.97 1066.57 1311.96 Q1066.57 1323.91 1072.08 1330.27 Q1077.59 1336.59 1087.96 1336.59 Q1093.23 1336.59 1097.88 1334.69 Q1102.58 1332.78 1106.71 1328.94 L1106.71 1337.48 Q1102.42 1340.4 1097.6 1341.86 Q1092.82 1343.32 1087.47 1343.32 Q1073.74 1343.32 1065.84 1334.93 Q1057.94 1326.5 1057.94 1311.96 Q1057.94 1297.38 1065.84 1288.99 Q1073.74 1280.57 1087.47 1280.57 Q1092.9 1280.57 1097.68 1282.03 Q1102.5 1283.44 1106.71 1286.32 Z" fill="#f05f73" fill-rule="nonzero" fill-opacity="1" /><path clip-path="url(#clip500)" d="M1139.57 1289.72 L1128.47 1319.82 L1150.71 1319.82 L1139.57 1289.72 M1134.95 1281.66 L1144.23 1281.66 L1167.28 1342.14 L1158.77 1342.14 L1153.26 1326.63 L1126 1326.63 L1120.49 1342.14 L1111.86 1342.14 L1134.95 1281.66 Z" fill="#f05f73" fill-rule="nonzero" fill-opacity="1" /><path clip-path="url(#clip500)" d="M1176.11 1281.66 L1184.29 1281.66 L1184.29 1306.45 L1214.02 1306.45 L1214.02 1281.66 L1222.21 1281.66 L1222.21 1342.14 L1214.02 1342.14 L1214.02 1313.34 L1184.29 1313.34 L1184.29 1342.14 L1176.11 1342.14 L1176.11 1281.66 Z" fill="#f05f73" fill-rule="nonzero" fill-opacity="1" /><path clip-path="url(#clip500)" d="M1282.44 1279.19 Q1277.01 1288.51 1274.38 1297.62 Q1271.75 1306.74 1271.75 1316.09 Q1271.75 1325.45 1274.38 1334.65 Q1277.06 1343.8 1282.44 1353.08 L1275.96 1353.08 Q1269.89 1343.56 1266.85 1334.36 Q1263.85 1325.17 1263.85 1316.09 Q1263.85 1307.06 1266.85 1297.91 Q1269.84 1288.75 1275.96 1279.19 L1282.44 1279.19 Z" fill="#f05f73" fill-rule="nonzero" fill-opacity="1" /><path clip-path="url(#clip500)" d="M1317.44 1289.72 L1306.34 1319.82 L1328.58 1319.82 L1317.44 1289.72 M1312.82 1281.66 L1322.1 1281.66 L1345.15 1342.14 L1336.64 1342.14 L1331.13 1326.63 L1303.87 1326.63 L1298.36 1342.14 L1289.73 1342.14 L1312.82 1281.66 Z" fill="#f05f73" fill-rule="nonzero" fill-opacity="1" /><path clip-path="url(#clip500)" d="M1353.66 1279.11 L1361.11 1279.11 L1361.11 1342.14 L1353.66 1342.14 L1353.66 1279.11 Z" fill="#f05f73" fill-rule="nonzero" fill-opacity="1" /><path clip-path="url(#clip500)" d="M1384.08 1283.89 L1384.08 1296.77 L1399.43 1296.77 L1399.43 1302.56 L1384.08 1302.56 L1384.08 1327.19 Q1384.08 1332.74 1385.58 1334.32 Q1387.12 1335.9 1391.78 1335.9 L1399.43 1335.9 L1399.43 1342.14 L1391.78 1342.14 Q1383.15 1342.14 1379.87 1338.94 Q1376.59 1335.7 1376.59 1327.19 L1376.59 1302.56 L1371.12 1302.56 L1371.12 1296.77 L1376.59 1296.77 L1376.59 1283.89 L1384.08 1283.89 Z" fill="#f05f73" fill-rule="nonzero" fill-opacity="1" /><path clip-path="url(#clip500)" d="M1409.56 1281.66 L1421.75 1281.66 L1437.19 1322.82 L1452.7 1281.66 L1464.9 1281.66 L1464.9 1342.14 L1456.92 1342.14 L1456.92 1289.03 L1441.32 1330.51 L1433.1 1330.51 L1417.5 1289.03 L1417.5 1342.14 L1409.56 1342.14 L1409.56 1281.66 Z" fill="#f05f73" fill-rule="nonzero" fill-opacity="1" /><path clip-path="url(#clip500)" d="M1480.82 1296.77 L1488.27 1296.77 L1488.27 1342.14 L1480.82 1342.14 L1480.82 1296.77 M1480.82 1279.11 L1488.27 1279.11 L1488.27 1288.55 L1480.82 1288.55 L1480.82 1279.11 Z" fill="#f05f73" fill-rule="nonzero" fill-opacity="1" /><path clip-path="url(#clip500)" d="M1541.58 1314.76 L1541.58 1342.14 L1534.13 1342.14 L1534.13 1315 Q1534.13 1308.56 1531.61 1305.36 Q1529.1 1302.16 1524.08 1302.16 Q1518.04 1302.16 1514.56 1306.01 Q1511.08 1309.86 1511.08 1316.5 L1511.08 1342.14 L1503.58 1342.14 L1503.58 1296.77 L1511.08 1296.77 L1511.08 1303.82 Q1513.75 1299.73 1517.35 1297.7 Q1521 1295.68 1525.74 1295.68 Q1533.56 1295.68 1537.57 1300.54 Q1541.58 1305.36 1541.58 1314.76 Z" fill="#f05f73" fill-rule="nonzero" fill-opacity="1" /><path clip-path="url(#clip500)" d="M1555.27 1279.19 L1561.75 1279.19 Q1567.83 1288.75 1570.83 1297.91 Q1573.87 1307.06 1573.87 1316.09 Q1573.87 1325.17 1570.83 1334.36 Q1567.83 1343.56 1561.75 1353.08 L1555.27 1353.08 Q1560.66 1343.8 1563.29 1334.65 Q1565.97 1325.45 1565.97 1316.09 Q1565.97 1306.74 1563.29 1297.62 Q1560.66 1288.51 1555.27 1279.19 Z" fill="#f05f73" fill-rule="nonzero" fill-opacity="1" /></svg>
