<?xml version="1.0" encoding="utf-8"?>
<svg xmlns="http://www.w3.org/2000/svg" xmlns:xlink="http://www.w3.org/1999/xlink" width="600" height="400" viewBox="0 0 2400 1600">
<defs>
  <clipPath id="clip530">
    <rect x="0" y="0" width="2400" height="1600"/>
  </clipPath>
</defs>
<path clip-path="url(#clip530)" d="M0 1600 L2400 1600 L2400 0 L0 0  Z" fill="#ffffff" fill-rule="evenodd" fill-opacity="1"/>
<defs>
  <clipPath id="clip531">
    <rect x="480" y="0" width="1681" height="1600"/>
  </clipPath>
</defs>
<path clip-path="url(#clip530)" d="M306.321 1384.3 L2352.76 1384.3 L2352.76 47.2441 L306.321 47.2441  Z" fill="#ffffff" fill-rule="evenodd" fill-opacity="1"/>
<defs>
  <clipPath id="clip532">
    <rect x="306" y="47" width="2047" height="1338"/>
  </clipPath>
</defs>
<polyline clip-path="url(#clip532)" style="stroke:#000000; stroke-linecap:round; stroke-linejoin:round; stroke-width:2; stroke-opacity:0.1; fill:none" points="364.239,1384.3 364.239,47.2441 "/>
<polyline clip-path="url(#clip532)" style="stroke:#000000; stroke-linecap:round; stroke-linejoin:round; stroke-width:2; stroke-opacity:0.1; fill:none" points="750.359,1384.3 750.359,47.2441 "/>
<polyline clip-path="url(#clip532)" style="stroke:#000000; stroke-linecap:round; stroke-linejoin:round; stroke-width:2; stroke-opacity:0.1; fill:none" points="1136.48,1384.3 1136.48,47.2441 "/>
<polyline clip-path="url(#clip532)" style="stroke:#000000; stroke-linecap:round; stroke-linejoin:round; stroke-width:2; stroke-opacity:0.1; fill:none" points="1522.6,1384.3 1522.6,47.2441 "/>
<polyline clip-path="url(#clip532)" style="stroke:#000000; stroke-linecap:round; stroke-linejoin:round; stroke-width:2; stroke-opacity:0.1; fill:none" points="1908.72,1384.3 1908.72,47.2441 "/>
<polyline clip-path="url(#clip532)" style="stroke:#000000; stroke-linecap:round; stroke-linejoin:round; stroke-width:2; stroke-opacity:0.1; fill:none" points="2294.84,1384.3 2294.84,47.2441 "/>
<polyline clip-path="url(#clip530)" style="stroke:#000000; stroke-linecap:round; stroke-linejoin:round; stroke-width:4; stroke-opacity:1; fill:none" points="306.321,1384.3 2352.76,1384.3 "/>
<polyline clip-path="url(#clip530)" style="stroke:#000000; stroke-linecap:round; stroke-linejoin:round; stroke-width:4; stroke-opacity:1; fill:none" points="364.239,1384.3 364.239,1365.4 "/>
<polyline clip-path="url(#clip530)" style="stroke:#000000; stroke-linecap:round; stroke-linejoin:round; stroke-width:4; stroke-opacity:1; fill:none" points="750.359,1384.3 750.359,1365.4 "/>
<polyline clip-path="url(#clip530)" style="stroke:#000000; stroke-linecap:round; stroke-linejoin:round; stroke-width:4; stroke-opacity:1; fill:none" points="1136.48,1384.3 1136.48,1365.4 "/>
<polyline clip-path="url(#clip530)" style="stroke:#000000; stroke-linecap:round; stroke-linejoin:round; stroke-width:4; stroke-opacity:1; fill:none" points="1522.6,1384.3 1522.6,1365.4 "/>
<polyline clip-path="url(#clip530)" style="stroke:#000000; stroke-linecap:round; stroke-linejoin:round; stroke-width:4; stroke-opacity:1; fill:none" points="1908.72,1384.3 1908.72,1365.4 "/>
<polyline clip-path="url(#clip530)" style="stroke:#000000; stroke-linecap:round; stroke-linejoin:round; stroke-width:4; stroke-opacity:1; fill:none" points="2294.84,1384.3 2294.84,1365.4 "/>
<path clip-path="url(#clip530)" d="M364.239 1421.08 Q358.822 1421.08 356.079 1426.43 Q353.371 1431.74 353.371 1442.43 Q353.371 1453.09 356.079 1458.44 Q358.822 1463.75 364.239 1463.75 Q369.69 1463.75 372.398 1458.44 Q375.141 1453.09 375.141 1442.43 Q375.141 1431.74 372.398 1426.43 Q369.69 1421.08 364.239 1421.08 M364.239 1415.52 Q372.954 1415.52 377.537 1422.43 Q382.155 1429.31 382.155 1442.43 Q382.155 1455.52 377.537 1462.43 Q372.954 1469.31 364.239 1469.31 Q355.523 1469.31 350.905 1462.43 Q346.322 1455.52 346.322 1442.43 Q346.322 1429.31 350.905 1422.43 Q355.523 1415.52 364.239 1415.52 Z" fill="#000000" fill-rule="nonzero" fill-opacity="1" /><path clip-path="url(#clip530)" d="M689.769 1462.4 L701.227 1462.4 L701.227 1422.85 L688.762 1425.35 L688.762 1418.96 L701.157 1416.46 L708.171 1416.46 L708.171 1462.4 L719.63 1462.4 L719.63 1468.3 L689.769 1468.3 L689.769 1462.4 Z" fill="#000000" fill-rule="nonzero" fill-opacity="1" /><path clip-path="url(#clip530)" d="M748.796 1421.08 Q743.379 1421.08 740.636 1426.43 Q737.928 1431.74 737.928 1442.43 Q737.928 1453.09 740.636 1458.44 Q743.379 1463.75 748.796 1463.75 Q754.247 1463.75 756.956 1458.44 Q759.699 1453.09 759.699 1442.43 Q759.699 1431.74 756.956 1426.43 Q754.247 1421.08 748.796 1421.08 M748.796 1415.52 Q757.511 1415.52 762.095 1422.43 Q766.713 1429.31 766.713 1442.43 Q766.713 1455.52 762.095 1462.43 Q757.511 1469.31 748.796 1469.31 Q740.081 1469.31 735.463 1462.43 Q730.879 1455.52 730.879 1442.43 Q730.879 1429.31 735.463 1422.43 Q740.081 1415.52 748.796 1415.52 Z" fill="#000000" fill-rule="nonzero" fill-opacity="1" /><path clip-path="url(#clip530)" d="M794.039 1421.08 Q788.622 1421.08 785.879 1426.43 Q783.171 1431.74 783.171 1442.43 Q783.171 1453.09 785.879 1458.44 Q788.622 1463.75 794.039 1463.75 Q799.49 1463.75 802.199 1458.44 Q804.942 1453.09 804.942 1442.43 Q804.942 1431.74 802.199 1426.43 Q799.49 1421.08 794.039 1421.08 M794.039 1415.52 Q802.754 1415.52 807.337 1422.43 Q811.955 1429.31 811.955 1442.43 Q811.955 1455.52 807.337 1462.43 Q802.754 1469.31 794.039 1469.31 Q785.324 1469.31 780.706 1462.43 Q776.122 1455.52 776.122 1442.43 Q776.122 1429.31 780.706 1422.43 Q785.324 1415.52 794.039 1415.52 Z" fill="#000000" fill-rule="nonzero" fill-opacity="1" /><path clip-path="url(#clip530)" d="M1082.02 1462.4 L1106.5 1462.4 L1106.5 1468.3 L1073.58 1468.3 L1073.58 1462.4 Q1077.57 1458.27 1084.45 1451.32 Q1091.36 1444.34 1093.13 1442.33 Q1096.5 1438.54 1097.82 1435.94 Q1099.17 1433.3 1099.17 1430.77 Q1099.17 1426.63 1096.25 1424.03 Q1093.37 1421.43 1088.72 1421.43 Q1085.42 1421.43 1081.74 1422.57 Q1078.09 1423.72 1073.93 1426.04 L1073.93 1418.96 Q1078.16 1417.26 1081.84 1416.39 Q1085.52 1415.52 1088.58 1415.52 Q1096.63 1415.52 1101.43 1419.55 Q1106.22 1423.58 1106.22 1430.31 Q1106.22 1433.51 1105 1436.39 Q1103.82 1439.24 1100.66 1443.13 Q1099.79 1444.13 1095.14 1448.96 Q1090.49 1453.75 1082.02 1462.4 Z" fill="#000000" fill-rule="nonzero" fill-opacity="1" /><path clip-path="url(#clip530)" d="M1136.22 1421.08 Q1130.8 1421.08 1128.06 1426.43 Q1125.35 1431.74 1125.35 1442.43 Q1125.35 1453.09 1128.06 1458.44 Q1130.8 1463.75 1136.22 1463.75 Q1141.67 1463.75 1144.38 1458.44 Q1147.12 1453.09 1147.12 1442.43 Q1147.12 1431.74 1144.38 1426.43 Q1141.67 1421.08 1136.22 1421.08 M1136.22 1415.52 Q1144.93 1415.52 1149.52 1422.43 Q1154.13 1429.31 1154.13 1442.43 Q1154.13 1455.52 1149.52 1462.43 Q1144.93 1469.31 1136.22 1469.31 Q1127.5 1469.31 1122.88 1462.43 Q1118.3 1455.52 1118.3 1442.43 Q1118.3 1429.31 1122.88 1422.43 Q1127.5 1415.52 1136.22 1415.52 Z" fill="#000000" fill-rule="nonzero" fill-opacity="1" /><path clip-path="url(#clip530)" d="M1181.46 1421.08 Q1176.04 1421.08 1173.3 1426.43 Q1170.59 1431.74 1170.59 1442.43 Q1170.59 1453.09 1173.3 1458.44 Q1176.04 1463.75 1181.46 1463.75 Q1186.91 1463.75 1189.62 1458.44 Q1192.36 1453.09 1192.36 1442.43 Q1192.36 1431.74 1189.62 1426.43 Q1186.91 1421.08 1181.46 1421.08 M1181.46 1415.52 Q1190.18 1415.52 1194.76 1422.43 Q1199.38 1429.31 1199.38 1442.43 Q1199.38 1455.52 1194.76 1462.43 Q1190.18 1469.31 1181.46 1469.31 Q1172.75 1469.31 1168.13 1462.43 Q1163.54 1455.52 1163.54 1442.43 Q1163.54 1429.31 1168.13 1422.43 Q1172.75 1415.52 1181.46 1415.52 Z" fill="#000000" fill-rule="nonzero" fill-opacity="1" /><path clip-path="url(#clip530)" d="M1483.24 1440.35 Q1488.28 1441.42 1491.09 1444.83 Q1493.94 1448.23 1493.94 1453.23 Q1493.94 1460.9 1488.66 1465.11 Q1483.38 1469.31 1473.66 1469.31 Q1470.39 1469.31 1466.92 1468.65 Q1463.48 1468.02 1459.8 1466.74 L1459.8 1459.97 Q1462.72 1461.67 1466.19 1462.54 Q1469.66 1463.4 1473.45 1463.4 Q1480.05 1463.4 1483.48 1460.8 Q1486.96 1458.2 1486.96 1453.23 Q1486.96 1448.65 1483.73 1446.08 Q1480.53 1443.47 1474.8 1443.47 L1468.76 1443.47 L1468.76 1437.71 L1475.08 1437.71 Q1480.25 1437.71 1483 1435.66 Q1485.74 1433.58 1485.74 1429.69 Q1485.74 1425.7 1482.89 1423.58 Q1480.08 1421.43 1474.8 1421.43 Q1471.92 1421.43 1468.62 1422.05 Q1465.32 1422.68 1461.37 1423.99 L1461.37 1417.74 Q1465.36 1416.63 1468.83 1416.08 Q1472.34 1415.52 1475.43 1415.52 Q1483.41 1415.52 1488.07 1419.17 Q1492.72 1422.78 1492.72 1428.96 Q1492.72 1433.27 1490.25 1436.25 Q1487.79 1439.2 1483.24 1440.35 Z" fill="#000000" fill-rule="nonzero" fill-opacity="1" /><path clip-path="url(#clip530)" d="M1522.23 1421.08 Q1516.82 1421.08 1514.07 1426.43 Q1511.37 1431.74 1511.37 1442.43 Q1511.37 1453.09 1514.07 1458.44 Q1516.82 1463.75 1522.23 1463.75 Q1527.68 1463.75 1530.39 1458.44 Q1533.14 1453.09 1533.14 1442.43 Q1533.14 1431.74 1530.39 1426.43 Q1527.68 1421.08 1522.23 1421.08 M1522.23 1415.52 Q1530.95 1415.52 1535.53 1422.43 Q1540.15 1429.31 1540.15 1442.43 Q1540.15 1455.52 1535.53 1462.43 Q1530.95 1469.31 1522.23 1469.31 Q1513.52 1469.31 1508.9 1462.43 Q1504.32 1455.52 1504.32 1442.43 Q1504.32 1429.31 1508.9 1422.43 Q1513.52 1415.52 1522.23 1415.52 Z" fill="#000000" fill-rule="nonzero" fill-opacity="1" /><path clip-path="url(#clip530)" d="M1567.48 1421.08 Q1562.06 1421.08 1559.32 1426.43 Q1556.61 1431.74 1556.61 1442.43 Q1556.61 1453.09 1559.32 1458.44 Q1562.06 1463.75 1567.48 1463.75 Q1572.93 1463.75 1575.64 1458.44 Q1578.38 1453.09 1578.38 1442.43 Q1578.38 1431.74 1575.64 1426.43 Q1572.93 1421.08 1567.48 1421.08 M1567.48 1415.52 Q1576.19 1415.52 1580.77 1422.43 Q1585.39 1429.31 1585.39 1442.43 Q1585.39 1455.52 1580.77 1462.43 Q1576.19 1469.31 1567.48 1469.31 Q1558.76 1469.31 1554.14 1462.43 Q1549.56 1455.52 1549.56 1442.43 Q1549.56 1429.31 1554.14 1422.43 Q1558.76 1415.52 1567.48 1415.52 Z" fill="#000000" fill-rule="nonzero" fill-opacity="1" /><path clip-path="url(#clip530)" d="M1868.35 1422.57 L1850.65 1450.24 L1868.35 1450.24 L1868.35 1422.57 M1866.51 1416.46 L1875.33 1416.46 L1875.33 1450.24 L1882.73 1450.24 L1882.73 1456.08 L1875.33 1456.08 L1875.33 1468.3 L1868.35 1468.3 L1868.35 1456.08 L1844.95 1456.08 L1844.95 1449.31 L1866.51 1416.46 Z" fill="#000000" fill-rule="nonzero" fill-opacity="1" /><path clip-path="url(#clip530)" d="M1909.33 1421.08 Q1903.91 1421.08 1901.17 1426.43 Q1898.46 1431.74 1898.46 1442.43 Q1898.46 1453.09 1901.17 1458.44 Q1903.91 1463.75 1909.33 1463.75 Q1914.78 1463.75 1917.49 1458.44 Q1920.23 1453.09 1920.23 1442.43 Q1920.23 1431.74 1917.49 1426.43 Q1914.78 1421.08 1909.33 1421.08 M1909.33 1415.52 Q1918.04 1415.52 1922.62 1422.43 Q1927.24 1429.31 1927.24 1442.43 Q1927.24 1455.52 1922.62 1462.43 Q1918.04 1469.31 1909.33 1469.31 Q1900.61 1469.31 1895.99 1462.43 Q1891.41 1455.52 1891.41 1442.43 Q1891.41 1429.31 1895.99 1422.43 Q1900.61 1415.52 1909.33 1415.52 Z" fill="#000000" fill-rule="nonzero" fill-opacity="1" /><path clip-path="url(#clip530)" d="M1954.57 1421.08 Q1949.15 1421.08 1946.41 1426.43 Q1943.7 1431.74 1943.7 1442.43 Q1943.7 1453.09 1946.41 1458.44 Q1949.15 1463.75 1954.57 1463.75 Q1960.02 1463.75 1962.73 1458.44 Q1965.47 1453.09 1965.47 1442.43 Q1965.47 1431.74 1962.73 1426.43 Q1960.02 1421.08 1954.57 1421.08 M1954.57 1415.52 Q1963.28 1415.52 1967.87 1422.43 Q1972.49 1429.31 1972.49 1442.43 Q1972.49 1455.52 1967.87 1462.43 Q1963.28 1469.31 1954.57 1469.31 Q1945.85 1469.31 1941.24 1462.43 Q1936.65 1455.52 1936.65 1442.43 Q1936.65 1429.31 1941.24 1422.43 Q1945.85 1415.52 1954.57 1415.52 Z" fill="#000000" fill-rule="nonzero" fill-opacity="1" /><path clip-path="url(#clip530)" d="M2234.27 1416.46 L2261.8 1416.46 L2261.8 1422.36 L2240.69 1422.36 L2240.69 1435.07 Q2242.22 1434.55 2243.74 1434.31 Q2245.27 1434.03 2246.8 1434.03 Q2255.48 1434.03 2260.55 1438.79 Q2265.62 1443.54 2265.62 1451.67 Q2265.62 1460.04 2260.41 1464.69 Q2255.2 1469.31 2245.72 1469.31 Q2242.46 1469.31 2239.06 1468.75 Q2235.69 1468.2 2232.08 1467.08 L2232.08 1460.04 Q2235.2 1461.74 2238.54 1462.57 Q2241.87 1463.4 2245.58 1463.4 Q2251.59 1463.4 2255.1 1460.24 Q2258.61 1457.08 2258.61 1451.67 Q2258.61 1446.25 2255.1 1443.09 Q2251.59 1439.93 2245.58 1439.93 Q2242.77 1439.93 2239.96 1440.56 Q2237.18 1441.18 2234.27 1442.5 L2234.27 1416.46 Z" fill="#000000" fill-rule="nonzero" fill-opacity="1" /><path clip-path="url(#clip530)" d="M2294.44 1421.08 Q2289.02 1421.08 2286.28 1426.43 Q2283.57 1431.74 2283.57 1442.43 Q2283.57 1453.09 2286.28 1458.44 Q2289.02 1463.75 2294.44 1463.75 Q2299.89 1463.75 2302.6 1458.44 Q2305.34 1453.09 2305.34 1442.43 Q2305.34 1431.74 2302.6 1426.43 Q2299.89 1421.08 2294.44 1421.08 M2294.44 1415.52 Q2303.15 1415.52 2307.74 1422.43 Q2312.36 1429.31 2312.36 1442.43 Q2312.36 1455.52 2307.74 1462.43 Q2303.15 1469.31 2294.44 1469.31 Q2285.72 1469.31 2281.11 1462.43 Q2276.52 1455.52 2276.52 1442.43 Q2276.52 1429.31 2281.11 1422.43 Q2285.72 1415.52 2294.44 1415.52 Z" fill="#000000" fill-rule="nonzero" fill-opacity="1" /><path clip-path="url(#clip530)" d="M2339.68 1421.08 Q2334.26 1421.08 2331.52 1426.43 Q2328.81 1431.74 2328.81 1442.43 Q2328.81 1453.09 2331.52 1458.44 Q2334.26 1463.75 2339.68 1463.75 Q2345.13 1463.75 2347.84 1458.44 Q2350.58 1453.09 2350.58 1442.43 Q2350.58 1431.74 2347.84 1426.43 Q2345.13 1421.08 2339.68 1421.08 M2339.68 1415.52 Q2348.4 1415.52 2352.98 1422.43 Q2357.6 1429.31 2357.6 1442.43 Q2357.6 1455.52 2352.98 1462.43 Q2348.4 1469.31 2339.68 1469.31 Q2330.97 1469.31 2326.35 1462.43 Q2321.76 1455.52 2321.76 1442.43 Q2321.76 1429.31 2326.35 1422.43 Q2330.97 1415.52 2339.68 1415.52 Z" fill="#000000" fill-rule="nonzero" fill-opacity="1" /><path clip-path="url(#clip530)" d="M1110.72 1511.88 L1120.07 1511.88 L1120.07 1581 L1110.72 1581 L1110.72 1511.88 Z" fill="#000000" fill-rule="nonzero" fill-opacity="1" /><path clip-path="url(#clip530)" d="M1146.74 1514.43 L1146.74 1529.15 L1164.28 1529.15 L1164.28 1535.77 L1146.74 1535.77 L1146.74 1563.92 Q1146.74 1570.26 1148.45 1572.07 Q1150.21 1573.87 1155.53 1573.87 L1164.28 1573.87 L1164.28 1581 L1155.53 1581 Q1145.67 1581 1141.92 1577.35 Q1138.17 1573.64 1138.17 1563.92 L1138.17 1535.77 L1131.92 1535.77 L1131.92 1529.15 L1138.17 1529.15 L1138.17 1514.43 L1146.74 1514.43 Z" fill="#000000" fill-rule="nonzero" fill-opacity="1" /><path clip-path="url(#clip530)" d="M1219.84 1552.95 L1219.84 1557.12 L1180.67 1557.12 Q1181.23 1565.91 1185.95 1570.54 Q1190.72 1575.12 1199.19 1575.12 Q1204.1 1575.12 1208.68 1573.92 Q1213.31 1572.72 1217.85 1570.31 L1217.85 1578.36 Q1213.27 1580.31 1208.45 1581.33 Q1203.64 1582.35 1198.68 1582.35 Q1186.28 1582.35 1179.01 1575.12 Q1171.78 1567.9 1171.78 1555.59 Q1171.78 1542.86 1178.64 1535.4 Q1185.53 1527.9 1197.2 1527.9 Q1207.66 1527.9 1213.73 1534.66 Q1219.84 1541.37 1219.84 1552.95 M1211.32 1550.45 Q1211.23 1543.46 1207.39 1539.29 Q1203.59 1535.12 1197.29 1535.12 Q1190.16 1535.12 1185.86 1539.15 Q1181.6 1543.18 1180.95 1550.49 L1211.32 1550.45 Z" fill="#000000" fill-rule="nonzero" fill-opacity="1" /><path clip-path="url(#clip530)" d="M1263.87 1537.12 Q1262.43 1536.28 1260.72 1535.91 Q1259.05 1535.49 1257.02 1535.49 Q1249.79 1535.49 1245.9 1540.22 Q1242.06 1544.89 1242.06 1553.69 L1242.06 1581 L1233.5 1581 L1233.5 1529.15 L1242.06 1529.15 L1242.06 1537.21 Q1244.75 1532.49 1249.05 1530.22 Q1253.36 1527.9 1259.52 1527.9 Q1260.4 1527.9 1261.46 1528.04 Q1262.52 1528.13 1263.82 1528.37 L1263.87 1537.12 Z" fill="#000000" fill-rule="nonzero" fill-opacity="1" /><path clip-path="url(#clip530)" d="M1296.37 1554.94 Q1286.04 1554.94 1282.06 1557.3 Q1278.08 1559.66 1278.08 1565.36 Q1278.08 1569.89 1281.04 1572.58 Q1284.05 1575.22 1289.19 1575.22 Q1296.27 1575.22 1300.53 1570.22 Q1304.84 1565.17 1304.84 1556.84 L1304.84 1554.94 L1296.37 1554.94 M1313.36 1551.42 L1313.36 1581 L1304.84 1581 L1304.84 1573.13 Q1301.92 1577.86 1297.57 1580.12 Q1293.22 1582.35 1286.92 1582.35 Q1278.96 1582.35 1274.24 1577.9 Q1269.56 1573.41 1269.56 1565.91 Q1269.56 1557.16 1275.4 1552.72 Q1281.27 1548.27 1292.89 1548.27 L1304.84 1548.27 L1304.84 1547.44 Q1304.84 1541.56 1300.95 1538.37 Q1297.11 1535.12 1290.12 1535.12 Q1285.67 1535.12 1281.46 1536.19 Q1277.25 1537.25 1273.36 1539.38 L1273.36 1531.51 Q1278.03 1529.71 1282.43 1528.83 Q1286.83 1527.9 1291 1527.9 Q1302.25 1527.9 1307.8 1533.74 Q1313.36 1539.57 1313.36 1551.42 Z" fill="#000000" fill-rule="nonzero" fill-opacity="1" /><path clip-path="url(#clip530)" d="M1339.33 1514.43 L1339.33 1529.15 L1356.88 1529.15 L1356.88 1535.77 L1339.33 1535.77 L1339.33 1563.92 Q1339.33 1570.26 1341.04 1572.07 Q1342.8 1573.87 1348.13 1573.87 L1356.88 1573.87 L1356.88 1581 L1348.13 1581 Q1338.27 1581 1334.52 1577.35 Q1330.77 1573.64 1330.77 1563.92 L1330.77 1535.77 L1324.52 1535.77 L1324.52 1529.15 L1330.77 1529.15 L1330.77 1514.43 L1339.33 1514.43 Z" fill="#000000" fill-rule="nonzero" fill-opacity="1" /><path clip-path="url(#clip530)" d="M1368.08 1529.15 L1376.6 1529.15 L1376.6 1581 L1368.08 1581 L1368.08 1529.15 M1368.08 1508.97 L1376.6 1508.97 L1376.6 1519.75 L1368.08 1519.75 L1368.08 1508.97 Z" fill="#000000" fill-rule="nonzero" fill-opacity="1" /><path clip-path="url(#clip530)" d="M1414.51 1535.12 Q1407.66 1535.12 1403.68 1540.49 Q1399.7 1545.82 1399.7 1555.12 Q1399.7 1564.43 1403.64 1569.8 Q1407.62 1575.12 1414.51 1575.12 Q1421.32 1575.12 1425.3 1569.75 Q1429.28 1564.38 1429.28 1555.12 Q1429.28 1545.91 1425.3 1540.54 Q1421.32 1535.12 1414.51 1535.12 M1414.51 1527.9 Q1425.63 1527.9 1431.97 1535.12 Q1438.31 1542.35 1438.31 1555.12 Q1438.31 1567.86 1431.97 1575.12 Q1425.63 1582.35 1414.51 1582.35 Q1403.36 1582.35 1397.01 1575.12 Q1390.72 1567.86 1390.72 1555.12 Q1390.72 1542.35 1397.01 1535.12 Q1403.36 1527.9 1414.51 1527.9 Z" fill="#000000" fill-rule="nonzero" fill-opacity="1" /><path clip-path="url(#clip530)" d="M1495.53 1549.71 L1495.53 1581 L1487.01 1581 L1487.01 1549.99 Q1487.01 1542.62 1484.14 1538.97 Q1481.27 1535.31 1475.53 1535.31 Q1468.63 1535.31 1464.65 1539.71 Q1460.67 1544.11 1460.67 1551.7 L1460.67 1581 L1452.11 1581 L1452.11 1529.15 L1460.67 1529.15 L1460.67 1537.21 Q1463.73 1532.53 1467.85 1530.22 Q1472.01 1527.9 1477.43 1527.9 Q1486.37 1527.9 1490.95 1533.46 Q1495.53 1538.97 1495.53 1549.71 Z" fill="#000000" fill-rule="nonzero" fill-opacity="1" /><path clip-path="url(#clip530)" d="M1545.58 1530.68 L1545.58 1538.74 Q1541.97 1536.88 1538.08 1535.96 Q1534.19 1535.03 1530.02 1535.03 Q1523.68 1535.03 1520.49 1536.98 Q1517.34 1538.92 1517.34 1542.81 Q1517.34 1545.77 1519.61 1547.49 Q1521.88 1549.15 1528.73 1550.68 L1531.64 1551.33 Q1540.72 1553.27 1544.51 1556.84 Q1548.36 1560.36 1548.36 1566.7 Q1548.36 1573.92 1542.62 1578.13 Q1536.92 1582.35 1526.92 1582.35 Q1522.75 1582.35 1518.22 1581.51 Q1513.73 1580.73 1508.73 1579.11 L1508.73 1570.31 Q1513.45 1572.76 1518.03 1574.01 Q1522.62 1575.22 1527.11 1575.22 Q1533.13 1575.22 1536.37 1573.18 Q1539.61 1571.1 1539.61 1567.35 Q1539.61 1563.87 1537.25 1562.02 Q1534.93 1560.17 1527.01 1558.46 L1524.05 1557.76 Q1516.13 1556.1 1512.62 1552.67 Q1509.1 1549.2 1509.1 1543.18 Q1509.1 1535.87 1514.28 1531.88 Q1519.47 1527.9 1529 1527.9 Q1533.73 1527.9 1537.89 1528.6 Q1542.06 1529.29 1545.58 1530.68 Z" fill="#000000" fill-rule="nonzero" fill-opacity="1" /><polyline clip-path="url(#clip532)" style="stroke:#000000; stroke-linecap:round; stroke-linejoin:round; stroke-width:2; stroke-opacity:0.1; fill:none" points="306.321,1185.24 2352.76,1185.24 "/>
<polyline clip-path="url(#clip532)" style="stroke:#000000; stroke-linecap:round; stroke-linejoin:round; stroke-width:2; stroke-opacity:0.1; fill:none" points="306.321,864.636 2352.76,864.636 "/>
<polyline clip-path="url(#clip532)" style="stroke:#000000; stroke-linecap:round; stroke-linejoin:round; stroke-width:2; stroke-opacity:0.1; fill:none" points="306.321,544.032 2352.76,544.032 "/>
<polyline clip-path="url(#clip532)" style="stroke:#000000; stroke-linecap:round; stroke-linejoin:round; stroke-width:2; stroke-opacity:0.1; fill:none" points="306.321,223.427 2352.76,223.427 "/>
<polyline clip-path="url(#clip530)" style="stroke:#000000; stroke-linecap:round; stroke-linejoin:round; stroke-width:4; stroke-opacity:1; fill:none" points="306.321,1384.3 306.321,47.2441 "/>
<polyline clip-path="url(#clip530)" style="stroke:#000000; stroke-linecap:round; stroke-linejoin:round; stroke-width:4; stroke-opacity:1; fill:none" points="306.321,1185.24 325.218,1185.24 "/>
<polyline clip-path="url(#clip530)" style="stroke:#000000; stroke-linecap:round; stroke-linejoin:round; stroke-width:4; stroke-opacity:1; fill:none" points="306.321,864.636 325.218,864.636 "/>
<polyline clip-path="url(#clip530)" style="stroke:#000000; stroke-linecap:round; stroke-linejoin:round; stroke-width:4; stroke-opacity:1; fill:none" points="306.321,544.032 325.218,544.032 "/>
<polyline clip-path="url(#clip530)" style="stroke:#000000; stroke-linecap:round; stroke-linejoin:round; stroke-width:4; stroke-opacity:1; fill:none" points="306.321,223.427 325.218,223.427 "/>
<path clip-path="url(#clip530)" d="M186.953 1163.94 Q181.536 1163.94 178.793 1169.29 Q176.085 1174.6 176.085 1185.29 Q176.085 1195.95 178.793 1201.3 Q181.536 1206.61 186.953 1206.61 Q192.404 1206.61 195.113 1201.3 Q197.856 1195.95 197.856 1185.29 Q197.856 1174.6 195.113 1169.29 Q192.404 1163.94 186.953 1163.94 M186.953 1158.38 Q195.668 1158.38 200.252 1165.29 Q204.87 1172.17 204.87 1185.29 Q204.87 1198.38 200.252 1205.29 Q195.668 1212.17 186.953 1212.17 Q178.238 1212.17 173.62 1205.29 Q169.036 1198.38 169.036 1185.29 Q169.036 1172.17 173.62 1165.29 Q178.238 1158.38 186.953 1158.38 Z" fill="#000000" fill-rule="nonzero" fill-opacity="1" /><path clip-path="url(#clip530)" d="M217.196 1202.34 L224.522 1202.34 L224.522 1211.16 L217.196 1211.16 L217.196 1202.34 Z" fill="#000000" fill-rule="nonzero" fill-opacity="1" /><path clip-path="url(#clip530)" d="M245.842 1205.26 L270.321 1205.26 L270.321 1211.16 L237.404 1211.16 L237.404 1205.26 Q241.397 1201.13 248.272 1194.18 Q255.182 1187.2 256.953 1185.19 Q260.321 1181.4 261.64 1178.8 Q262.994 1176.16 262.994 1173.63 Q262.994 1169.49 260.078 1166.89 Q257.196 1164.29 252.543 1164.29 Q249.244 1164.29 245.564 1165.43 Q241.918 1166.58 237.751 1168.9 L237.751 1161.82 Q241.987 1160.12 245.668 1159.25 Q249.349 1158.38 252.404 1158.38 Q260.46 1158.38 265.251 1162.41 Q270.043 1166.44 270.043 1173.17 Q270.043 1176.37 268.828 1179.25 Q267.647 1182.1 264.487 1185.99 Q263.619 1186.99 258.967 1191.82 Q254.314 1196.61 245.842 1205.26 Z" fill="#000000" fill-rule="nonzero" fill-opacity="1" /><path clip-path="url(#clip530)" d="M183.828 843.334 Q178.411 843.334 175.668 848.681 Q172.96 853.994 172.96 864.688 Q172.96 875.348 175.668 880.695 Q178.411 886.007 183.828 886.007 Q189.279 886.007 191.988 880.695 Q194.731 875.348 194.731 864.688 Q194.731 853.994 191.988 848.681 Q189.279 843.334 183.828 843.334 M183.828 837.779 Q192.543 837.779 197.127 844.688 Q201.745 851.563 201.745 864.688 Q201.745 877.778 197.127 884.688 Q192.543 891.563 183.828 891.563 Q175.113 891.563 170.495 884.688 Q165.912 877.778 165.912 864.688 Q165.912 851.563 170.495 844.688 Q175.113 837.779 183.828 837.779 Z" fill="#000000" fill-rule="nonzero" fill-opacity="1" /><path clip-path="url(#clip530)" d="M214.071 881.737 L221.397 881.737 L221.397 890.556 L214.071 890.556 L214.071 881.737 Z" fill="#000000" fill-rule="nonzero" fill-opacity="1" /><path clip-path="url(#clip530)" d="M255.946 844.827 L238.238 872.501 L255.946 872.501 L255.946 844.827 M254.105 838.716 L262.925 838.716 L262.925 872.501 L270.321 872.501 L270.321 878.334 L262.925 878.334 L262.925 890.556 L255.946 890.556 L255.946 878.334 L232.543 878.334 L232.543 871.563 L254.105 838.716 Z" fill="#000000" fill-rule="nonzero" fill-opacity="1" /><path clip-path="url(#clip530)" d="M184.314 522.73 Q178.898 522.73 176.155 528.077 Q173.446 533.389 173.446 544.084 Q173.446 554.743 176.155 560.091 Q178.898 565.403 184.314 565.403 Q189.766 565.403 192.474 560.091 Q195.217 554.743 195.217 544.084 Q195.217 533.389 192.474 528.077 Q189.766 522.73 184.314 522.73 M184.314 517.174 Q193.029 517.174 197.613 524.084 Q202.231 530.959 202.231 544.084 Q202.231 557.174 197.613 564.084 Q193.029 570.959 184.314 570.959 Q175.599 570.959 170.981 564.084 Q166.398 557.174 166.398 544.084 Q166.398 530.959 170.981 524.084 Q175.599 517.174 184.314 517.174 Z" fill="#000000" fill-rule="nonzero" fill-opacity="1" /><path clip-path="url(#clip530)" d="M214.557 561.132 L221.883 561.132 L221.883 569.952 L214.557 569.952 L214.557 561.132 Z" fill="#000000" fill-rule="nonzero" fill-opacity="1" /><path clip-path="url(#clip530)" d="M253.029 541.236 Q248.307 541.236 245.529 544.466 Q242.786 547.695 242.786 553.32 Q242.786 558.91 245.529 562.174 Q248.307 565.403 253.029 565.403 Q257.751 565.403 260.494 562.174 Q263.272 558.91 263.272 553.32 Q263.272 547.695 260.494 544.466 Q257.751 541.236 253.029 541.236 M266.953 519.257 L266.953 525.646 Q264.314 524.396 261.605 523.737 Q258.932 523.077 256.293 523.077 Q249.349 523.077 245.668 527.764 Q242.022 532.452 241.501 541.931 Q243.55 538.91 246.64 537.313 Q249.731 535.681 253.446 535.681 Q261.258 535.681 265.772 540.438 Q270.321 545.16 270.321 553.32 Q270.321 561.306 265.598 566.132 Q260.876 570.959 253.029 570.959 Q244.036 570.959 239.279 564.084 Q234.522 557.174 234.522 544.084 Q234.522 531.792 240.356 524.5 Q246.189 517.174 256.015 517.174 Q258.654 517.174 261.328 517.695 Q264.036 518.216 266.953 519.257 Z" fill="#000000" fill-rule="nonzero" fill-opacity="1" /><path clip-path="url(#clip530)" d="M184.696 202.125 Q179.279 202.125 176.536 207.472 Q173.828 212.785 173.828 223.479 Q173.828 234.139 176.536 239.486 Q179.279 244.799 184.696 244.799 Q190.147 244.799 192.856 239.486 Q195.599 234.139 195.599 223.479 Q195.599 212.785 192.856 207.472 Q190.147 202.125 184.696 202.125 M184.696 196.57 Q193.411 196.57 197.995 203.479 Q202.613 210.354 202.613 223.479 Q202.613 236.569 197.995 243.479 Q193.411 250.354 184.696 250.354 Q175.981 250.354 171.363 243.479 Q166.78 236.569 166.78 223.479 Q166.78 210.354 171.363 203.479 Q175.981 196.57 184.696 196.57 Z" fill="#000000" fill-rule="nonzero" fill-opacity="1" /><path clip-path="url(#clip530)" d="M214.939 240.528 L222.265 240.528 L222.265 249.347 L214.939 249.347 L214.939 240.528 Z" fill="#000000" fill-rule="nonzero" fill-opacity="1" /><path clip-path="url(#clip530)" d="M252.543 224.729 Q247.543 224.729 244.661 227.403 Q241.814 230.076 241.814 234.764 Q241.814 239.451 244.661 242.125 Q247.543 244.799 252.543 244.799 Q257.543 244.799 260.425 242.125 Q263.307 239.417 263.307 234.764 Q263.307 230.076 260.425 227.403 Q257.578 224.729 252.543 224.729 M245.529 221.743 Q241.015 220.632 238.481 217.542 Q235.981 214.452 235.981 210.007 Q235.981 203.792 240.39 200.181 Q244.835 196.57 252.543 196.57 Q260.286 196.57 264.696 200.181 Q269.105 203.792 269.105 210.007 Q269.105 214.452 266.571 217.542 Q264.071 220.632 259.592 221.743 Q264.661 222.924 267.473 226.361 Q270.321 229.799 270.321 234.764 Q270.321 242.299 265.703 246.326 Q261.119 250.354 252.543 250.354 Q243.967 250.354 239.349 246.326 Q234.765 242.299 234.765 234.764 Q234.765 229.799 237.613 226.361 Q240.46 222.924 245.529 221.743 M242.96 210.667 Q242.96 214.695 245.46 216.952 Q247.994 219.208 252.543 219.208 Q257.057 219.208 259.592 216.952 Q262.161 214.695 262.161 210.667 Q262.161 206.639 259.592 204.382 Q257.057 202.125 252.543 202.125 Q247.994 202.125 245.46 204.382 Q242.96 206.639 242.96 210.667 Z" fill="#000000" fill-rule="nonzero" fill-opacity="1" /><path clip-path="url(#clip530)" d="M115.022 1229.37 L24.9859 1229.37 Q22.1284 1229.37 22.1284 1227.45 Q22.1284 1225.53 25.1265 1225.53 L114.788 1225.53 Q117.879 1225.53 117.879 1227.45 Q117.879 1229.37 115.022 1229.37 M115.022 1218.78 L25.6886 1218.78 Q22.1284 1218.78 22.1284 1216.86 Q22.1284 1214.94 25.1265 1214.94 L114.788 1214.94 Q117.879 1214.94 117.879 1216.86 Q117.879 1218.78 115.022 1218.78 Z" fill="#000000" fill-rule="nonzero" fill-opacity="1" /><path clip-path="url(#clip530)" d="M29.5299 1115.39 Q31.4505 1115.39 31.4505 1116.98 Q31.5442 1119.79 32.1064 1121.71 Q32.6217 1123.63 33.6522 1124.76 Q34.6828 1125.84 35.8071 1126.45 Q36.8845 1127.01 38.5241 1127.38 L72.5804 1135.91 Q82.1836 1138.34 89.1634 1146.21 Q96.0965 1154.08 96.0965 1163.03 Q96.0965 1168.14 93.9885 1172.4 Q91.8804 1176.62 87.6176 1179.24 Q83.3547 1181.86 77.6864 1181.86 Q74.9694 1181.86 72.1119 1181.16 L48.4084 1175.35 L39.9763 1173.2 Q33.7459 1171.6 33.1838 1171.6 Q32.2937 1171.6 32.0595 1172.17 Q31.7785 1172.68 31.6379 1174.18 L31.4505 1177.83 Q31.4505 1178.96 31.4037 1179.43 Q31.3568 1179.85 31.1226 1180.18 Q30.8884 1180.5 30.3731 1180.5 Q29.7173 1180.5 29.2957 1180.36 Q28.8272 1180.18 28.6867 1179.85 Q28.5462 1179.52 28.4993 1179.29 Q28.4525 1179.05 28.4525 1178.68 L28.7335 1166.31 L28.4525 1154.04 Q28.4525 1152.68 29.5299 1152.68 Q30.8884 1152.68 31.1695 1153.29 Q31.4505 1153.9 31.4505 1155.96 Q31.4505 1159.47 31.919 1161.06 Q32.3406 1162.61 33.0901 1163.08 Q33.7928 1163.5 35.854 1164.02 L73.1893 1173.34 Q75.0631 1173.81 76.9369 1174.09 Q78.7639 1174.32 79.7008 1174.32 L80.6377 1174.37 Q86.587 1174.37 89.8661 1171.09 Q93.1453 1167.76 93.1453 1162.66 Q93.1453 1155.16 87.196 1148.18 Q81.2467 1141.15 71.9245 1138.77 L37.6809 1130.15 Q36.8377 1129.87 35.6666 1129.87 Q33.7928 1129.87 32.6685 1131.27 Q31.4974 1132.63 31.4505 1136.38 Q31.4505 1138.11 30.3731 1138.11 Q29.4831 1138.11 29.0614 1137.78 Q28.593 1137.41 28.5462 1137.13 Q28.4525 1136.8 28.4525 1136.38 Q28.4525 1134.78 28.593 1131.41 Q28.7335 1128.04 28.7335 1126.4 Q28.7335 1124.76 28.593 1121.48 Q28.4525 1118.2 28.4525 1116.61 Q28.4525 1116.05 28.7335 1115.77 Q28.9678 1115.44 29.2488 1115.39 L29.5299 1115.39 Z" fill="#000000" fill-rule="nonzero" fill-opacity="1" /><path clip-path="url(#clip530)" d="M103.284 1105.8 Q102.137 1105.8 101.383 1104.25 L96.9557 1094.91 L92.5288 1104.39 Q91.873 1105.8 90.7253 1105.8 Q90.0695 1105.8 89.4792 1105.27 Q88.8562 1104.71 88.8562 1103.99 Q88.8562 1103.47 89.5776 1102.52 L95.6112 1094.19 Q84.5277 1095.2 84.1998 1095.17 Q83.544 1095.17 83.0521 1094.68 Q82.5274 1094.19 82.5274 1093.37 Q82.5274 1092.71 83.0193 1092.19 Q83.4784 1091.63 84.1998 1091.63 L95.6112 1092.61 L90.1023 1085.17 Q88.8234 1083.43 88.8562 1082.81 Q88.8562 1082.05 89.4464 1081.53 Q90.0367 1081 90.7253 1081 Q91.873 1081 92.5944 1082.55 L97.0212 1091.89 L101.481 1082.41 Q102.137 1081 103.284 1081 Q103.94 1081 104.563 1081.56 Q105.154 1082.09 105.154 1082.81 Q105.154 1083.2 104.76 1083.89 Q104.694 1084.02 103.645 1085.43 Q102.596 1086.84 100.989 1089.04 Q99.3822 1091.2 98.3657 1092.61 Q109.449 1091.6 109.777 1091.63 Q110.433 1091.63 110.958 1092.12 Q111.482 1092.61 111.482 1093.43 Q111.482 1094.09 111.023 1094.65 Q110.531 1095.17 109.777 1095.17 L98.3657 1094.19 L105.154 1103.57 Q105.154 1104.58 104.662 1105.14 Q104.137 1105.66 103.842 1105.73 Q103.547 1105.8 103.284 1105.8 Z" fill="#000000" fill-rule="nonzero" fill-opacity="1" /><path clip-path="url(#clip530)" d="M29.5299 995.827 Q31.4505 995.827 31.4505 997.419 Q31.5442 1000.23 32.1064 1002.15 Q32.6217 1004.07 33.6522 1005.2 Q34.6828 1006.27 35.8071 1006.88 Q36.8845 1007.44 38.5241 1007.82 L72.5804 1016.34 Q82.1836 1018.78 89.1634 1026.65 Q96.0965 1034.52 96.0965 1043.47 Q96.0965 1048.57 93.9885 1052.84 Q91.8804 1057.05 87.6176 1059.68 Q83.3547 1062.3 77.6864 1062.3 Q74.9694 1062.3 72.1119 1061.6 L48.4084 1055.79 L39.9763 1053.63 Q33.7459 1052.04 33.1838 1052.04 Q32.2937 1052.04 32.0595 1052.6 Q31.7785 1053.12 31.6379 1054.62 L31.4505 1058.27 Q31.4505 1059.4 31.4037 1059.86 Q31.3568 1060.29 31.1226 1060.61 Q30.8884 1060.94 30.3731 1060.94 Q29.7173 1060.94 29.2957 1060.8 Q28.8272 1060.61 28.6867 1060.29 Q28.5462 1059.96 28.4993 1059.72 Q28.4525 1059.49 28.4525 1059.11 L28.7335 1046.75 L28.4525 1034.47 Q28.4525 1033.12 29.5299 1033.12 Q30.8884 1033.12 31.1695 1033.72 Q31.4505 1034.33 31.4505 1036.39 Q31.4505 1039.91 31.919 1041.5 Q32.3406 1043.05 33.0901 1043.51 Q33.7928 1043.94 35.854 1044.45 L73.1893 1053.77 Q75.0631 1054.24 76.9369 1054.52 Q78.7639 1054.76 79.7008 1054.76 L80.6377 1054.8 Q86.587 1054.8 89.8661 1051.53 Q93.1453 1048.2 93.1453 1043.09 Q93.1453 1035.6 87.196 1028.62 Q81.2467 1021.59 71.9245 1019.2 L37.6809 1010.58 Q36.8377 1010.3 35.6666 1010.3 Q33.7928 1010.3 32.6685 1011.71 Q31.4974 1013.07 31.4505 1016.81 Q31.4505 1018.55 30.3731 1018.55 Q29.4831 1018.55 29.0614 1018.22 Q28.593 1017.84 28.5462 1017.56 Q28.4525 1017.23 28.4525 1016.81 Q28.4525 1015.22 28.593 1011.85 Q28.7335 1008.47 28.7335 1006.84 Q28.7335 1005.2 28.593 1001.92 Q28.4525 998.637 28.4525 997.045 Q28.4525 996.482 28.7335 996.201 Q28.9678 995.874 29.2488 995.827 L29.5299 995.827 Z" fill="#000000" fill-rule="nonzero" fill-opacity="1" /><path clip-path="url(#clip530)" d="M103.284 986.231 Q102.137 986.231 101.383 984.69 L96.9557 975.345 L92.5288 984.821 Q91.873 986.231 90.7253 986.231 Q90.0695 986.231 89.4792 985.707 Q88.8562 985.149 88.8562 984.428 Q88.8562 983.903 89.5776 982.952 L95.6112 974.623 Q84.5277 975.64 84.1998 975.607 Q83.544 975.607 83.0521 975.115 Q82.5274 974.623 82.5274 973.803 Q82.5274 973.148 83.0193 972.623 Q83.4784 972.066 84.1998 972.066 L95.6112 973.049 L90.1023 965.606 Q88.8234 963.868 88.8562 963.245 Q88.8562 962.49 89.4464 961.966 Q90.0367 961.441 90.7253 961.441 Q91.873 961.441 92.5944 962.982 L97.0212 972.328 L101.481 962.851 Q102.137 961.441 103.284 961.441 Q103.94 961.441 104.563 961.999 Q105.154 962.523 105.154 963.245 Q105.154 963.638 104.76 964.327 Q104.694 964.458 103.645 965.868 Q102.596 967.278 100.989 969.475 Q99.3822 971.639 98.3657 973.049 Q109.449 972.033 109.777 972.066 Q110.433 972.066 110.958 972.557 Q111.482 973.049 111.482 973.869 Q111.482 974.525 111.023 975.082 Q110.531 975.607 109.777 975.607 L98.3657 974.623 L105.154 984.002 Q105.154 985.018 104.662 985.576 Q104.137 986.1 103.842 986.166 Q103.547 986.231 103.284 986.231 Z" fill="#000000" fill-rule="nonzero" fill-opacity="1" /><path clip-path="url(#clip530)" d="M-1.34896 980.909 Q-3.02133 980.909 -3.70995 979.892 Q-4.43136 978.876 -4.43136 977.793 Q-4.43136 976.449 -3.61157 975.596 Q-2.82458 974.711 -1.34896 974.711 Q-0.693135 974.711 -0.332429 974.777 L19.9327 977.006 L19.9327 978.548 L-0.332429 980.843 Q-0.693135 980.909 -1.34896 980.909 Z" fill="#000000" fill-rule="nonzero" fill-opacity="1" /><path clip-path="url(#clip530)" d="M68.6454 842.548 Q69.2075 841.986 70.0039 841.986 Q70.8002 841.986 71.3624 842.548 Q71.9245 843.11 71.9245 843.906 L71.9245 903.961 Q71.9245 904.758 71.3624 905.32 Q70.8002 905.882 70.0039 905.882 Q69.2075 905.882 68.6454 905.32 Q68.0832 904.758 68.0832 903.961 L68.0832 843.906 Q68.0832 843.11 68.6454 842.548 Z" fill="#000000" fill-rule="nonzero" fill-opacity="1" /><path clip-path="url(#clip530)" d="M29.5299 738.889 Q31.4505 738.889 31.4505 740.482 Q31.5442 743.292 32.1064 745.213 Q32.6217 747.134 33.6522 748.258 Q34.6828 749.335 35.8071 749.944 Q36.8845 750.507 38.5241 750.881 L72.5804 759.407 Q82.1836 761.843 89.1634 769.713 Q96.0965 777.583 96.0965 786.53 Q96.0965 791.636 93.9885 795.899 Q91.8804 800.115 87.6176 802.739 Q83.3547 805.362 77.6864 805.362 Q74.9694 805.362 72.1119 804.659 L48.4084 798.85 L39.9763 796.696 Q33.7459 795.103 33.1838 795.103 Q32.2937 795.103 32.0595 795.665 Q31.7785 796.18 31.6379 797.679 L31.4505 801.333 Q31.4505 802.458 31.4037 802.926 Q31.3568 803.348 31.1226 803.675 Q30.8884 804.003 30.3731 804.003 Q29.7173 804.003 29.2957 803.863 Q28.8272 803.675 28.6867 803.348 Q28.5462 803.02 28.4993 802.785 Q28.4525 802.551 28.4525 802.176 L28.7335 789.809 L28.4525 777.536 Q28.4525 776.178 29.5299 776.178 Q30.8884 776.178 31.1695 776.787 Q31.4505 777.395 31.4505 779.457 Q31.4505 782.97 31.919 784.563 Q32.3406 786.109 33.0901 786.577 Q33.7928 786.999 35.854 787.514 L73.1893 796.836 Q75.0631 797.305 76.9369 797.586 Q78.7639 797.82 79.7008 797.82 L80.6377 797.867 Q86.587 797.867 89.8661 794.588 Q93.1453 791.262 93.1453 786.155 Q93.1453 778.66 87.196 771.68 Q81.2467 764.654 71.9245 762.265 L37.6809 753.645 Q36.8377 753.364 35.6666 753.364 Q33.7928 753.364 32.6685 754.769 Q31.4974 756.128 31.4505 759.875 Q31.4505 761.609 30.3731 761.609 Q29.4831 761.609 29.0614 761.281 Q28.593 760.906 28.5462 760.625 Q28.4525 760.297 28.4525 759.875 Q28.4525 758.283 28.593 754.91 Q28.7335 751.537 28.7335 749.898 Q28.7335 748.258 28.593 744.979 Q28.4525 741.7 28.4525 740.107 Q28.4525 739.545 28.7335 739.264 Q28.9678 738.936 29.2488 738.889 L29.5299 738.889 Z" fill="#000000" fill-rule="nonzero" fill-opacity="1" /><path clip-path="url(#clip530)" d="M29.5299 663.278 Q31.4505 663.278 31.4505 664.87 Q31.5442 667.681 32.1064 669.602 Q32.6217 671.522 33.6522 672.647 Q34.6828 673.724 35.8071 674.333 Q36.8845 674.895 38.5241 675.27 L72.5804 683.796 Q82.1836 686.232 89.1634 694.102 Q96.0965 701.972 96.0965 710.919 Q96.0965 716.025 93.9885 720.288 Q91.8804 724.504 87.6176 727.127 Q83.3547 729.751 77.6864 729.751 Q74.9694 729.751 72.1119 729.048 L48.4084 723.239 L39.9763 721.084 Q33.7459 719.492 33.1838 719.492 Q32.2937 719.492 32.0595 720.054 Q31.7785 720.569 31.6379 722.068 L31.4505 725.722 Q31.4505 726.846 31.4037 727.315 Q31.3568 727.736 31.1226 728.064 Q30.8884 728.392 30.3731 728.392 Q29.7173 728.392 29.2957 728.252 Q28.8272 728.064 28.6867 727.736 Q28.5462 727.408 28.4993 727.174 Q28.4525 726.94 28.4525 726.565 L28.7335 714.198 L28.4525 701.925 Q28.4525 700.566 29.5299 700.566 Q30.8884 700.566 31.1695 701.175 Q31.4505 701.784 31.4505 703.845 Q31.4505 707.359 31.919 708.951 Q32.3406 710.497 33.0901 710.966 Q33.7928 711.387 35.854 711.903 L73.1893 721.225 Q75.0631 721.693 76.9369 721.974 Q78.7639 722.209 79.7008 722.209 L80.6377 722.255 Q86.587 722.255 89.8661 718.976 Q93.1453 715.65 93.1453 710.544 Q93.1453 703.049 87.196 696.069 Q81.2467 689.042 71.9245 686.653 L37.6809 678.034 Q36.8377 677.753 35.6666 677.753 Q33.7928 677.753 32.6685 679.158 Q31.4974 680.517 31.4505 684.264 Q31.4505 685.997 30.3731 685.997 Q29.4831 685.997 29.0614 685.67 Q28.593 685.295 28.5462 685.014 Q28.4525 684.686 28.4525 684.264 Q28.4525 682.671 28.593 679.299 Q28.7335 675.926 28.7335 674.286 Q28.7335 672.647 28.593 669.368 Q28.4525 666.088 28.4525 664.496 Q28.4525 663.934 28.7335 663.652 Q28.9678 663.325 29.2488 663.278 L29.5299 663.278 Z" fill="#000000" fill-rule="nonzero" fill-opacity="1" /><path clip-path="url(#clip530)" d="M30.2794 657.287 Q27.8903 657.287 26.9066 655.835 Q25.876 654.383 25.876 652.837 Q25.876 650.916 27.0471 649.698 Q28.1714 648.434 30.2794 648.434 Q31.2163 648.434 31.7316 648.527 L60.6817 651.713 L60.6817 653.914 L31.7316 657.194 Q31.2163 657.287 30.2794 657.287 Z" fill="#000000" fill-rule="nonzero" fill-opacity="1" /><path clip-path="url(#clip530)" d="M115.022 630.889 L24.9859 630.889 Q22.1284 630.889 22.1284 628.968 Q22.1284 627.048 25.1265 627.048 L114.788 627.048 Q117.879 627.048 117.879 628.968 Q117.879 630.889 115.022 630.889 M115.022 620.302 L25.6886 620.302 Q22.1284 620.302 22.1284 618.381 Q22.1284 616.461 25.1265 616.461 L114.788 616.461 Q117.879 616.461 117.879 618.381 Q117.879 620.302 115.022 620.302 Z" fill="#000000" fill-rule="nonzero" fill-opacity="1" /><path clip-path="url(#clip530)" d="M100.945 558.689 L112.553 560.033 Q113.603 560.132 113.93 560.296 Q114.226 560.46 114.226 560.984 Q114.226 561.771 113.439 561.771 Q113.111 561.771 112.225 561.64 Q110.422 561.443 108.585 561.443 Q106.52 561.443 105.241 561.837 Q103.929 562.198 102.978 563.247 Q102.027 564.296 101.634 566.231 Q101.207 568.166 101.207 571.248 L101.207 580.102 Q101.207 582.266 101.601 582.791 Q101.994 583.283 103.831 583.742 L120.882 588.037 L120.882 581.938 Q120.882 577.675 119.636 576.003 Q118.39 574.33 114.422 573.281 Q113.799 573.117 113.57 573.052 Q113.307 572.953 113.176 572.789 Q113.012 572.593 113.012 572.265 Q113.012 571.969 113.209 571.773 Q113.373 571.576 113.57 571.51 L113.767 571.445 Q114.094 571.445 114.849 571.642 L129.408 575.347 Q130.392 575.609 130.621 575.773 Q130.818 575.904 130.818 576.364 Q130.818 576.691 130.589 576.921 Q130.359 577.151 129.998 577.151 Q129.605 577.085 129.277 576.954 Q127.277 576.495 125.998 576.495 Q125.178 576.495 124.686 576.659 Q124.194 576.823 123.768 577.38 Q123.342 577.938 123.145 579.085 Q122.948 580.233 122.948 582.069 L122.948 588.562 L139.672 592.726 L141.213 593.022 Q141.902 593.022 142.164 592.661 Q142.426 592.267 142.557 590.857 Q142.721 588.759 142.721 587.381 Q142.721 585.676 142.787 585.48 Q142.984 585.086 143.508 585.086 Q144.099 585.086 144.427 585.348 Q144.722 585.611 144.754 585.84 Q144.787 586.07 144.787 586.496 L144.59 596.497 L144.787 605.351 Q144.787 606.368 143.967 606.368 Q143.344 606.368 143.082 606.105 Q142.787 605.843 142.754 605.548 Q142.721 605.253 142.721 604.499 Q142.721 602.859 142.623 601.875 Q142.525 600.892 142.393 600.268 Q142.229 599.613 141.77 599.285 Q141.311 598.924 140.918 598.76 Q140.492 598.596 139.541 598.367 L104.027 589.513 Q102.814 589.185 102.421 589.185 Q101.994 589.185 101.732 589.48 Q101.47 589.742 101.371 590.464 Q101.24 591.185 101.24 591.775 Q101.207 592.333 101.207 593.546 Q101.207 594.333 101.175 594.661 Q101.142 594.956 100.978 595.186 Q100.814 595.415 100.453 595.415 Q99.5351 595.415 99.3383 595.022 Q99.1088 594.596 99.1088 593.415 L99.1088 560.492 Q99.1088 559.181 99.4039 558.886 Q99.6662 558.558 100.945 558.689 Z" fill="#000000" fill-rule="nonzero" fill-opacity="1" /><path clip-path="url(#clip530)" d="M116.615 548.779 Q116.146 548.779 115.116 548.404 L24.6112 514.536 Q24.5175 514.536 24.0022 514.301 Q23.4869 514.067 23.159 513.927 Q22.7842 513.786 22.5032 513.505 Q22.2221 513.177 22.2221 512.802 Q22.2221 511.865 23.3932 511.865 Q23.4869 511.865 24.6112 512.147 L115.209 546.109 Q116.849 546.671 117.317 547.046 Q117.786 547.374 117.786 547.936 Q117.786 548.779 116.615 548.779 Z" fill="#000000" fill-rule="nonzero" fill-opacity="1" /><path clip-path="url(#clip530)" d="M115.022 501.271 L24.9859 501.271 Q22.1284 501.271 22.1284 499.351 Q22.1284 497.43 25.1265 497.43 L114.788 497.43 Q117.879 497.43 117.879 499.351 Q117.879 501.271 115.022 501.271 M115.022 490.684 L25.6886 490.684 Q22.1284 490.684 22.1284 488.764 Q22.1284 486.843 25.1265 486.843 L114.788 486.843 Q117.879 486.843 117.879 488.764 Q117.879 490.684 115.022 490.684 Z" fill="#000000" fill-rule="nonzero" fill-opacity="1" /><path clip-path="url(#clip530)" d="M29.5299 392.283 Q31.4505 392.283 31.4505 393.875 Q31.5442 396.686 32.1064 398.607 Q32.6217 400.527 33.6522 401.652 Q34.6828 402.729 35.8071 403.338 Q36.8845 403.9 38.5241 404.275 L72.5804 412.801 Q82.1836 415.237 89.1634 423.107 Q96.0965 430.977 96.0965 439.924 Q96.0965 445.03 93.9885 449.293 Q91.8804 453.509 87.6176 456.132 Q83.3547 458.756 77.6864 458.756 Q74.9694 458.756 72.1119 458.053 L48.4084 452.244 L39.9763 450.089 Q33.7459 448.497 33.1838 448.497 Q32.2937 448.497 32.0595 449.059 Q31.7785 449.574 31.6379 451.073 L31.4505 454.727 Q31.4505 455.851 31.4037 456.32 Q31.3568 456.741 31.1226 457.069 Q30.8884 457.397 30.3731 457.397 Q29.7173 457.397 29.2957 457.257 Q28.8272 457.069 28.6867 456.741 Q28.5462 456.413 28.4993 456.179 Q28.4525 455.945 28.4525 455.57 L28.7335 443.203 L28.4525 430.93 Q28.4525 429.571 29.5299 429.571 Q30.8884 429.571 31.1695 430.18 Q31.4505 430.789 31.4505 432.85 Q31.4505 436.364 31.919 437.956 Q32.3406 439.502 33.0901 439.971 Q33.7928 440.392 35.854 440.908 L73.1893 450.23 Q75.0631 450.698 76.9369 450.979 Q78.7639 451.214 79.7008 451.214 L80.6377 451.26 Q86.587 451.26 89.8661 447.981 Q93.1453 444.655 93.1453 439.549 Q93.1453 432.054 87.196 425.074 Q81.2467 418.047 71.9245 415.658 L37.6809 407.039 Q36.8377 406.758 35.6666 406.758 Q33.7928 406.758 32.6685 408.163 Q31.4974 409.522 31.4505 413.269 Q31.4505 415.002 30.3731 415.002 Q29.4831 415.002 29.0614 414.675 Q28.593 414.3 28.5462 414.019 Q28.4525 413.691 28.4525 413.269 Q28.4525 411.676 28.593 408.304 Q28.7335 404.931 28.7335 403.291 Q28.7335 401.652 28.593 398.373 Q28.4525 395.093 28.4525 393.501 Q28.4525 392.939 28.7335 392.657 Q28.9678 392.33 29.2488 392.283 L29.5299 392.283 Z" fill="#000000" fill-rule="nonzero" fill-opacity="1" /><path clip-path="url(#clip530)" d="M29.5299 316.671 Q31.4505 316.671 31.4505 318.264 Q31.5442 321.075 32.1064 322.995 Q32.6217 324.916 33.6522 326.04 Q34.6828 327.118 35.8071 327.727 Q36.8845 328.289 38.5241 328.664 L72.5804 337.189 Q82.1836 339.625 89.1634 347.495 Q96.0965 355.365 96.0965 364.313 Q96.0965 369.419 93.9885 373.682 Q91.8804 377.898 87.6176 380.521 Q83.3547 383.144 77.6864 383.144 Q74.9694 383.144 72.1119 382.442 L48.4084 376.633 L39.9763 374.478 Q33.7459 372.885 33.1838 372.885 Q32.2937 372.885 32.0595 373.447 Q31.7785 373.963 31.6379 375.462 L31.4505 379.116 Q31.4505 380.24 31.4037 380.708 Q31.3568 381.13 31.1226 381.458 Q30.8884 381.786 30.3731 381.786 Q29.7173 381.786 29.2957 381.645 Q28.8272 381.458 28.6867 381.13 Q28.5462 380.802 28.4993 380.568 Q28.4525 380.334 28.4525 379.959 L28.7335 367.592 L28.4525 355.318 Q28.4525 353.96 29.5299 353.96 Q30.8884 353.96 31.1695 354.569 Q31.4505 355.178 31.4505 357.239 Q31.4505 360.752 31.919 362.345 Q32.3406 363.891 33.0901 364.36 Q33.7928 364.781 35.854 365.296 L73.1893 374.619 Q75.0631 375.087 76.9369 375.368 Q78.7639 375.602 79.7008 375.602 L80.6377 375.649 Q86.587 375.649 89.8661 372.37 Q93.1453 369.044 93.1453 363.938 Q93.1453 356.443 87.196 349.463 Q81.2467 342.436 71.9245 340.047 L37.6809 331.428 Q36.8377 331.146 35.6666 331.146 Q33.7928 331.146 32.6685 332.552 Q31.4974 333.91 31.4505 337.658 Q31.4505 339.391 30.3731 339.391 Q29.4831 339.391 29.0614 339.063 Q28.593 338.689 28.5462 338.407 Q28.4525 338.08 28.4525 337.658 Q28.4525 336.065 28.593 332.692 Q28.7335 329.32 28.7335 327.68 Q28.7335 326.04 28.593 322.761 Q28.4525 319.482 28.4525 317.889 Q28.4525 317.327 28.7335 317.046 Q28.9678 316.718 29.2488 316.671 L29.5299 316.671 Z" fill="#000000" fill-rule="nonzero" fill-opacity="1" /><path clip-path="url(#clip530)" d="M30.2794 310.681 Q27.8903 310.681 26.9066 309.229 Q25.876 307.777 25.876 306.231 Q25.876 304.31 27.0471 303.092 Q28.1714 301.827 30.2794 301.827 Q31.2163 301.827 31.7316 301.921 L60.6817 305.106 L60.6817 307.308 L31.7316 310.587 Q31.2163 310.681 30.2794 310.681 Z" fill="#000000" fill-rule="nonzero" fill-opacity="1" /><path clip-path="url(#clip530)" d="M115.022 284.283 L24.9859 284.283 Q22.1284 284.283 22.1284 282.362 Q22.1284 280.441 25.1265 280.441 L114.788 280.441 Q117.879 280.441 117.879 282.362 Q117.879 284.283 115.022 284.283 M115.022 273.696 L25.6886 273.696 Q22.1284 273.696 22.1284 271.775 Q22.1284 269.854 25.1265 269.854 L114.788 269.854 Q117.879 269.854 117.879 271.775 Q117.879 273.696 115.022 273.696 Z" fill="#000000" fill-rule="nonzero" fill-opacity="1" /><path clip-path="url(#clip530)" d="M100.945 212.083 L112.553 213.427 Q113.603 213.525 113.93 213.689 Q114.226 213.853 114.226 214.378 Q114.226 215.165 113.439 215.165 Q113.111 215.165 112.225 215.034 Q110.422 214.837 108.585 214.837 Q106.52 214.837 105.241 215.231 Q103.929 215.591 102.978 216.641 Q102.027 217.69 101.634 219.625 Q101.207 221.559 101.207 224.642 L101.207 233.495 Q101.207 235.66 101.601 236.184 Q101.994 236.676 103.831 237.135 L120.882 241.431 L120.882 235.332 Q120.882 231.069 119.636 229.397 Q118.39 227.724 114.422 226.675 Q113.799 226.511 113.57 226.445 Q113.307 226.347 113.176 226.183 Q113.012 225.986 113.012 225.658 Q113.012 225.363 113.209 225.166 Q113.373 224.97 113.57 224.904 L113.767 224.839 Q114.094 224.839 114.849 225.035 L129.408 228.741 Q130.392 229.003 130.621 229.167 Q130.818 229.298 130.818 229.757 Q130.818 230.085 130.589 230.315 Q130.359 230.544 129.998 230.544 Q129.605 230.479 129.277 230.347 Q127.277 229.888 125.998 229.888 Q125.178 229.888 124.686 230.052 Q124.194 230.216 123.768 230.774 Q123.342 231.331 123.145 232.479 Q122.948 233.627 122.948 235.463 L122.948 241.956 L139.672 246.12 L141.213 246.415 Q141.902 246.415 142.164 246.055 Q142.426 245.661 142.557 244.251 Q142.721 242.152 142.721 240.775 Q142.721 239.07 142.787 238.873 Q142.984 238.48 143.508 238.48 Q144.099 238.48 144.427 238.742 Q144.722 239.004 144.754 239.234 Q144.787 239.464 144.787 239.89 L144.59 249.891 L144.787 258.745 Q144.787 259.761 143.967 259.761 Q143.344 259.761 143.082 259.499 Q142.787 259.237 142.754 258.942 Q142.721 258.646 142.721 257.892 Q142.721 256.253 142.623 255.269 Q142.525 254.285 142.393 253.662 Q142.229 253.006 141.77 252.678 Q141.311 252.318 140.918 252.154 Q140.492 251.99 139.541 251.76 L104.027 242.907 Q102.814 242.579 102.421 242.579 Q101.994 242.579 101.732 242.874 Q101.47 243.136 101.371 243.858 Q101.24 244.579 101.24 245.169 Q101.207 245.727 101.207 246.94 Q101.207 247.727 101.175 248.055 Q101.142 248.35 100.978 248.58 Q100.814 248.809 100.453 248.809 Q99.5351 248.809 99.3383 248.416 Q99.1088 247.989 99.1088 246.809 L99.1088 213.886 Q99.1088 212.575 99.4039 212.279 Q99.6662 211.952 100.945 212.083 Z" fill="#000000" fill-rule="nonzero" fill-opacity="1" /><path clip-path="url(#clip532)" d="M-1740.11 214.248 L4399.19 214.248 L4399.19 85.0853 L-1740.11 85.0853  Z" fill="#3da44d" fill-rule="evenodd" fill-opacity="0.3"/>
<polyline clip-path="url(#clip532)" style="stroke:#3da44d; stroke-linecap:round; stroke-linejoin:round; stroke-width:12; stroke-opacity:1; fill:none" points="-1740.11,149.667 4399.19,149.667 "/>
<path clip-path="url(#clip532)" d="M364.239 214.248 L460.769 1346.46 L557.299 1343.19 L653.829 1343.19 L750.359 1343.19 L1136.48 1343.19 L1522.6 1343.19 L1908.72 1343.19 L2294.84 1343.19 L2294.84 1214.03 L1908.72 1214.03 L1522.6 1214.03 L1136.48 1214.03 L750.359 1214.03 L653.829 1214.03 L557.299 1214.03 L460.769 1217.3 L364.239 85.0853  Z" fill="#f05f73" fill-rule="evenodd" fill-opacity="0.3"/>
<polyline clip-path="url(#clip532)" style="stroke:#f05f73; stroke-linecap:round; stroke-linejoin:round; stroke-width:12; stroke-opacity:1; fill:none" points="364.239,149.667 460.769,1281.88 557.299,1278.61 653.829,1278.61 750.359,1278.61 1136.48,1278.61 1522.6,1278.61 1908.72,1278.61 2294.84,1278.61 "/>
<path clip-path="url(#clip532)" d="M364.239 165.667 L352.927 160.979 L348.239 149.667 L352.927 138.355 L364.239 133.667 L375.551 138.355 L380.239 149.667 L375.551 160.979 Z" fill="#f05f73" fill-rule="evenodd" fill-opacity="1" stroke="#000000" stroke-opacity="1" stroke-width="3.2"/>
<path clip-path="url(#clip532)" d="M460.769 1297.88 L449.457 1293.19 L444.769 1281.88 L449.457 1270.57 L460.769 1265.88 L472.081 1270.57 L476.769 1281.88 L472.081 1293.19 Z" fill="#f05f73" fill-rule="evenodd" fill-opacity="1" stroke="#000000" stroke-opacity="1" stroke-width="3.2"/>
<path clip-path="url(#clip532)" d="M557.299 1294.61 L545.987 1289.92 L541.299 1278.61 L545.987 1267.3 L557.299 1262.61 L568.611 1267.3 L573.299 1278.61 L568.611 1289.92 Z" fill="#f05f73" fill-rule="evenodd" fill-opacity="1" stroke="#000000" stroke-opacity="1" stroke-width="3.2"/>
<path clip-path="url(#clip532)" d="M653.829 1294.61 L642.517 1289.92 L637.829 1278.61 L642.517 1267.3 L653.829 1262.61 L665.141 1267.3 L669.829 1278.61 L665.141 1289.92 Z" fill="#f05f73" fill-rule="evenodd" fill-opacity="1" stroke="#000000" stroke-opacity="1" stroke-width="3.2"/>
<path clip-path="url(#clip532)" d="M750.359 1294.61 L739.047 1289.92 L734.359 1278.61 L739.047 1267.3 L750.359 1262.61 L761.671 1267.3 L766.359 1278.61 L761.671 1289.92 Z" fill="#f05f73" fill-rule="evenodd" fill-opacity="1" stroke="#000000" stroke-opacity="1" stroke-width="3.2"/>
<path clip-path="url(#clip532)" d="M1136.48 1294.61 L1125.17 1289.92 L1120.48 1278.61 L1125.17 1267.3 L1136.48 1262.61 L1147.79 1267.3 L1152.48 1278.61 L1147.79 1289.92 Z" fill="#f05f73" fill-rule="evenodd" fill-opacity="1" stroke="#000000" stroke-opacity="1" stroke-width="3.2"/>
<path clip-path="url(#clip532)" d="M1522.6 1294.61 L1511.29 1289.92 L1506.6 1278.61 L1511.29 1267.3 L1522.6 1262.61 L1533.91 1267.3 L1538.6 1278.61 L1533.91 1289.92 Z" fill="#f05f73" fill-rule="evenodd" fill-opacity="1" stroke="#000000" stroke-opacity="1" stroke-width="3.2"/>
<path clip-path="url(#clip532)" d="M1908.72 1294.61 L1897.41 1289.92 L1892.72 1278.61 L1897.41 1267.3 L1908.72 1262.61 L1920.03 1267.3 L1924.72 1278.61 L1920.03 1289.92 Z" fill="#f05f73" fill-rule="evenodd" fill-opacity="1" stroke="#000000" stroke-opacity="1" stroke-width="3.2"/>
<path clip-path="url(#clip532)" d="M2294.84 1294.61 L2283.53 1289.92 L2278.84 1278.61 L2283.53 1267.3 L2294.84 1262.61 L2306.15 1267.3 L2310.84 1278.61 L2306.15 1289.92 Z" fill="#f05f73" fill-rule="evenodd" fill-opacity="1" stroke="#000000" stroke-opacity="1" stroke-width="3.2"/>
<path clip-path="url(#clip532)" d="M364.239 214.248 L460.769 241.073 L557.299 305.171 L653.829 571.173 L750.359 825.579 L1136.48 1165.12 L1522.6 1199.87 L1908.72 1216 L2294.84 1225.47 L2294.84 1096.31 L1908.72 1086.84 L1522.6 1070.71 L1136.48 1035.95 L750.359 696.417 L653.829 442.01 L557.299 176.008 L460.769 111.911 L364.239 85.0853  Z" fill="#009af9" fill-rule="evenodd" fill-opacity="0.3"/>
<polyline clip-path="url(#clip532)" style="stroke:#009af9; stroke-linecap:round; stroke-linejoin:round; stroke-width:12; stroke-opacity:1; fill:none" points="364.239,149.667 460.769,176.492 557.299,240.589 653.829,506.591 750.359,760.998 1136.48,1100.54 1522.6,1135.29 1908.72,1151.42 2294.84,1160.89 "/>
<line clip-path="url(#clip532)" x1="364.239" y1="149.667" x2="348.239" y2="133.667" style="stroke:#009af9; stroke-width:12; stroke-opacity:1"/>
<line clip-path="url(#clip532)" x1="364.239" y1="149.667" x2="348.239" y2="165.667" style="stroke:#009af9; stroke-width:12; stroke-opacity:1"/>
<line clip-path="url(#clip532)" x1="364.239" y1="149.667" x2="380.239" y2="165.667" style="stroke:#009af9; stroke-width:12; stroke-opacity:1"/>
<line clip-path="url(#clip532)" x1="364.239" y1="149.667" x2="380.239" y2="133.667" style="stroke:#009af9; stroke-width:12; stroke-opacity:1"/>
<line clip-path="url(#clip532)" x1="460.769" y1="176.492" x2="444.769" y2="160.492" style="stroke:#009af9; stroke-width:12; stroke-opacity:1"/>
<line clip-path="url(#clip532)" x1="460.769" y1="176.492" x2="444.769" y2="192.492" style="stroke:#009af9; stroke-width:12; stroke-opacity:1"/>
<line clip-path="url(#clip532)" x1="460.769" y1="176.492" x2="476.769" y2="192.492" style="stroke:#009af9; stroke-width:12; stroke-opacity:1"/>
<line clip-path="url(#clip532)" x1="460.769" y1="176.492" x2="476.769" y2="160.492" style="stroke:#009af9; stroke-width:12; stroke-opacity:1"/>
<line clip-path="url(#clip532)" x1="557.299" y1="240.589" x2="541.299" y2="224.589" style="stroke:#009af9; stroke-width:12; stroke-opacity:1"/>
<line clip-path="url(#clip532)" x1="557.299" y1="240.589" x2="541.299" y2="256.589" style="stroke:#009af9; stroke-width:12; stroke-opacity:1"/>
<line clip-path="url(#clip532)" x1="557.299" y1="240.589" x2="573.299" y2="256.589" style="stroke:#009af9; stroke-width:12; stroke-opacity:1"/>
<line clip-path="url(#clip532)" x1="557.299" y1="240.589" x2="573.299" y2="224.589" style="stroke:#009af9; stroke-width:12; stroke-opacity:1"/>
<line clip-path="url(#clip532)" x1="653.829" y1="506.591" x2="637.829" y2="490.591" style="stroke:#009af9; stroke-width:12; stroke-opacity:1"/>
<line clip-path="url(#clip532)" x1="653.829" y1="506.591" x2="637.829" y2="522.591" style="stroke:#009af9; stroke-width:12; stroke-opacity:1"/>
<line clip-path="url(#clip532)" x1="653.829" y1="506.591" x2="669.829" y2="522.591" style="stroke:#009af9; stroke-width:12; stroke-opacity:1"/>
<line clip-path="url(#clip532)" x1="653.829" y1="506.591" x2="669.829" y2="490.591" style="stroke:#009af9; stroke-width:12; stroke-opacity:1"/>
<line clip-path="url(#clip532)" x1="750.359" y1="760.998" x2="734.359" y2="744.998" style="stroke:#009af9; stroke-width:12; stroke-opacity:1"/>
<line clip-path="url(#clip532)" x1="750.359" y1="760.998" x2="734.359" y2="776.998" style="stroke:#009af9; stroke-width:12; stroke-opacity:1"/>
<line clip-path="url(#clip532)" x1="750.359" y1="760.998" x2="766.359" y2="776.998" style="stroke:#009af9; stroke-width:12; stroke-opacity:1"/>
<line clip-path="url(#clip532)" x1="750.359" y1="760.998" x2="766.359" y2="744.998" style="stroke:#009af9; stroke-width:12; stroke-opacity:1"/>
<line clip-path="url(#clip532)" x1="1136.48" y1="1100.54" x2="1120.48" y2="1084.54" style="stroke:#009af9; stroke-width:12; stroke-opacity:1"/>
<line clip-path="url(#clip532)" x1="1136.48" y1="1100.54" x2="1120.48" y2="1116.54" style="stroke:#009af9; stroke-width:12; stroke-opacity:1"/>
<line clip-path="url(#clip532)" x1="1136.48" y1="1100.54" x2="1152.48" y2="1116.54" style="stroke:#009af9; stroke-width:12; stroke-opacity:1"/>
<line clip-path="url(#clip532)" x1="1136.48" y1="1100.54" x2="1152.48" y2="1084.54" style="stroke:#009af9; stroke-width:12; stroke-opacity:1"/>
<line clip-path="url(#clip532)" x1="1522.6" y1="1135.29" x2="1506.6" y2="1119.29" style="stroke:#009af9; stroke-width:12; stroke-opacity:1"/>
<line clip-path="url(#clip532)" x1="1522.6" y1="1135.29" x2="1506.6" y2="1151.29" style="stroke:#009af9; stroke-width:12; stroke-opacity:1"/>
<line clip-path="url(#clip532)" x1="1522.6" y1="1135.29" x2="1538.6" y2="1151.29" style="stroke:#009af9; stroke-width:12; stroke-opacity:1"/>
<line clip-path="url(#clip532)" x1="1522.6" y1="1135.29" x2="1538.6" y2="1119.29" style="stroke:#009af9; stroke-width:12; stroke-opacity:1"/>
<line clip-path="url(#clip532)" x1="1908.72" y1="1151.42" x2="1892.72" y2="1135.42" style="stroke:#009af9; stroke-width:12; stroke-opacity:1"/>
<line clip-path="url(#clip532)" x1="1908.72" y1="1151.42" x2="1892.72" y2="1167.42" style="stroke:#009af9; stroke-width:12; stroke-opacity:1"/>
<line clip-path="url(#clip532)" x1="1908.72" y1="1151.42" x2="1924.72" y2="1167.42" style="stroke:#009af9; stroke-width:12; stroke-opacity:1"/>
<line clip-path="url(#clip532)" x1="1908.72" y1="1151.42" x2="1924.72" y2="1135.42" style="stroke:#009af9; stroke-width:12; stroke-opacity:1"/>
<line clip-path="url(#clip532)" x1="2294.84" y1="1160.89" x2="2278.84" y2="1144.89" style="stroke:#009af9; stroke-width:12; stroke-opacity:1"/>
<line clip-path="url(#clip532)" x1="2294.84" y1="1160.89" x2="2278.84" y2="1176.89" style="stroke:#009af9; stroke-width:12; stroke-opacity:1"/>
<line clip-path="url(#clip532)" x1="2294.84" y1="1160.89" x2="2310.84" y2="1176.89" style="stroke:#009af9; stroke-width:12; stroke-opacity:1"/>
<line clip-path="url(#clip532)" x1="2294.84" y1="1160.89" x2="2310.84" y2="1144.89" style="stroke:#009af9; stroke-width:12; stroke-opacity:1"/>
<path clip-path="url(#clip530)" d="M1399.28 876.98 L2284.54 876.98 L2284.54 565.94 L1399.28 565.94  Z" fill="#ffffff" fill-rule="evenodd" fill-opacity="1"/>
<polyline clip-path="url(#clip530)" style="stroke:#000000; stroke-linecap:round; stroke-linejoin:round; stroke-width:4; stroke-opacity:1; fill:none" points="1399.28,876.98 2284.54,876.98 2284.54,565.94 1399.28,565.94 1399.28,876.98 "/>
<polyline clip-path="url(#clip530)" style="stroke:#3da44d; stroke-linecap:round; stroke-linejoin:round; stroke-width:18; stroke-opacity:1; fill:none" points="1422.01,643.7 1558.44,643.7 "/>
<path clip-path="url(#clip530)" d="M1588.2 623.544 L1588.2 643.023 L1597.02 643.023 Q1601.91 643.023 1604.58 640.489 Q1607.26 637.954 1607.26 633.267 Q1607.26 628.614 1604.58 626.079 Q1601.91 623.544 1597.02 623.544 L1588.2 623.544 M1581.18 617.78 L1597.02 617.78 Q1605.73 617.78 1610.17 621.739 Q1614.65 625.662 1614.65 633.267 Q1614.65 640.94 1610.17 644.864 Q1605.73 648.787 1597.02 648.787 L1588.2 648.787 L1588.2 669.62 L1581.18 669.62 L1581.18 617.78 Z" fill="#000000" fill-rule="nonzero" fill-opacity="1" /><path clip-path="url(#clip530)" d="M1662.88 621.774 L1662.88 629.169 Q1659.34 625.871 1655.31 624.239 Q1651.32 622.607 1646.81 622.607 Q1637.92 622.607 1633.2 628.058 Q1628.47 633.475 1628.47 643.753 Q1628.47 653.996 1633.2 659.447 Q1637.92 664.864 1646.81 664.864 Q1651.32 664.864 1655.31 663.232 Q1659.34 661.6 1662.88 658.301 L1662.88 665.627 Q1659.2 668.127 1655.07 669.377 Q1650.97 670.627 1646.39 670.627 Q1634.62 670.627 1627.85 663.44 Q1621.08 656.218 1621.08 643.753 Q1621.08 631.253 1627.85 624.065 Q1634.62 616.843 1646.39 616.843 Q1651.04 616.843 1655.14 618.093 Q1659.27 619.308 1662.88 621.774 Z" fill="#000000" fill-rule="nonzero" fill-opacity="1" /><path clip-path="url(#clip530)" d="M1691.04 624.69 L1681.53 650.489 L1700.59 650.489 L1691.04 624.69 M1687.08 617.78 L1695.04 617.78 L1714.79 669.62 L1707.5 669.62 L1702.78 656.322 L1679.41 656.322 L1674.69 669.62 L1667.29 669.62 L1687.08 617.78 Z" fill="#000000" fill-rule="nonzero" fill-opacity="1" /><polyline clip-path="url(#clip530)" style="stroke:#f05f73; stroke-linecap:round; stroke-linejoin:round; stroke-width:18; stroke-opacity:1; fill:none" points="1422.01,721.46 1558.44,721.46 "/>
<path clip-path="url(#clip530)" d="M1490.23 735.496 L1480.31 731.384 L1476.19 721.46 L1480.31 711.537 L1490.23 707.425 L1500.15 711.537 L1504.27 721.46 L1500.15 731.384 Z" fill="#f05f73" fill-rule="evenodd" fill-opacity="1" stroke="#000000" stroke-opacity="1" stroke-width="6.82667"/>
<path clip-path="url(#clip530)" d="M1581.18 695.54 L1588.2 695.54 L1588.2 741.478 L1613.44 741.478 L1613.44 747.38 L1581.18 747.38 L1581.18 695.54 Z" fill="#000000" fill-rule="nonzero" fill-opacity="1" /><path clip-path="url(#clip530)" d="M1645.38 723.075 Q1647.64 723.839 1649.76 726.339 Q1651.91 728.839 1654.06 733.214 L1661.18 747.38 L1653.65 747.38 L1647.01 734.082 Q1644.45 728.874 1642.01 727.172 Q1639.62 725.471 1635.45 725.471 L1627.81 725.471 L1627.81 747.38 L1620.8 747.38 L1620.8 695.54 L1636.63 695.54 Q1645.52 695.54 1649.9 699.256 Q1654.27 702.971 1654.27 710.471 Q1654.27 715.367 1651.98 718.596 Q1649.72 721.825 1645.38 723.075 M1627.81 701.304 L1627.81 719.707 L1636.63 719.707 Q1641.7 719.707 1644.27 717.381 Q1646.88 715.02 1646.88 710.471 Q1646.88 705.922 1644.27 703.631 Q1641.7 701.304 1636.63 701.304 L1627.81 701.304 Z" fill="#000000" fill-rule="nonzero" fill-opacity="1" /><path clip-path="url(#clip530)" d="M1663.82 725.054 L1682.54 725.054 L1682.54 730.749 L1663.82 730.749 L1663.82 725.054 Z" fill="#000000" fill-rule="nonzero" fill-opacity="1" /><path clip-path="url(#clip530)" d="M1708.75 702.45 L1699.24 728.249 L1718.3 728.249 L1708.75 702.45 M1704.79 695.54 L1712.74 695.54 L1732.5 747.38 L1725.21 747.38 L1720.49 734.082 L1697.12 734.082 L1692.4 747.38 L1685 747.38 L1704.79 695.54 Z" fill="#000000" fill-rule="nonzero" fill-opacity="1" /><path clip-path="url(#clip530)" d="M1740.07 695.54 L1747.08 695.54 L1747.08 741.478 L1772.33 741.478 L1772.33 747.38 L1740.07 747.38 L1740.07 695.54 Z" fill="#000000" fill-rule="nonzero" fill-opacity="1" /><path clip-path="url(#clip530)" d="M1786.7 701.304 L1786.7 720.783 L1795.52 720.783 Q1800.42 720.783 1803.09 718.249 Q1805.76 715.714 1805.76 711.027 Q1805.76 706.374 1803.09 703.839 Q1800.42 701.304 1795.52 701.304 L1786.7 701.304 M1779.69 695.54 L1795.52 695.54 Q1804.24 695.54 1808.68 699.499 Q1813.16 703.422 1813.16 711.027 Q1813.16 718.7 1808.68 722.624 Q1804.24 726.547 1795.52 726.547 L1786.7 726.547 L1786.7 747.38 L1779.69 747.38 L1779.69 695.54 Z" fill="#000000" fill-rule="nonzero" fill-opacity="1" /><path clip-path="url(#clip530)" d="M1861.39 699.534 L1861.39 706.929 Q1857.85 703.631 1853.82 701.999 Q1849.83 700.367 1845.31 700.367 Q1836.42 700.367 1831.7 705.818 Q1826.98 711.235 1826.98 721.513 Q1826.98 731.756 1831.7 737.207 Q1836.42 742.624 1845.31 742.624 Q1849.83 742.624 1853.82 740.992 Q1857.85 739.36 1861.39 736.061 L1861.39 743.387 Q1857.71 745.887 1853.58 747.137 Q1849.48 748.387 1844.9 748.387 Q1833.12 748.387 1826.35 741.2 Q1819.58 733.978 1819.58 721.513 Q1819.58 709.013 1826.35 701.825 Q1833.12 694.603 1844.9 694.603 Q1849.55 694.603 1853.65 695.853 Q1857.78 697.068 1861.39 699.534 Z" fill="#000000" fill-rule="nonzero" fill-opacity="1" /><path clip-path="url(#clip530)" d="M1889.55 702.45 L1880.03 728.249 L1899.1 728.249 L1889.55 702.45 M1885.59 695.54 L1893.54 695.54 L1913.3 747.38 L1906.01 747.38 L1901.28 734.082 L1877.92 734.082 L1873.19 747.38 L1865.8 747.38 L1885.59 695.54 Z" fill="#000000" fill-rule="nonzero" fill-opacity="1" /><path clip-path="url(#clip530)" d="M1920.87 695.54 L1927.88 695.54 L1927.88 716.79 L1953.37 716.79 L1953.37 695.54 L1960.38 695.54 L1960.38 747.38 L1953.37 747.38 L1953.37 722.693 L1927.88 722.693 L1927.88 747.38 L1920.87 747.38 L1920.87 695.54 Z" fill="#000000" fill-rule="nonzero" fill-opacity="1" /><path clip-path="url(#clip530)" d="M2012.01 693.422 Q2007.36 701.409 2005.1 709.221 Q2002.85 717.033 2002.85 725.054 Q2002.85 733.075 2005.1 740.957 Q2007.39 748.804 2012.01 756.755 L2006.46 756.755 Q2001.25 748.596 1998.64 740.714 Q1996.08 732.832 1996.08 725.054 Q1996.08 717.311 1998.64 709.464 Q2001.21 701.617 2006.46 693.422 L2012.01 693.422 Z" fill="#000000" fill-rule="nonzero" fill-opacity="1" /><path clip-path="url(#clip530)" d="M2042.01 702.45 L2032.5 728.249 L2051.56 728.249 L2042.01 702.45 M2038.05 695.54 L2046.01 695.54 L2065.76 747.38 L2058.47 747.38 L2053.75 734.082 L2030.38 734.082 L2025.66 747.38 L2018.26 747.38 L2038.05 695.54 Z" fill="#000000" fill-rule="nonzero" fill-opacity="1" /><path clip-path="url(#clip530)" d="M2073.05 693.353 L2079.44 693.353 L2079.44 747.38 L2073.05 747.38 L2073.05 693.353 Z" fill="#000000" fill-rule="nonzero" fill-opacity="1" /><path clip-path="url(#clip530)" d="M2099.13 697.45 L2099.13 708.492 L2112.29 708.492 L2112.29 713.457 L2099.13 713.457 L2099.13 734.568 Q2099.13 739.325 2100.42 740.679 Q2101.73 742.033 2105.73 742.033 L2112.29 742.033 L2112.29 747.38 L2105.73 747.38 Q2098.33 747.38 2095.52 744.637 Q2092.71 741.86 2092.71 734.568 L2092.71 713.457 L2088.02 713.457 L2088.02 708.492 L2092.71 708.492 L2092.71 697.45 L2099.13 697.45 Z" fill="#000000" fill-rule="nonzero" fill-opacity="1" /><path clip-path="url(#clip530)" d="M2120.97 695.54 L2131.42 695.54 L2144.65 730.818 L2157.95 695.54 L2168.4 695.54 L2168.4 747.38 L2161.56 747.38 L2161.56 701.86 L2148.19 737.415 L2141.14 737.415 L2127.78 701.86 L2127.78 747.38 L2120.97 747.38 L2120.97 695.54 Z" fill="#000000" fill-rule="nonzero" fill-opacity="1" /><path clip-path="url(#clip530)" d="M2182.05 708.492 L2188.44 708.492 L2188.44 747.38 L2182.05 747.38 L2182.05 708.492 M2182.05 693.353 L2188.44 693.353 L2188.44 701.443 L2182.05 701.443 L2182.05 693.353 Z" fill="#000000" fill-rule="nonzero" fill-opacity="1" /><path clip-path="url(#clip530)" d="M2234.13 723.908 L2234.13 747.38 L2227.74 747.38 L2227.74 724.117 Q2227.74 718.596 2225.59 715.853 Q2223.44 713.11 2219.13 713.11 Q2213.96 713.11 2210.97 716.408 Q2207.98 719.707 2207.98 725.401 L2207.98 747.38 L2201.56 747.38 L2201.56 708.492 L2207.98 708.492 L2207.98 714.533 Q2210.28 711.027 2213.37 709.29 Q2216.49 707.554 2220.55 707.554 Q2227.25 707.554 2230.69 711.721 Q2234.13 715.853 2234.13 723.908 Z" fill="#000000" fill-rule="nonzero" fill-opacity="1" /><path clip-path="url(#clip530)" d="M2245.87 693.422 L2251.42 693.422 Q2256.63 701.617 2259.2 709.464 Q2261.8 717.311 2261.8 725.054 Q2261.8 732.832 2259.2 740.714 Q2256.63 748.596 2251.42 756.755 L2245.87 756.755 Q2250.48 748.804 2252.74 740.957 Q2255.03 733.075 2255.03 725.054 Q2255.03 717.033 2252.74 709.221 Q2250.48 701.409 2245.87 693.422 Z" fill="#000000" fill-rule="nonzero" fill-opacity="1" /><polyline clip-path="url(#clip530)" style="stroke:#009af9; stroke-linecap:round; stroke-linejoin:round; stroke-width:18; stroke-opacity:1; fill:none" points="1422.01,799.22 1558.44,799.22 "/>
<line clip-path="url(#clip530)" x1="1490.23" y1="799.22" x2="1476.19" y2="785.185" style="stroke:#009af9; stroke-width:18; stroke-opacity:1"/>
<line clip-path="url(#clip530)" x1="1490.23" y1="799.22" x2="1476.19" y2="813.256" style="stroke:#009af9; stroke-width:18; stroke-opacity:1"/>
<line clip-path="url(#clip530)" x1="1490.23" y1="799.22" x2="1504.27" y2="813.256" style="stroke:#009af9; stroke-width:18; stroke-opacity:1"/>
<line clip-path="url(#clip530)" x1="1490.23" y1="799.22" x2="1504.27" y2="785.185" style="stroke:#009af9; stroke-width:18; stroke-opacity:1"/>
<path clip-path="url(#clip530)" d="M1581.18 773.3 L1588.2 773.3 L1588.2 819.238 L1613.44 819.238 L1613.44 825.14 L1581.18 825.14 L1581.18 773.3 Z" fill="#000000" fill-rule="nonzero" fill-opacity="1" /><path clip-path="url(#clip530)" d="M1645.38 800.835 Q1647.64 801.599 1649.76 804.099 Q1651.91 806.599 1654.06 810.974 L1661.18 825.14 L1653.65 825.14 L1647.01 811.842 Q1644.45 806.634 1642.01 804.932 Q1639.62 803.231 1635.45 803.231 L1627.81 803.231 L1627.81 825.14 L1620.8 825.14 L1620.8 773.3 L1636.63 773.3 Q1645.52 773.3 1649.9 777.016 Q1654.27 780.731 1654.27 788.231 Q1654.27 793.127 1651.98 796.356 Q1649.72 799.585 1645.38 800.835 M1627.81 779.064 L1627.81 797.467 L1636.63 797.467 Q1641.7 797.467 1644.27 795.141 Q1646.88 792.78 1646.88 788.231 Q1646.88 783.682 1644.27 781.391 Q1641.7 779.064 1636.63 779.064 L1627.81 779.064 Z" fill="#000000" fill-rule="nonzero" fill-opacity="1" /><path clip-path="url(#clip530)" d="M1663.82 802.814 L1682.54 802.814 L1682.54 808.509 L1663.82 808.509 L1663.82 802.814 Z" fill="#000000" fill-rule="nonzero" fill-opacity="1" /><path clip-path="url(#clip530)" d="M1708.75 780.21 L1699.24 806.009 L1718.3 806.009 L1708.75 780.21 M1704.79 773.3 L1712.74 773.3 L1732.5 825.14 L1725.21 825.14 L1720.49 811.842 L1697.12 811.842 L1692.4 825.14 L1685 825.14 L1704.79 773.3 Z" fill="#000000" fill-rule="nonzero" fill-opacity="1" /><path clip-path="url(#clip530)" d="M1740.07 773.3 L1747.08 773.3 L1747.08 819.238 L1772.33 819.238 L1772.33 825.14 L1740.07 825.14 L1740.07 773.3 Z" fill="#000000" fill-rule="nonzero" fill-opacity="1" /><path clip-path="url(#clip530)" d="M1786.7 779.064 L1786.7 798.543 L1795.52 798.543 Q1800.42 798.543 1803.09 796.009 Q1805.76 793.474 1805.76 788.787 Q1805.76 784.134 1803.09 781.599 Q1800.42 779.064 1795.52 779.064 L1786.7 779.064 M1779.69 773.3 L1795.52 773.3 Q1804.24 773.3 1808.68 777.259 Q1813.16 781.182 1813.16 788.787 Q1813.16 796.46 1808.68 800.384 Q1804.24 804.307 1795.52 804.307 L1786.7 804.307 L1786.7 825.14 L1779.69 825.14 L1779.69 773.3 Z" fill="#000000" fill-rule="nonzero" fill-opacity="1" /><path clip-path="url(#clip530)" d="M1861.39 777.294 L1861.39 784.689 Q1857.85 781.391 1853.82 779.759 Q1849.83 778.127 1845.31 778.127 Q1836.42 778.127 1831.7 783.578 Q1826.98 788.995 1826.98 799.273 Q1826.98 809.516 1831.7 814.967 Q1836.42 820.384 1845.31 820.384 Q1849.83 820.384 1853.82 818.752 Q1857.85 817.12 1861.39 813.821 L1861.39 821.147 Q1857.71 823.647 1853.58 824.897 Q1849.48 826.147 1844.9 826.147 Q1833.12 826.147 1826.35 818.96 Q1819.58 811.738 1819.58 799.273 Q1819.58 786.773 1826.35 779.585 Q1833.12 772.363 1844.9 772.363 Q1849.55 772.363 1853.65 773.613 Q1857.78 774.828 1861.39 777.294 Z" fill="#000000" fill-rule="nonzero" fill-opacity="1" /><path clip-path="url(#clip530)" d="M1889.55 780.21 L1880.03 806.009 L1899.1 806.009 L1889.55 780.21 M1885.59 773.3 L1893.54 773.3 L1913.3 825.14 L1906.01 825.14 L1901.28 811.842 L1877.92 811.842 L1873.19 825.14 L1865.8 825.14 L1885.59 773.3 Z" fill="#000000" fill-rule="nonzero" fill-opacity="1" /><path clip-path="url(#clip530)" d="M1920.87 773.3 L1927.88 773.3 L1927.88 794.55 L1953.37 794.55 L1953.37 773.3 L1960.38 773.3 L1960.38 825.14 L1953.37 825.14 L1953.37 800.453 L1927.88 800.453 L1927.88 825.14 L1920.87 825.14 L1920.87 773.3 Z" fill="#000000" fill-rule="nonzero" fill-opacity="1" /><path clip-path="url(#clip530)" d="M2012.01 771.182 Q2007.36 779.169 2005.1 786.981 Q2002.85 794.793 2002.85 802.814 Q2002.85 810.835 2005.1 818.717 Q2007.39 826.564 2012.01 834.515 L2006.46 834.515 Q2001.25 826.356 1998.64 818.474 Q1996.08 810.592 1996.08 802.814 Q1996.08 795.071 1998.64 787.224 Q2001.21 779.377 2006.46 771.182 L2012.01 771.182 Z" fill="#000000" fill-rule="nonzero" fill-opacity="1" /><path clip-path="url(#clip530)" d="M2031.7 779.064 L2031.7 798.543 L2040.52 798.543 Q2045.42 798.543 2048.09 796.009 Q2050.76 793.474 2050.76 788.787 Q2050.76 784.134 2048.09 781.599 Q2045.42 779.064 2040.52 779.064 L2031.7 779.064 M2024.69 773.3 L2040.52 773.3 Q2049.23 773.3 2053.68 777.259 Q2058.16 781.182 2058.16 788.787 Q2058.16 796.46 2053.68 800.384 Q2049.23 804.307 2040.52 804.307 L2031.7 804.307 L2031.7 825.14 L2024.69 825.14 L2024.69 773.3 Z" fill="#000000" fill-rule="nonzero" fill-opacity="1" /><path clip-path="url(#clip530)" d="M2080.35 780.21 L2070.83 806.009 L2089.89 806.009 L2080.35 780.21 M2076.39 773.3 L2084.34 773.3 L2104.1 825.14 L2096.8 825.14 L2092.08 811.842 L2068.71 811.842 L2063.99 825.14 L2056.6 825.14 L2076.39 773.3 Z" fill="#000000" fill-rule="nonzero" fill-opacity="1" /><path clip-path="url(#clip530)" d="M2111.67 773.3 L2118.68 773.3 L2118.68 819.238 L2143.92 819.238 L2143.92 825.14 L2111.67 825.14 L2111.67 773.3 Z" fill="#000000" fill-rule="nonzero" fill-opacity="1" /><path clip-path="url(#clip530)" d="M2151.28 773.3 L2161.73 773.3 L2174.96 808.578 L2188.26 773.3 L2198.71 773.3 L2198.71 825.14 L2191.87 825.14 L2191.87 779.62 L2178.51 815.175 L2171.46 815.175 L2158.09 779.62 L2158.09 825.14 L2151.28 825.14 L2151.28 773.3 Z" fill="#000000" fill-rule="nonzero" fill-opacity="1" /><path clip-path="url(#clip530)" d="M2211.35 771.182 L2216.91 771.182 Q2222.12 779.377 2224.69 787.224 Q2227.29 795.071 2227.29 802.814 Q2227.29 810.592 2224.69 818.474 Q2222.12 826.356 2216.91 834.515 L2211.35 834.515 Q2215.97 826.564 2218.23 818.717 Q2220.52 810.835 2220.52 802.814 Q2220.52 794.793 2218.23 786.981 Q2215.97 779.169 2211.35 771.182 Z" fill="#000000" fill-rule="nonzero" fill-opacity="1" /></svg>
