<?xml version="1.0" encoding="utf-8"?>
<svg xmlns="http://www.w3.org/2000/svg" xmlns:xlink="http://www.w3.org/1999/xlink" width="600" height="400" viewBox="0 0 2400 1600">
<defs>
  <clipPath id="clip800">
    <rect x="0" y="0" width="2400" height="1600"/>
  </clipPath>
</defs>
<path clip-path="url(#clip800)" d="M0 1600 L2400 1600 L2400 0 L0 0  Z" fill="#ffffff" fill-rule="evenodd" fill-opacity="1"/>
<defs>
  <clipPath id="clip801">
    <rect x="480" y="0" width="1681" height="1600"/>
  </clipPath>
</defs>
<path clip-path="url(#clip800)" d="M306.321 1417.33 L2352.76 1417.33 L2352.76 47.2441 L306.321 47.2441  Z" fill="#ffffff" fill-rule="evenodd" fill-opacity="1"/>
<defs>
  <clipPath id="clip802">
    <rect x="306" y="47" width="2047" height="1371"/>
  </clipPath>
</defs>
<polyline clip-path="url(#clip802)" style="stroke:#000000; stroke-linecap:round; stroke-linejoin:round; stroke-width:2; stroke-opacity:0.1; fill:none" points="454.938,1417.33 454.938,47.2441 "/>
<polyline clip-path="url(#clip802)" style="stroke:#000000; stroke-linecap:round; stroke-linejoin:round; stroke-width:2; stroke-opacity:0.1; fill:none" points="804.778,1417.33 804.778,47.2441 "/>
<polyline clip-path="url(#clip802)" style="stroke:#000000; stroke-linecap:round; stroke-linejoin:round; stroke-width:2; stroke-opacity:0.1; fill:none" points="1154.62,1417.33 1154.62,47.2441 "/>
<polyline clip-path="url(#clip802)" style="stroke:#000000; stroke-linecap:round; stroke-linejoin:round; stroke-width:2; stroke-opacity:0.1; fill:none" points="1504.46,1417.33 1504.46,47.2441 "/>
<polyline clip-path="url(#clip802)" style="stroke:#000000; stroke-linecap:round; stroke-linejoin:round; stroke-width:2; stroke-opacity:0.1; fill:none" points="1854.3,1417.33 1854.3,47.2441 "/>
<polyline clip-path="url(#clip802)" style="stroke:#000000; stroke-linecap:round; stroke-linejoin:round; stroke-width:2; stroke-opacity:0.1; fill:none" points="2204.14,1417.33 2204.14,47.2441 "/>
<polyline clip-path="url(#clip800)" style="stroke:#000000; stroke-linecap:round; stroke-linejoin:round; stroke-width:4; stroke-opacity:1; fill:none" points="306.321,1417.33 2352.76,1417.33 "/>
<polyline clip-path="url(#clip800)" style="stroke:#000000; stroke-linecap:round; stroke-linejoin:round; stroke-width:4; stroke-opacity:1; fill:none" points="454.938,1417.33 454.938,1398.43 "/>
<polyline clip-path="url(#clip800)" style="stroke:#000000; stroke-linecap:round; stroke-linejoin:round; stroke-width:4; stroke-opacity:1; fill:none" points="804.778,1417.33 804.778,1398.43 "/>
<polyline clip-path="url(#clip800)" style="stroke:#000000; stroke-linecap:round; stroke-linejoin:round; stroke-width:4; stroke-opacity:1; fill:none" points="1154.62,1417.33 1154.62,1398.43 "/>
<polyline clip-path="url(#clip800)" style="stroke:#000000; stroke-linecap:round; stroke-linejoin:round; stroke-width:4; stroke-opacity:1; fill:none" points="1504.46,1417.33 1504.46,1398.43 "/>
<polyline clip-path="url(#clip800)" style="stroke:#000000; stroke-linecap:round; stroke-linejoin:round; stroke-width:4; stroke-opacity:1; fill:none" points="1854.3,1417.33 1854.3,1398.43 "/>
<polyline clip-path="url(#clip800)" style="stroke:#000000; stroke-linecap:round; stroke-linejoin:round; stroke-width:4; stroke-opacity:1; fill:none" points="2204.14,1417.33 2204.14,1398.43 "/>
<path clip-path="url(#clip800)" d="M395.147 1455.25 L395.147 1474.73 L403.966 1474.73 Q408.862 1474.73 411.535 1472.2 Q414.209 1469.66 414.209 1464.97 Q414.209 1460.32 411.535 1457.79 Q408.862 1455.25 403.966 1455.25 L395.147 1455.25 M388.133 1449.49 L403.966 1449.49 Q412.681 1449.49 417.126 1453.45 Q421.605 1457.37 421.605 1464.97 Q421.605 1472.65 417.126 1476.57 Q412.681 1480.49 403.966 1480.49 L395.147 1480.49 L395.147 1501.33 L388.133 1501.33 L388.133 1449.49 Z" fill="#000000" fill-rule="nonzero" fill-opacity="1" /><path clip-path="url(#clip800)" d="M469.834 1453.48 L469.834 1460.88 Q466.292 1457.58 462.264 1455.95 Q458.271 1454.31 453.757 1454.31 Q444.869 1454.31 440.146 1459.77 Q435.424 1465.18 435.424 1475.46 Q435.424 1485.7 440.146 1491.15 Q444.869 1496.57 453.757 1496.57 Q458.271 1496.57 462.264 1494.94 Q466.292 1493.31 469.834 1490.01 L469.834 1497.33 Q466.153 1499.83 462.021 1501.08 Q457.924 1502.33 453.341 1502.33 Q441.57 1502.33 434.799 1495.15 Q428.028 1487.93 428.028 1475.46 Q428.028 1462.96 434.799 1455.77 Q441.57 1448.55 453.341 1448.55 Q457.993 1448.55 462.091 1449.8 Q466.223 1451.02 469.834 1453.48 Z" fill="#000000" fill-rule="nonzero" fill-opacity="1" /><path clip-path="url(#clip800)" d="M497.993 1456.4 L488.479 1482.2 L507.542 1482.2 L497.993 1456.4 M494.035 1449.49 L501.986 1449.49 L521.743 1501.33 L514.452 1501.33 L509.729 1488.03 L486.361 1488.03 L481.639 1501.33 L474.243 1501.33 L494.035 1449.49 Z" fill="#000000" fill-rule="nonzero" fill-opacity="1" /><path clip-path="url(#clip800)" d="M737.851 1477.02 Q740.108 1477.79 742.226 1480.29 Q744.379 1482.79 746.532 1487.16 L753.65 1501.33 L746.115 1501.33 L739.483 1488.03 Q736.914 1482.82 734.483 1481.12 Q732.088 1479.42 727.921 1479.42 L720.282 1479.42 L720.282 1501.33 L713.268 1501.33 L713.268 1449.49 L729.101 1449.49 Q737.99 1449.49 742.365 1453.2 Q746.74 1456.92 746.74 1464.42 Q746.74 1469.31 744.449 1472.54 Q742.192 1475.77 737.851 1477.02 M720.282 1455.25 L720.282 1473.65 L729.101 1473.65 Q734.171 1473.65 736.74 1471.33 Q739.344 1468.97 739.344 1464.42 Q739.344 1459.87 736.74 1457.58 Q734.171 1455.25 729.101 1455.25 L720.282 1455.25 Z" fill="#000000" fill-rule="nonzero" fill-opacity="1" /><path clip-path="url(#clip800)" d="M769.691 1455.25 L769.691 1474.73 L778.511 1474.73 Q783.407 1474.73 786.08 1472.2 Q788.754 1469.66 788.754 1464.97 Q788.754 1460.32 786.08 1457.79 Q783.407 1455.25 778.511 1455.25 L769.691 1455.25 M762.678 1449.49 L778.511 1449.49 Q787.226 1449.49 791.671 1453.45 Q796.15 1457.37 796.15 1464.97 Q796.15 1472.65 791.671 1476.57 Q787.226 1480.49 778.511 1480.49 L769.691 1480.49 L769.691 1501.33 L762.678 1501.33 L762.678 1449.49 Z" fill="#000000" fill-rule="nonzero" fill-opacity="1" /><path clip-path="url(#clip800)" d="M844.379 1453.48 L844.379 1460.88 Q840.837 1457.58 836.809 1455.95 Q832.816 1454.31 828.302 1454.31 Q819.413 1454.31 814.691 1459.77 Q809.969 1465.18 809.969 1475.46 Q809.969 1485.7 814.691 1491.15 Q819.413 1496.57 828.302 1496.57 Q832.816 1496.57 836.809 1494.94 Q840.837 1493.31 844.379 1490.01 L844.379 1497.33 Q840.698 1499.83 836.566 1501.08 Q832.469 1502.33 827.886 1502.33 Q816.115 1502.33 809.344 1495.15 Q802.573 1487.93 802.573 1475.46 Q802.573 1462.96 809.344 1455.77 Q816.115 1448.55 827.886 1448.55 Q832.538 1448.55 836.636 1449.8 Q840.767 1451.02 844.379 1453.48 Z" fill="#000000" fill-rule="nonzero" fill-opacity="1" /><path clip-path="url(#clip800)" d="M872.538 1456.4 L863.024 1482.2 L882.087 1482.2 L872.538 1456.4 M868.58 1449.49 L876.531 1449.49 L896.288 1501.33 L888.996 1501.33 L884.274 1488.03 L860.906 1488.03 L856.184 1501.33 L848.788 1501.33 L868.58 1449.49 Z" fill="#000000" fill-rule="nonzero" fill-opacity="1" /><path clip-path="url(#clip800)" d="M998.404 1449.49 L1005.42 1449.49 L1005.42 1470.74 L1030.9 1470.74 L1030.9 1449.49 L1037.92 1449.49 L1037.92 1501.33 L1030.9 1501.33 L1030.9 1476.64 L1005.42 1476.64 L1005.42 1501.33 L998.404 1501.33 L998.404 1449.49 Z" fill="#000000" fill-rule="nonzero" fill-opacity="1" /><path clip-path="url(#clip800)" d="M1084.86 1480.29 L1084.86 1483.41 L1055.49 1483.41 Q1055.9 1490.01 1059.45 1493.48 Q1063.02 1496.92 1069.38 1496.92 Q1073.06 1496.92 1076.49 1496.02 Q1079.97 1495.11 1083.37 1493.31 L1083.37 1499.35 Q1079.93 1500.81 1076.32 1501.57 Q1072.71 1502.33 1068.99 1502.33 Q1059.69 1502.33 1054.24 1496.92 Q1048.82 1491.5 1048.82 1482.27 Q1048.82 1472.72 1053.96 1467.13 Q1059.13 1461.5 1067.88 1461.5 Q1075.73 1461.5 1080.28 1466.57 Q1084.86 1471.61 1084.86 1480.29 M1078.47 1478.41 Q1078.4 1473.17 1075.52 1470.04 Q1072.67 1466.92 1067.95 1466.92 Q1062.6 1466.92 1059.38 1469.94 Q1056.18 1472.96 1055.7 1478.45 L1078.47 1478.41 Z" fill="#000000" fill-rule="nonzero" fill-opacity="1" /><path clip-path="url(#clip800)" d="M1102.64 1455.25 L1102.64 1474.73 L1111.46 1474.73 Q1116.35 1474.73 1119.03 1472.2 Q1121.7 1469.66 1121.7 1464.97 Q1121.7 1460.32 1119.03 1457.79 Q1116.35 1455.25 1111.46 1455.25 L1102.64 1455.25 M1095.63 1449.49 L1111.46 1449.49 Q1120.17 1449.49 1124.62 1453.45 Q1129.1 1457.37 1129.1 1464.97 Q1129.1 1472.65 1124.62 1476.57 Q1120.17 1480.49 1111.46 1480.49 L1102.64 1480.49 L1102.64 1501.33 L1095.63 1501.33 L1095.63 1449.49 Z" fill="#000000" fill-rule="nonzero" fill-opacity="1" /><path clip-path="url(#clip800)" d="M1145.52 1455.25 L1145.52 1474.73 L1154.34 1474.73 Q1159.24 1474.73 1161.91 1472.2 Q1164.58 1469.66 1164.58 1464.97 Q1164.58 1460.32 1161.91 1457.79 Q1159.24 1455.25 1154.34 1455.25 L1145.52 1455.25 M1138.51 1449.49 L1154.34 1449.49 Q1163.06 1449.49 1167.5 1453.45 Q1171.98 1457.37 1171.98 1464.97 Q1171.98 1472.65 1167.5 1476.57 Q1163.06 1480.49 1154.34 1480.49 L1145.52 1480.49 L1145.52 1501.33 L1138.51 1501.33 L1138.51 1449.49 Z" fill="#000000" fill-rule="nonzero" fill-opacity="1" /><path clip-path="url(#clip800)" d="M1220.21 1453.48 L1220.21 1460.88 Q1216.67 1457.58 1212.64 1455.95 Q1208.65 1454.31 1204.13 1454.31 Q1195.24 1454.31 1190.52 1459.77 Q1185.8 1465.18 1185.8 1475.46 Q1185.8 1485.7 1190.52 1491.15 Q1195.24 1496.57 1204.13 1496.57 Q1208.65 1496.57 1212.64 1494.94 Q1216.67 1493.31 1220.21 1490.01 L1220.21 1497.33 Q1216.53 1499.83 1212.4 1501.08 Q1208.3 1502.33 1203.72 1502.33 Q1191.94 1502.33 1185.17 1495.15 Q1178.4 1487.93 1178.4 1475.46 Q1178.4 1462.96 1185.17 1455.77 Q1191.94 1448.55 1203.72 1448.55 Q1208.37 1448.55 1212.47 1449.8 Q1216.6 1451.02 1220.21 1453.48 Z" fill="#000000" fill-rule="nonzero" fill-opacity="1" /><path clip-path="url(#clip800)" d="M1248.37 1456.4 L1238.85 1482.2 L1257.92 1482.2 L1248.37 1456.4 M1244.41 1449.49 L1252.36 1449.49 L1272.12 1501.33 L1264.83 1501.33 L1260.1 1488.03 L1236.74 1488.03 L1232.01 1501.33 L1224.62 1501.33 L1244.41 1449.49 Z" fill="#000000" fill-rule="nonzero" fill-opacity="1" /><path clip-path="url(#clip800)" d="M1266.98 1449.49 L1310.83 1449.49 L1310.83 1455.39 L1292.43 1455.39 L1292.43 1501.33 L1285.38 1501.33 L1285.38 1455.39 L1266.98 1455.39 L1266.98 1449.49 Z" fill="#000000" fill-rule="nonzero" fill-opacity="1" /><path clip-path="url(#clip800)" d="M1390.52 1456.4 L1381 1482.2 L1400.07 1482.2 L1390.52 1456.4 M1386.56 1449.49 L1394.51 1449.49 L1414.27 1501.33 L1406.98 1501.33 L1402.25 1488.03 L1378.89 1488.03 L1374.16 1501.33 L1366.77 1501.33 L1386.56 1449.49 Z" fill="#000000" fill-rule="nonzero" fill-opacity="1" /><path clip-path="url(#clip800)" d="M1421.84 1449.49 L1428.85 1449.49 L1428.85 1495.43 L1454.09 1495.43 L1454.09 1501.33 L1421.84 1501.33 L1421.84 1449.49 Z" fill="#000000" fill-rule="nonzero" fill-opacity="1" /><path clip-path="url(#clip800)" d="M1468.47 1455.25 L1468.47 1474.73 L1477.29 1474.73 Q1482.18 1474.73 1484.86 1472.2 Q1487.53 1469.66 1487.53 1464.97 Q1487.53 1460.32 1484.86 1457.79 Q1482.18 1455.25 1477.29 1455.25 L1468.47 1455.25 M1461.46 1449.49 L1477.29 1449.49 Q1486 1449.49 1490.45 1453.45 Q1494.93 1457.37 1494.93 1464.97 Q1494.93 1472.65 1490.45 1476.57 Q1486 1480.49 1477.29 1480.49 L1468.47 1480.49 L1468.47 1501.33 L1461.46 1501.33 L1461.46 1449.49 Z" fill="#000000" fill-rule="nonzero" fill-opacity="1" /><path clip-path="url(#clip800)" d="M1543.16 1453.48 L1543.16 1460.88 Q1539.61 1457.58 1535.59 1455.95 Q1531.59 1454.31 1527.08 1454.31 Q1518.19 1454.31 1513.47 1459.77 Q1508.75 1465.18 1508.75 1475.46 Q1508.75 1485.7 1513.47 1491.15 Q1518.19 1496.57 1527.08 1496.57 Q1531.59 1496.57 1535.59 1494.94 Q1539.61 1493.31 1543.16 1490.01 L1543.16 1497.33 Q1539.48 1499.83 1535.34 1501.08 Q1531.25 1502.33 1526.66 1502.33 Q1514.89 1502.33 1508.12 1495.15 Q1501.35 1487.93 1501.35 1475.46 Q1501.35 1462.96 1508.12 1455.77 Q1514.89 1448.55 1526.66 1448.55 Q1531.32 1448.55 1535.41 1449.8 Q1539.54 1451.02 1543.16 1453.48 Z" fill="#000000" fill-rule="nonzero" fill-opacity="1" /><path clip-path="url(#clip800)" d="M1571.32 1456.4 L1561.8 1482.2 L1580.86 1482.2 L1571.32 1456.4 M1567.36 1449.49 L1575.31 1449.49 L1595.07 1501.33 L1587.77 1501.33 L1583.05 1488.03 L1559.68 1488.03 L1554.96 1501.33 L1547.57 1501.33 L1567.36 1449.49 Z" fill="#000000" fill-rule="nonzero" fill-opacity="1" /><path clip-path="url(#clip800)" d="M1602.63 1449.49 L1609.65 1449.49 L1609.65 1470.74 L1635.13 1470.74 L1635.13 1449.49 L1642.15 1449.49 L1642.15 1501.33 L1635.13 1501.33 L1635.13 1476.64 L1609.65 1476.64 L1609.65 1501.33 L1602.63 1501.33 L1602.63 1449.49 Z" fill="#000000" fill-rule="nonzero" fill-opacity="1" /><path clip-path="url(#clip800)" d="M1423.78 1525.13 Q1419.13 1533.12 1416.87 1540.93 Q1414.62 1548.74 1414.62 1556.76 Q1414.62 1564.78 1416.87 1572.66 Q1419.16 1580.51 1423.78 1588.46 L1418.23 1588.46 Q1413.02 1580.3 1410.41 1572.42 Q1407.84 1564.54 1407.84 1556.76 Q1407.84 1549.02 1410.41 1541.17 Q1412.98 1533.32 1418.23 1525.13 L1423.78 1525.13 Z" fill="#000000" fill-rule="nonzero" fill-opacity="1" /><path clip-path="url(#clip800)" d="M1461.77 1546.1 L1461.77 1525.06 L1468.16 1525.06 L1468.16 1579.09 L1461.77 1579.09 L1461.77 1573.25 Q1459.75 1576.73 1456.66 1578.43 Q1453.61 1580.09 1449.3 1580.09 Q1442.25 1580.09 1437.81 1574.47 Q1433.4 1568.84 1433.4 1559.68 Q1433.4 1550.51 1437.81 1544.89 Q1442.25 1539.26 1449.3 1539.26 Q1453.61 1539.26 1456.66 1540.96 Q1459.75 1542.63 1461.77 1546.1 M1440 1559.68 Q1440 1566.73 1442.88 1570.75 Q1445.8 1574.75 1450.86 1574.75 Q1455.93 1574.75 1458.85 1570.75 Q1461.77 1566.73 1461.77 1559.68 Q1461.77 1552.63 1458.85 1548.64 Q1455.93 1544.61 1450.86 1544.61 Q1445.8 1544.61 1442.88 1548.64 Q1440 1552.63 1440 1559.68 Z" fill="#000000" fill-rule="nonzero" fill-opacity="1" /><path clip-path="url(#clip800)" d="M1482.15 1546.8 L1526.66 1546.8 L1526.66 1552.63 L1482.15 1552.63 L1482.15 1546.8 M1482.15 1560.96 L1526.66 1560.96 L1526.66 1566.87 L1482.15 1566.87 L1482.15 1560.96 Z" fill="#000000" fill-rule="nonzero" fill-opacity="1" /><path clip-path="url(#clip800)" d="M1556.8 1531.87 Q1551.39 1531.87 1548.64 1537.21 Q1545.93 1542.53 1545.93 1553.22 Q1545.93 1563.88 1548.64 1569.23 Q1551.39 1574.54 1556.8 1574.54 Q1562.25 1574.54 1564.96 1569.23 Q1567.7 1563.88 1567.7 1553.22 Q1567.7 1542.53 1564.96 1537.21 Q1562.25 1531.87 1556.8 1531.87 M1556.8 1526.31 Q1565.52 1526.31 1570.1 1533.22 Q1574.72 1540.1 1574.72 1553.22 Q1574.72 1566.31 1570.1 1573.22 Q1565.52 1580.09 1556.8 1580.09 Q1548.09 1580.09 1543.47 1573.22 Q1538.89 1566.31 1538.89 1553.22 Q1538.89 1540.1 1543.47 1533.22 Q1548.09 1526.31 1556.8 1526.31 Z" fill="#000000" fill-rule="nonzero" fill-opacity="1" /><path clip-path="url(#clip800)" d="M1585.14 1525.13 L1590.69 1525.13 Q1595.9 1533.32 1598.47 1541.17 Q1601.07 1549.02 1601.07 1556.76 Q1601.07 1564.54 1598.47 1572.42 Q1595.9 1580.3 1590.69 1588.46 L1585.14 1588.46 Q1589.75 1580.51 1592.01 1572.66 Q1594.3 1564.78 1594.3 1556.76 Q1594.3 1548.74 1592.01 1540.93 Q1589.75 1533.12 1585.14 1525.13 Z" fill="#000000" fill-rule="nonzero" fill-opacity="1" /><path clip-path="url(#clip800)" d="M1740.36 1456.4 L1730.84 1482.2 L1749.91 1482.2 L1740.36 1456.4 M1736.4 1449.49 L1744.35 1449.49 L1764.11 1501.33 L1756.82 1501.33 L1752.09 1488.03 L1728.73 1488.03 L1724 1501.33 L1716.61 1501.33 L1736.4 1449.49 Z" fill="#000000" fill-rule="nonzero" fill-opacity="1" /><path clip-path="url(#clip800)" d="M1771.68 1449.49 L1778.69 1449.49 L1778.69 1495.43 L1803.93 1495.43 L1803.93 1501.33 L1771.68 1501.33 L1771.68 1449.49 Z" fill="#000000" fill-rule="nonzero" fill-opacity="1" /><path clip-path="url(#clip800)" d="M1818.31 1455.25 L1818.31 1474.73 L1827.13 1474.73 Q1832.02 1474.73 1834.7 1472.2 Q1837.37 1469.66 1837.37 1464.97 Q1837.37 1460.32 1834.7 1457.79 Q1832.02 1455.25 1827.13 1455.25 L1818.31 1455.25 M1811.3 1449.49 L1827.13 1449.49 Q1835.84 1449.49 1840.29 1453.45 Q1844.77 1457.37 1844.77 1464.97 Q1844.77 1472.65 1840.29 1476.57 Q1835.84 1480.49 1827.13 1480.49 L1818.31 1480.49 L1818.31 1501.33 L1811.3 1501.33 L1811.3 1449.49 Z" fill="#000000" fill-rule="nonzero" fill-opacity="1" /><path clip-path="url(#clip800)" d="M1893 1453.48 L1893 1460.88 Q1889.45 1457.58 1885.43 1455.95 Q1881.43 1454.31 1876.92 1454.31 Q1868.03 1454.31 1863.31 1459.77 Q1858.59 1465.18 1858.59 1475.46 Q1858.59 1485.7 1863.31 1491.15 Q1868.03 1496.57 1876.92 1496.57 Q1881.43 1496.57 1885.43 1494.94 Q1889.45 1493.31 1893 1490.01 L1893 1497.33 Q1889.32 1499.83 1885.18 1501.08 Q1881.09 1502.33 1876.5 1502.33 Q1864.73 1502.33 1857.96 1495.15 Q1851.19 1487.93 1851.19 1475.46 Q1851.19 1462.96 1857.96 1455.77 Q1864.73 1448.55 1876.5 1448.55 Q1881.16 1448.55 1885.25 1449.8 Q1889.39 1451.02 1893 1453.48 Z" fill="#000000" fill-rule="nonzero" fill-opacity="1" /><path clip-path="url(#clip800)" d="M1921.16 1456.4 L1911.64 1482.2 L1930.7 1482.2 L1921.16 1456.4 M1917.2 1449.49 L1925.15 1449.49 L1944.91 1501.33 L1937.61 1501.33 L1932.89 1488.03 L1909.52 1488.03 L1904.8 1501.33 L1897.41 1501.33 L1917.2 1449.49 Z" fill="#000000" fill-rule="nonzero" fill-opacity="1" /><path clip-path="url(#clip800)" d="M1952.48 1449.49 L1959.49 1449.49 L1959.49 1470.74 L1984.97 1470.74 L1984.97 1449.49 L1991.99 1449.49 L1991.99 1501.33 L1984.97 1501.33 L1984.97 1476.64 L1959.49 1476.64 L1959.49 1501.33 L1952.48 1501.33 L1952.48 1449.49 Z" fill="#000000" fill-rule="nonzero" fill-opacity="1" /><path clip-path="url(#clip800)" d="M1751 1525.13 Q1746.35 1533.12 1744.09 1540.93 Q1741.83 1548.74 1741.83 1556.76 Q1741.83 1564.78 1744.09 1572.66 Q1746.38 1580.51 1751 1588.46 L1745.44 1588.46 Q1740.24 1580.3 1737.63 1572.42 Q1735.06 1564.54 1735.06 1556.76 Q1735.06 1549.02 1737.63 1541.17 Q1740.2 1533.32 1745.44 1525.13 L1751 1525.13 Z" fill="#000000" fill-rule="nonzero" fill-opacity="1" /><path clip-path="url(#clip800)" d="M1788.99 1546.1 L1788.99 1525.06 L1795.38 1525.06 L1795.38 1579.09 L1788.99 1579.09 L1788.99 1573.25 Q1786.97 1576.73 1783.88 1578.43 Q1780.83 1580.09 1776.52 1580.09 Q1769.47 1580.09 1765.03 1574.47 Q1760.62 1568.84 1760.62 1559.68 Q1760.62 1550.51 1765.03 1544.89 Q1769.47 1539.26 1776.52 1539.26 Q1780.83 1539.26 1783.88 1540.96 Q1786.97 1542.63 1788.99 1546.1 M1767.22 1559.68 Q1767.22 1566.73 1770.1 1570.75 Q1773.01 1574.75 1778.08 1574.75 Q1783.15 1574.75 1786.07 1570.75 Q1788.99 1566.73 1788.99 1559.68 Q1788.99 1552.63 1786.07 1548.64 Q1783.15 1544.61 1778.08 1544.61 Q1773.01 1544.61 1770.1 1548.64 Q1767.22 1552.63 1767.22 1559.68 Z" fill="#000000" fill-rule="nonzero" fill-opacity="1" /><path clip-path="url(#clip800)" d="M1809.37 1546.8 L1853.88 1546.8 L1853.88 1552.63 L1809.37 1552.63 L1809.37 1546.8 M1809.37 1560.96 L1853.88 1560.96 L1853.88 1566.87 L1809.37 1566.87 L1809.37 1560.96 Z" fill="#000000" fill-rule="nonzero" fill-opacity="1" /><path clip-path="url(#clip800)" d="M1870.24 1573.19 L1881.69 1573.19 L1881.69 1533.64 L1869.23 1536.14 L1869.23 1529.75 L1881.62 1527.25 L1888.64 1527.25 L1888.64 1573.19 L1900.1 1573.19 L1900.1 1579.09 L1870.24 1579.09 L1870.24 1573.19 Z" fill="#000000" fill-rule="nonzero" fill-opacity="1" /><path clip-path="url(#clip800)" d="M1929.26 1531.87 Q1923.85 1531.87 1921.1 1537.21 Q1918.4 1542.53 1918.4 1553.22 Q1918.4 1563.88 1921.1 1569.23 Q1923.85 1574.54 1929.26 1574.54 Q1934.71 1574.54 1937.42 1569.23 Q1940.17 1563.88 1940.17 1553.22 Q1940.17 1542.53 1937.42 1537.21 Q1934.71 1531.87 1929.26 1531.87 M1929.26 1526.31 Q1937.98 1526.31 1942.56 1533.22 Q1947.18 1540.1 1947.18 1553.22 Q1947.18 1566.31 1942.56 1573.22 Q1937.98 1580.09 1929.26 1580.09 Q1920.55 1580.09 1915.93 1573.22 Q1911.35 1566.31 1911.35 1553.22 Q1911.35 1540.1 1915.93 1533.22 Q1920.55 1526.31 1929.26 1526.31 Z" fill="#000000" fill-rule="nonzero" fill-opacity="1" /><path clip-path="url(#clip800)" d="M1957.6 1525.13 L1963.15 1525.13 Q1968.36 1533.32 1970.93 1541.17 Q1973.53 1549.02 1973.53 1556.76 Q1973.53 1564.54 1970.93 1572.42 Q1968.36 1580.3 1963.15 1588.46 L1957.6 1588.46 Q1962.21 1580.51 1964.47 1572.66 Q1966.76 1564.78 1966.76 1556.76 Q1966.76 1548.74 1964.47 1540.93 Q1962.21 1533.12 1957.6 1525.13 Z" fill="#000000" fill-rule="nonzero" fill-opacity="1" /><path clip-path="url(#clip800)" d="M2153.46 1449.49 L2160.48 1449.49 L2160.48 1495.43 L2185.72 1495.43 L2185.72 1501.33 L2153.46 1501.33 L2153.46 1449.49 Z" fill="#000000" fill-rule="nonzero" fill-opacity="1" /><path clip-path="url(#clip800)" d="M2217.66 1477.02 Q2219.92 1477.79 2222.04 1480.29 Q2224.19 1482.79 2226.34 1487.16 L2233.46 1501.33 L2225.93 1501.33 L2219.29 1488.03 Q2216.73 1482.82 2214.29 1481.12 Q2211.9 1479.42 2207.73 1479.42 L2200.09 1479.42 L2200.09 1501.33 L2193.08 1501.33 L2193.08 1449.49 L2208.91 1449.49 Q2217.8 1449.49 2222.18 1453.2 Q2226.55 1456.92 2226.55 1464.42 Q2226.55 1469.31 2224.26 1472.54 Q2222 1475.77 2217.66 1477.02 M2200.09 1455.25 L2200.09 1473.65 L2208.91 1473.65 Q2213.98 1473.65 2216.55 1471.33 Q2219.16 1468.97 2219.16 1464.42 Q2219.16 1459.87 2216.55 1457.58 Q2213.98 1455.25 2208.91 1455.25 L2200.09 1455.25 Z" fill="#000000" fill-rule="nonzero" fill-opacity="1" /><path clip-path="url(#clip800)" d="M2236.1 1479 L2254.82 1479 L2254.82 1484.7 L2236.1 1484.7 L2236.1 1479 Z" fill="#000000" fill-rule="nonzero" fill-opacity="1" /><path clip-path="url(#clip800)" d="M2090.2 1534.16 L2080.68 1559.96 L2099.75 1559.96 L2090.2 1534.16 M2086.24 1527.25 L2094.19 1527.25 L2113.95 1579.09 L2106.66 1579.09 L2101.93 1565.79 L2078.57 1565.79 L2073.84 1579.09 L2066.45 1579.09 L2086.24 1527.25 Z" fill="#000000" fill-rule="nonzero" fill-opacity="1" /><path clip-path="url(#clip800)" d="M2121.52 1527.25 L2128.53 1527.25 L2128.53 1573.19 L2153.77 1573.19 L2153.77 1579.09 L2121.52 1579.09 L2121.52 1527.25 Z" fill="#000000" fill-rule="nonzero" fill-opacity="1" /><path clip-path="url(#clip800)" d="M2168.15 1533.01 L2168.15 1552.49 L2176.97 1552.49 Q2181.86 1552.49 2184.54 1549.96 Q2187.21 1547.42 2187.21 1542.73 Q2187.21 1538.08 2184.54 1535.55 Q2181.86 1533.01 2176.97 1533.01 L2168.15 1533.01 M2161.14 1527.25 L2176.97 1527.25 Q2185.68 1527.25 2190.13 1531.21 Q2194.61 1535.13 2194.61 1542.73 Q2194.61 1550.41 2190.13 1554.33 Q2185.68 1558.25 2176.97 1558.25 L2168.15 1558.25 L2168.15 1579.09 L2161.14 1579.09 L2161.14 1527.25 Z" fill="#000000" fill-rule="nonzero" fill-opacity="1" /><path clip-path="url(#clip800)" d="M2242.84 1531.24 L2242.84 1538.64 Q2239.29 1535.34 2235.27 1533.71 Q2231.27 1532.07 2226.76 1532.07 Q2217.87 1532.07 2213.15 1537.53 Q2208.43 1542.94 2208.43 1553.22 Q2208.43 1563.46 2213.15 1568.91 Q2217.87 1574.33 2226.76 1574.33 Q2231.27 1574.33 2235.27 1572.7 Q2239.29 1571.07 2242.84 1567.77 L2242.84 1575.09 Q2239.16 1577.59 2235.02 1578.84 Q2230.93 1580.09 2226.34 1580.09 Q2214.57 1580.09 2207.8 1572.91 Q2201.03 1565.69 2201.03 1553.22 Q2201.03 1540.72 2207.8 1533.53 Q2214.57 1526.31 2226.34 1526.31 Q2231 1526.31 2235.09 1527.56 Q2239.23 1528.78 2242.84 1531.24 Z" fill="#000000" fill-rule="nonzero" fill-opacity="1" /><path clip-path="url(#clip800)" d="M2271 1534.16 L2261.48 1559.96 L2280.54 1559.96 L2271 1534.16 M2267.04 1527.25 L2274.99 1527.25 L2294.75 1579.09 L2287.45 1579.09 L2282.73 1565.79 L2259.36 1565.79 L2254.64 1579.09 L2247.25 1579.09 L2267.04 1527.25 Z" fill="#000000" fill-rule="nonzero" fill-opacity="1" /><path clip-path="url(#clip800)" d="M2302.32 1527.25 L2309.33 1527.25 L2309.33 1548.5 L2334.82 1548.5 L2334.82 1527.25 L2341.83 1527.25 L2341.83 1579.09 L2334.82 1579.09 L2334.82 1554.4 L2309.33 1554.4 L2309.33 1579.09 L2302.32 1579.09 L2302.32 1527.25 Z" fill="#000000" fill-rule="nonzero" fill-opacity="1" /><polyline clip-path="url(#clip802)" style="stroke:#000000; stroke-linecap:round; stroke-linejoin:round; stroke-width:2; stroke-opacity:0.1; fill:none" points="306.321,1173.29 2352.76,1173.29 "/>
<polyline clip-path="url(#clip802)" style="stroke:#000000; stroke-linecap:round; stroke-linejoin:round; stroke-width:2; stroke-opacity:0.1; fill:none" points="306.321,874.907 2352.76,874.907 "/>
<polyline clip-path="url(#clip802)" style="stroke:#000000; stroke-linecap:round; stroke-linejoin:round; stroke-width:2; stroke-opacity:0.1; fill:none" points="306.321,576.524 2352.76,576.524 "/>
<polyline clip-path="url(#clip802)" style="stroke:#000000; stroke-linecap:round; stroke-linejoin:round; stroke-width:2; stroke-opacity:0.1; fill:none" points="306.321,278.141 2352.76,278.141 "/>
<polyline clip-path="url(#clip800)" style="stroke:#000000; stroke-linecap:round; stroke-linejoin:round; stroke-width:4; stroke-opacity:1; fill:none" points="306.321,1417.33 306.321,47.2441 "/>
<polyline clip-path="url(#clip800)" style="stroke:#000000; stroke-linecap:round; stroke-linejoin:round; stroke-width:4; stroke-opacity:1; fill:none" points="306.321,1173.29 325.218,1173.29 "/>
<polyline clip-path="url(#clip800)" style="stroke:#000000; stroke-linecap:round; stroke-linejoin:round; stroke-width:4; stroke-opacity:1; fill:none" points="306.321,874.907 325.218,874.907 "/>
<polyline clip-path="url(#clip800)" style="stroke:#000000; stroke-linecap:round; stroke-linejoin:round; stroke-width:4; stroke-opacity:1; fill:none" points="306.321,576.524 325.218,576.524 "/>
<polyline clip-path="url(#clip800)" style="stroke:#000000; stroke-linecap:round; stroke-linejoin:round; stroke-width:4; stroke-opacity:1; fill:none" points="306.321,278.141 325.218,278.141 "/>
<path clip-path="url(#clip800)" d="M183.828 1151.99 Q178.411 1151.99 175.668 1157.34 Q172.96 1162.65 172.96 1173.34 Q172.96 1184 175.668 1189.35 Q178.411 1194.66 183.828 1194.66 Q189.279 1194.66 191.988 1189.35 Q194.731 1184 194.731 1173.34 Q194.731 1162.65 191.988 1157.34 Q189.279 1151.99 183.828 1151.99 M183.828 1146.43 Q192.543 1146.43 197.127 1153.34 Q201.745 1160.22 201.745 1173.34 Q201.745 1186.43 197.127 1193.34 Q192.543 1200.22 183.828 1200.22 Q175.113 1200.22 170.495 1193.34 Q165.912 1186.43 165.912 1173.34 Q165.912 1160.22 170.495 1153.34 Q175.113 1146.43 183.828 1146.43 Z" fill="#000000" fill-rule="nonzero" fill-opacity="1" /><path clip-path="url(#clip800)" d="M214.071 1190.39 L221.397 1190.39 L221.397 1199.21 L214.071 1199.21 L214.071 1190.39 Z" fill="#000000" fill-rule="nonzero" fill-opacity="1" /><path clip-path="url(#clip800)" d="M255.946 1153.48 L238.238 1181.15 L255.946 1181.15 L255.946 1153.48 M254.105 1147.37 L262.925 1147.37 L262.925 1181.15 L270.321 1181.15 L270.321 1186.99 L262.925 1186.99 L262.925 1199.21 L255.946 1199.21 L255.946 1186.99 L232.543 1186.99 L232.543 1180.22 L254.105 1147.37 Z" fill="#000000" fill-rule="nonzero" fill-opacity="1" /><path clip-path="url(#clip800)" d="M186.05 853.605 Q180.634 853.605 177.891 858.953 Q175.182 864.265 175.182 874.959 Q175.182 885.619 177.891 890.966 Q180.634 896.279 186.05 896.279 Q191.502 896.279 194.21 890.966 Q196.953 885.619 196.953 874.959 Q196.953 864.265 194.21 858.953 Q191.502 853.605 186.05 853.605 M186.05 848.05 Q194.766 848.05 199.349 854.959 Q203.967 861.834 203.967 874.959 Q203.967 888.05 199.349 894.959 Q194.766 901.834 186.05 901.834 Q177.335 901.834 172.717 894.959 Q168.134 888.05 168.134 874.959 Q168.134 861.834 172.717 854.959 Q177.335 848.05 186.05 848.05 Z" fill="#000000" fill-rule="nonzero" fill-opacity="1" /><path clip-path="url(#clip800)" d="M216.293 892.008 L223.62 892.008 L223.62 900.827 L216.293 900.827 L216.293 892.008 Z" fill="#000000" fill-rule="nonzero" fill-opacity="1" /><path clip-path="url(#clip800)" d="M238.967 848.987 L266.501 848.987 L266.501 854.89 L245.39 854.89 L245.39 867.598 Q246.918 867.077 248.446 866.834 Q249.974 866.557 251.501 866.557 Q260.182 866.557 265.251 871.314 Q270.321 876.07 270.321 884.195 Q270.321 892.563 265.112 897.216 Q259.904 901.834 250.425 901.834 Q247.161 901.834 243.758 901.279 Q240.39 900.723 236.779 899.612 L236.779 892.563 Q239.904 894.265 243.237 895.098 Q246.571 895.931 250.286 895.931 Q256.293 895.931 259.8 892.772 Q263.307 889.612 263.307 884.195 Q263.307 878.779 259.8 875.619 Q256.293 872.459 250.286 872.459 Q247.474 872.459 244.661 873.084 Q241.883 873.709 238.967 875.029 L238.967 848.987 Z" fill="#000000" fill-rule="nonzero" fill-opacity="1" /><path clip-path="url(#clip800)" d="M184.314 555.222 Q178.898 555.222 176.155 560.569 Q173.446 565.882 173.446 576.576 Q173.446 587.236 176.155 592.583 Q178.898 597.896 184.314 597.896 Q189.766 597.896 192.474 592.583 Q195.217 587.236 195.217 576.576 Q195.217 565.882 192.474 560.569 Q189.766 555.222 184.314 555.222 M184.314 549.667 Q193.029 549.667 197.613 556.576 Q202.231 563.451 202.231 576.576 Q202.231 589.667 197.613 596.576 Q193.029 603.451 184.314 603.451 Q175.599 603.451 170.981 596.576 Q166.398 589.667 166.398 576.576 Q166.398 563.451 170.981 556.576 Q175.599 549.667 184.314 549.667 Z" fill="#000000" fill-rule="nonzero" fill-opacity="1" /><path clip-path="url(#clip800)" d="M214.557 593.625 L221.883 593.625 L221.883 602.444 L214.557 602.444 L214.557 593.625 Z" fill="#000000" fill-rule="nonzero" fill-opacity="1" /><path clip-path="url(#clip800)" d="M253.029 573.729 Q248.307 573.729 245.529 576.958 Q242.786 580.187 242.786 585.812 Q242.786 591.403 245.529 594.667 Q248.307 597.896 253.029 597.896 Q257.751 597.896 260.494 594.667 Q263.272 591.403 263.272 585.812 Q263.272 580.187 260.494 576.958 Q257.751 573.729 253.029 573.729 M266.953 551.75 L266.953 558.139 Q264.314 556.889 261.605 556.229 Q258.932 555.569 256.293 555.569 Q249.349 555.569 245.668 560.257 Q242.022 564.944 241.501 574.424 Q243.55 571.403 246.64 569.806 Q249.731 568.174 253.446 568.174 Q261.258 568.174 265.772 572.931 Q270.321 577.653 270.321 585.812 Q270.321 593.798 265.598 598.625 Q260.876 603.451 253.029 603.451 Q244.036 603.451 239.279 596.576 Q234.522 589.667 234.522 576.576 Q234.522 564.285 240.356 556.993 Q246.189 549.667 256.015 549.667 Q258.654 549.667 261.328 550.188 Q264.036 550.708 266.953 551.75 Z" fill="#000000" fill-rule="nonzero" fill-opacity="1" /><path clip-path="url(#clip800)" d="M185.911 256.839 Q180.495 256.839 177.752 262.186 Q175.043 267.499 175.043 278.193 Q175.043 288.853 177.752 294.2 Q180.495 299.513 185.911 299.513 Q191.363 299.513 194.071 294.2 Q196.814 288.853 196.814 278.193 Q196.814 267.499 194.071 262.186 Q191.363 256.839 185.911 256.839 M185.911 251.284 Q194.627 251.284 199.21 258.193 Q203.828 265.068 203.828 278.193 Q203.828 291.283 199.21 298.193 Q194.627 305.068 185.911 305.068 Q177.196 305.068 172.578 298.193 Q167.995 291.283 167.995 278.193 Q167.995 265.068 172.578 258.193 Q177.196 251.284 185.911 251.284 Z" fill="#000000" fill-rule="nonzero" fill-opacity="1" /><path clip-path="url(#clip800)" d="M216.154 295.242 L223.481 295.242 L223.481 304.061 L216.154 304.061 L216.154 295.242 Z" fill="#000000" fill-rule="nonzero" fill-opacity="1" /><path clip-path="url(#clip800)" d="M236.988 252.221 L270.321 252.221 L270.321 255.207 L251.501 304.061 L244.175 304.061 L261.883 258.124 L236.988 258.124 L236.988 252.221 Z" fill="#000000" fill-rule="nonzero" fill-opacity="1" /><path clip-path="url(#clip800)" d="M115.022 1245.88 L24.9859 1245.88 Q22.1284 1245.88 22.1284 1243.96 Q22.1284 1242.04 25.1265 1242.04 L114.788 1242.04 Q117.879 1242.04 117.879 1243.96 Q117.879 1245.88 115.022 1245.88 M115.022 1235.3 L25.6886 1235.3 Q22.1284 1235.3 22.1284 1233.38 Q22.1284 1231.46 25.1265 1231.46 L114.788 1231.46 Q117.879 1231.46 117.879 1233.38 Q117.879 1235.3 115.022 1235.3 Z" fill="#000000" fill-rule="nonzero" fill-opacity="1" /><path clip-path="url(#clip800)" d="M29.5299 1131.9 Q31.4505 1131.9 31.4505 1133.5 Q31.5442 1136.31 32.1064 1138.23 Q32.6217 1140.15 33.6522 1141.27 Q34.6828 1142.35 35.8071 1142.96 Q36.8845 1143.52 38.5241 1143.9 L72.5804 1152.42 Q82.1836 1154.86 89.1634 1162.73 Q96.0965 1170.6 96.0965 1179.55 Q96.0965 1184.65 93.9885 1188.91 Q91.8804 1193.13 87.6176 1195.75 Q83.3547 1198.38 77.6864 1198.38 Q74.9694 1198.38 72.1119 1197.67 L48.4084 1191.87 L39.9763 1189.71 Q33.7459 1188.12 33.1838 1188.12 Q32.2937 1188.12 32.0595 1188.68 Q31.7785 1189.2 31.6379 1190.69 L31.4505 1194.35 Q31.4505 1195.47 31.4037 1195.94 Q31.3568 1196.36 31.1226 1196.69 Q30.8884 1197.02 30.3731 1197.02 Q29.7173 1197.02 29.2957 1196.88 Q28.8272 1196.69 28.6867 1196.36 Q28.5462 1196.03 28.4993 1195.8 Q28.4525 1195.57 28.4525 1195.19 L28.7335 1182.82 L28.4525 1170.55 Q28.4525 1169.19 29.5299 1169.19 Q30.8884 1169.19 31.1695 1169.8 Q31.4505 1170.41 31.4505 1172.47 Q31.4505 1175.99 31.919 1177.58 Q32.3406 1179.12 33.0901 1179.59 Q33.7928 1180.01 35.854 1180.53 L73.1893 1189.85 Q75.0631 1190.32 76.9369 1190.6 Q78.7639 1190.84 79.7008 1190.84 L80.6377 1190.88 Q86.587 1190.88 89.8661 1187.6 Q93.1453 1184.28 93.1453 1179.17 Q93.1453 1171.68 87.196 1164.7 Q81.2467 1157.67 71.9245 1155.28 L37.6809 1146.66 Q36.8377 1146.38 35.6666 1146.38 Q33.7928 1146.38 32.6685 1147.78 Q31.4974 1149.14 31.4505 1152.89 Q31.4505 1154.62 30.3731 1154.62 Q29.4831 1154.62 29.0614 1154.3 Q28.593 1153.92 28.5462 1153.64 Q28.4525 1153.31 28.4525 1152.89 Q28.4525 1151.3 28.593 1147.93 Q28.7335 1144.55 28.7335 1142.91 Q28.7335 1141.27 28.593 1137.99 Q28.4525 1134.71 28.4525 1133.12 Q28.4525 1132.56 28.7335 1132.28 Q28.9678 1131.95 29.2488 1131.9 L29.5299 1131.9 Z" fill="#000000" fill-rule="nonzero" fill-opacity="1" /><path clip-path="url(#clip800)" d="M103.284 1122.31 Q102.137 1122.31 101.383 1120.77 L96.9557 1111.42 L92.5288 1120.9 Q91.873 1122.31 90.7253 1122.31 Q90.0695 1122.31 89.4792 1121.78 Q88.8562 1121.23 88.8562 1120.51 Q88.8562 1119.98 89.5776 1119.03 L95.6112 1110.7 Q84.5277 1111.72 84.1998 1111.68 Q83.544 1111.68 83.0521 1111.19 Q82.5274 1110.7 82.5274 1109.88 Q82.5274 1109.23 83.0193 1108.7 Q83.4784 1108.14 84.1998 1108.14 L95.6112 1109.13 L90.1023 1101.68 Q88.8234 1099.95 88.8562 1099.32 Q88.8562 1098.57 89.4464 1098.04 Q90.0367 1097.52 90.7253 1097.52 Q91.873 1097.52 92.5944 1099.06 L97.0212 1108.41 L101.481 1098.93 Q102.137 1097.52 103.284 1097.52 Q103.94 1097.52 104.563 1098.08 Q105.154 1098.6 105.154 1099.32 Q105.154 1099.72 104.76 1100.4 Q104.694 1100.54 103.645 1101.95 Q102.596 1103.36 100.989 1105.55 Q99.3822 1107.72 98.3657 1109.13 Q109.449 1108.11 109.777 1108.14 Q110.433 1108.14 110.958 1108.64 Q111.482 1109.13 111.482 1109.95 Q111.482 1110.6 111.023 1111.16 Q110.531 1111.68 109.777 1111.68 L98.3657 1110.7 L105.154 1120.08 Q105.154 1121.1 104.662 1121.65 Q104.137 1122.18 103.842 1122.24 Q103.547 1122.31 103.284 1122.31 Z" fill="#000000" fill-rule="nonzero" fill-opacity="1" /><path clip-path="url(#clip800)" d="M29.5299 1012.34 Q31.4505 1012.34 31.4505 1013.93 Q31.5442 1016.74 32.1064 1018.66 Q32.6217 1020.59 33.6522 1021.71 Q34.6828 1022.79 35.8071 1023.4 Q36.8845 1023.96 38.5241 1024.33 L72.5804 1032.86 Q82.1836 1035.29 89.1634 1043.16 Q96.0965 1051.03 96.0965 1059.98 Q96.0965 1065.09 93.9885 1069.35 Q91.8804 1073.57 87.6176 1076.19 Q83.3547 1078.81 77.6864 1078.81 Q74.9694 1078.81 72.1119 1078.11 L48.4084 1072.3 L39.9763 1070.15 Q33.7459 1068.55 33.1838 1068.55 Q32.2937 1068.55 32.0595 1069.12 Q31.7785 1069.63 31.6379 1071.13 L31.4505 1074.78 Q31.4505 1075.91 31.4037 1076.38 Q31.3568 1076.8 31.1226 1077.13 Q30.8884 1077.46 30.3731 1077.46 Q29.7173 1077.46 29.2957 1077.31 Q28.8272 1077.13 28.6867 1076.8 Q28.5462 1076.47 28.4993 1076.24 Q28.4525 1076 28.4525 1075.63 L28.7335 1063.26 L28.4525 1050.99 Q28.4525 1049.63 29.5299 1049.63 Q30.8884 1049.63 31.1695 1050.24 Q31.4505 1050.85 31.4505 1052.91 Q31.4505 1056.42 31.919 1058.01 Q32.3406 1059.56 33.0901 1060.03 Q33.7928 1060.45 35.854 1060.97 L73.1893 1070.29 Q75.0631 1070.76 76.9369 1071.04 Q78.7639 1071.27 79.7008 1071.27 L80.6377 1071.32 Q86.587 1071.32 89.8661 1068.04 Q93.1453 1064.71 93.1453 1059.61 Q93.1453 1052.11 87.196 1045.13 Q81.2467 1038.11 71.9245 1035.72 L37.6809 1027.1 Q36.8377 1026.82 35.6666 1026.82 Q33.7928 1026.82 32.6685 1028.22 Q31.4974 1029.58 31.4505 1033.33 Q31.4505 1035.06 30.3731 1035.06 Q29.4831 1035.06 29.0614 1034.73 Q28.593 1034.36 28.5462 1034.08 Q28.4525 1033.75 28.4525 1033.33 Q28.4525 1031.73 28.593 1028.36 Q28.7335 1024.99 28.7335 1023.35 Q28.7335 1021.71 28.593 1018.43 Q28.4525 1015.15 28.4525 1013.56 Q28.4525 1013 28.7335 1012.72 Q28.9678 1012.39 29.2488 1012.34 L29.5299 1012.34 Z" fill="#000000" fill-rule="nonzero" fill-opacity="1" /><path clip-path="url(#clip800)" d="M103.284 1002.75 Q102.137 1002.75 101.383 1001.2 L96.9557 991.859 L92.5288 1001.34 Q91.873 1002.75 90.7253 1002.75 Q90.0695 1002.75 89.4792 1002.22 Q88.8562 1001.66 88.8562 1000.94 Q88.8562 1000.42 89.5776 999.466 L95.6112 991.137 Q84.5277 992.154 84.1998 992.121 Q83.544 992.121 83.0521 991.629 Q82.5274 991.137 82.5274 990.318 Q82.5274 989.662 83.0193 989.137 Q83.4784 988.58 84.1998 988.58 L95.6112 989.563 L90.1023 982.12 Q88.8234 980.382 88.8562 979.759 Q88.8562 979.004 89.4464 978.48 Q90.0367 977.955 90.7253 977.955 Q91.873 977.955 92.5944 979.496 L97.0212 988.842 L101.481 979.365 Q102.137 977.955 103.284 977.955 Q103.94 977.955 104.563 978.513 Q105.154 979.037 105.154 979.759 Q105.154 980.152 104.76 980.841 Q104.694 980.972 103.645 982.382 Q102.596 983.792 100.989 985.989 Q99.3822 988.153 98.3657 989.563 Q109.449 988.547 109.777 988.58 Q110.433 988.58 110.958 989.071 Q111.482 989.563 111.482 990.383 Q111.482 991.039 111.023 991.596 Q110.531 992.121 109.777 992.121 L98.3657 991.137 L105.154 1000.52 Q105.154 1001.53 104.662 1002.09 Q104.137 1002.61 103.842 1002.68 Q103.547 1002.75 103.284 1002.75 Z" fill="#000000" fill-rule="nonzero" fill-opacity="1" /><path clip-path="url(#clip800)" d="M-1.34896 997.423 Q-3.02133 997.423 -3.70995 996.406 Q-4.43136 995.39 -4.43136 994.307 Q-4.43136 992.963 -3.61157 992.11 Q-2.82458 991.225 -1.34896 991.225 Q-0.693135 991.225 -0.332429 991.291 L19.9327 993.52 L19.9327 995.062 L-0.332429 997.357 Q-0.693135 997.423 -1.34896 997.423 Z" fill="#000000" fill-rule="nonzero" fill-opacity="1" /><path clip-path="url(#clip800)" d="M68.6454 859.062 Q69.2075 858.5 70.0039 858.5 Q70.8002 858.5 71.3624 859.062 Q71.9245 859.624 71.9245 860.42 L71.9245 920.475 Q71.9245 921.272 71.3624 921.834 Q70.8002 922.396 70.0039 922.396 Q69.2075 922.396 68.6454 921.834 Q68.0832 921.272 68.0832 920.475 L68.0832 860.42 Q68.0832 859.624 68.6454 859.062 Z" fill="#000000" fill-rule="nonzero" fill-opacity="1" /><path clip-path="url(#clip800)" d="M29.5299 755.403 Q31.4505 755.403 31.4505 756.996 Q31.5442 759.806 32.1064 761.727 Q32.6217 763.648 33.6522 764.772 Q34.6828 765.849 35.8071 766.458 Q36.8845 767.021 38.5241 767.395 L72.5804 775.921 Q82.1836 778.357 89.1634 786.227 Q96.0965 794.097 96.0965 803.044 Q96.0965 808.15 93.9885 812.413 Q91.8804 816.629 87.6176 819.253 Q83.3547 821.876 77.6864 821.876 Q74.9694 821.876 72.1119 821.173 L48.4084 815.364 L39.9763 813.21 Q33.7459 811.617 33.1838 811.617 Q32.2937 811.617 32.0595 812.179 Q31.7785 812.694 31.6379 814.193 L31.4505 817.847 Q31.4505 818.972 31.4037 819.44 Q31.3568 819.862 31.1226 820.189 Q30.8884 820.517 30.3731 820.517 Q29.7173 820.517 29.2957 820.377 Q28.8272 820.189 28.6867 819.862 Q28.5462 819.534 28.4993 819.299 Q28.4525 819.065 28.4525 818.69 L28.7335 806.323 L28.4525 794.05 Q28.4525 792.692 29.5299 792.692 Q30.8884 792.692 31.1695 793.301 Q31.4505 793.91 31.4505 795.971 Q31.4505 799.484 31.919 801.077 Q32.3406 802.623 33.0901 803.091 Q33.7928 803.513 35.854 804.028 L73.1893 813.35 Q75.0631 813.819 76.9369 814.1 Q78.7639 814.334 79.7008 814.334 L80.6377 814.381 Q86.587 814.381 89.8661 811.102 Q93.1453 807.776 93.1453 802.669 Q93.1453 795.174 87.196 788.194 Q81.2467 781.168 71.9245 778.779 L37.6809 770.159 Q36.8377 769.878 35.6666 769.878 Q33.7928 769.878 32.6685 771.283 Q31.4974 772.642 31.4505 776.39 Q31.4505 778.123 30.3731 778.123 Q29.4831 778.123 29.0614 777.795 Q28.593 777.42 28.5462 777.139 Q28.4525 776.811 28.4525 776.39 Q28.4525 774.797 28.593 771.424 Q28.7335 768.051 28.7335 766.412 Q28.7335 764.772 28.593 761.493 Q28.4525 758.214 28.4525 756.621 Q28.4525 756.059 28.7335 755.778 Q28.9678 755.45 29.2488 755.403 L29.5299 755.403 Z" fill="#000000" fill-rule="nonzero" fill-opacity="1" /><path clip-path="url(#clip800)" d="M29.5299 679.792 Q31.4505 679.792 31.4505 681.384 Q31.5442 684.195 32.1064 686.116 Q32.6217 688.036 33.6522 689.161 Q34.6828 690.238 35.8071 690.847 Q36.8845 691.409 38.5241 691.784 L72.5804 700.31 Q82.1836 702.746 89.1634 710.616 Q96.0965 718.486 96.0965 727.433 Q96.0965 732.539 93.9885 736.802 Q91.8804 741.018 87.6176 743.641 Q83.3547 746.265 77.6864 746.265 Q74.9694 746.265 72.1119 745.562 L48.4084 739.753 L39.9763 737.598 Q33.7459 736.006 33.1838 736.006 Q32.2937 736.006 32.0595 736.568 Q31.7785 737.083 31.6379 738.582 L31.4505 742.236 Q31.4505 743.36 31.4037 743.829 Q31.3568 744.25 31.1226 744.578 Q30.8884 744.906 30.3731 744.906 Q29.7173 744.906 29.2957 744.766 Q28.8272 744.578 28.6867 744.25 Q28.5462 743.922 28.4993 743.688 Q28.4525 743.454 28.4525 743.079 L28.7335 730.712 L28.4525 718.439 Q28.4525 717.08 29.5299 717.08 Q30.8884 717.08 31.1695 717.689 Q31.4505 718.298 31.4505 720.359 Q31.4505 723.873 31.919 725.465 Q32.3406 727.011 33.0901 727.48 Q33.7928 727.901 35.854 728.417 L73.1893 737.739 Q75.0631 738.207 76.9369 738.488 Q78.7639 738.723 79.7008 738.723 L80.6377 738.769 Q86.587 738.769 89.8661 735.49 Q93.1453 732.164 93.1453 727.058 Q93.1453 719.563 87.196 712.583 Q81.2467 705.556 71.9245 703.167 L37.6809 694.548 Q36.8377 694.267 35.6666 694.267 Q33.7928 694.267 32.6685 695.672 Q31.4974 697.031 31.4505 700.778 Q31.4505 702.511 30.3731 702.511 Q29.4831 702.511 29.0614 702.184 Q28.593 701.809 28.5462 701.528 Q28.4525 701.2 28.4525 700.778 Q28.4525 699.185 28.593 695.813 Q28.7335 692.44 28.7335 690.8 Q28.7335 689.161 28.593 685.882 Q28.4525 682.602 28.4525 681.01 Q28.4525 680.448 28.7335 680.166 Q28.9678 679.839 29.2488 679.792 L29.5299 679.792 Z" fill="#000000" fill-rule="nonzero" fill-opacity="1" /><path clip-path="url(#clip800)" d="M30.2794 673.801 Q27.8903 673.801 26.9066 672.349 Q25.876 670.897 25.876 669.351 Q25.876 667.43 27.0471 666.212 Q28.1714 664.948 30.2794 664.948 Q31.2163 664.948 31.7316 665.041 L60.6817 668.227 L60.6817 670.428 L31.7316 673.708 Q31.2163 673.801 30.2794 673.801 Z" fill="#000000" fill-rule="nonzero" fill-opacity="1" /><path clip-path="url(#clip800)" d="M115.022 647.403 L24.9859 647.403 Q22.1284 647.403 22.1284 645.482 Q22.1284 643.562 25.1265 643.562 L114.788 643.562 Q117.879 643.562 117.879 645.482 Q117.879 647.403 115.022 647.403 M115.022 636.816 L25.6886 636.816 Q22.1284 636.816 22.1284 634.895 Q22.1284 632.975 25.1265 632.975 L114.788 632.975 Q117.879 632.975 117.879 634.895 Q117.879 636.816 115.022 636.816 Z" fill="#000000" fill-rule="nonzero" fill-opacity="1" /><path clip-path="url(#clip800)" d="M100.945 575.203 L112.553 576.547 Q113.603 576.646 113.93 576.81 Q114.226 576.974 114.226 577.498 Q114.226 578.285 113.439 578.285 Q113.111 578.285 112.225 578.154 Q110.422 577.957 108.585 577.957 Q106.52 577.957 105.241 578.351 Q103.929 578.712 102.978 579.761 Q102.027 580.81 101.634 582.745 Q101.207 584.68 101.207 587.762 L101.207 596.616 Q101.207 598.78 101.601 599.305 Q101.994 599.797 103.831 600.256 L120.882 604.551 L120.882 598.452 Q120.882 594.189 119.636 592.517 Q118.39 590.844 114.422 589.795 Q113.799 589.631 113.57 589.566 Q113.307 589.467 113.176 589.303 Q113.012 589.107 113.012 588.779 Q113.012 588.483 113.209 588.287 Q113.373 588.09 113.57 588.024 L113.767 587.959 Q114.094 587.959 114.849 588.156 L129.408 591.861 Q130.392 592.123 130.621 592.287 Q130.818 592.418 130.818 592.878 Q130.818 593.205 130.589 593.435 Q130.359 593.665 129.998 593.665 Q129.605 593.599 129.277 593.468 Q127.277 593.009 125.998 593.009 Q125.178 593.009 124.686 593.173 Q124.194 593.337 123.768 593.894 Q123.342 594.452 123.145 595.599 Q122.948 596.747 122.948 598.583 L122.948 605.076 L139.672 609.24 L141.213 609.536 Q141.902 609.536 142.164 609.175 Q142.426 608.781 142.557 607.371 Q142.721 605.273 142.721 603.895 Q142.721 602.19 142.787 601.994 Q142.984 601.6 143.508 601.6 Q144.099 601.6 144.427 601.862 Q144.722 602.125 144.754 602.354 Q144.787 602.584 144.787 603.01 L144.59 613.011 L144.787 621.865 Q144.787 622.882 143.967 622.882 Q143.344 622.882 143.082 622.619 Q142.787 622.357 142.754 622.062 Q142.721 621.767 142.721 621.013 Q142.721 619.373 142.623 618.389 Q142.525 617.406 142.393 616.782 Q142.229 616.127 141.77 615.799 Q141.311 615.438 140.918 615.274 Q140.492 615.11 139.541 614.881 L104.027 606.027 Q102.814 605.699 102.421 605.699 Q101.994 605.699 101.732 605.994 Q101.47 606.256 101.371 606.978 Q101.24 607.699 101.24 608.29 Q101.207 608.847 101.207 610.06 Q101.207 610.847 101.175 611.175 Q101.142 611.47 100.978 611.7 Q100.814 611.929 100.453 611.929 Q99.5351 611.929 99.3383 611.536 Q99.1088 611.11 99.1088 609.929 L99.1088 577.006 Q99.1088 575.695 99.4039 575.4 Q99.6662 575.072 100.945 575.203 Z" fill="#000000" fill-rule="nonzero" fill-opacity="1" /><path clip-path="url(#clip800)" d="M116.615 565.293 Q116.146 565.293 115.116 564.918 L24.6112 531.05 Q24.5175 531.05 24.0022 530.815 Q23.4869 530.581 23.159 530.441 Q22.7842 530.3 22.5032 530.019 Q22.2221 529.691 22.2221 529.316 Q22.2221 528.379 23.3932 528.379 Q23.4869 528.379 24.6112 528.661 L115.209 562.623 Q116.849 563.185 117.317 563.56 Q117.786 563.888 117.786 564.45 Q117.786 565.293 116.615 565.293 Z" fill="#000000" fill-rule="nonzero" fill-opacity="1" /><path clip-path="url(#clip800)" d="M115.022 517.785 L24.9859 517.785 Q22.1284 517.785 22.1284 515.865 Q22.1284 513.944 25.1265 513.944 L114.788 513.944 Q117.879 513.944 117.879 515.865 Q117.879 517.785 115.022 517.785 M115.022 507.198 L25.6886 507.198 Q22.1284 507.198 22.1284 505.278 Q22.1284 503.357 25.1265 503.357 L114.788 503.357 Q117.879 503.357 117.879 505.278 Q117.879 507.198 115.022 507.198 Z" fill="#000000" fill-rule="nonzero" fill-opacity="1" /><path clip-path="url(#clip800)" d="M29.5299 408.797 Q31.4505 408.797 31.4505 410.389 Q31.5442 413.2 32.1064 415.121 Q32.6217 417.041 33.6522 418.166 Q34.6828 419.243 35.8071 419.852 Q36.8845 420.414 38.5241 420.789 L72.5804 429.315 Q82.1836 431.751 89.1634 439.621 Q96.0965 447.491 96.0965 456.438 Q96.0965 461.544 93.9885 465.807 Q91.8804 470.023 87.6176 472.646 Q83.3547 475.27 77.6864 475.27 Q74.9694 475.27 72.1119 474.567 L48.4084 468.758 L39.9763 466.603 Q33.7459 465.011 33.1838 465.011 Q32.2937 465.011 32.0595 465.573 Q31.7785 466.088 31.6379 467.587 L31.4505 471.241 Q31.4505 472.365 31.4037 472.834 Q31.3568 473.255 31.1226 473.583 Q30.8884 473.911 30.3731 473.911 Q29.7173 473.911 29.2957 473.771 Q28.8272 473.583 28.6867 473.255 Q28.5462 472.927 28.4993 472.693 Q28.4525 472.459 28.4525 472.084 L28.7335 459.717 L28.4525 447.444 Q28.4525 446.085 29.5299 446.085 Q30.8884 446.085 31.1695 446.694 Q31.4505 447.303 31.4505 449.364 Q31.4505 452.878 31.919 454.47 Q32.3406 456.016 33.0901 456.485 Q33.7928 456.906 35.854 457.422 L73.1893 466.744 Q75.0631 467.212 76.9369 467.493 Q78.7639 467.728 79.7008 467.728 L80.6377 467.774 Q86.587 467.774 89.8661 464.495 Q93.1453 461.169 93.1453 456.063 Q93.1453 448.568 87.196 441.588 Q81.2467 434.561 71.9245 432.172 L37.6809 423.553 Q36.8377 423.272 35.6666 423.272 Q33.7928 423.272 32.6685 424.677 Q31.4974 426.036 31.4505 429.783 Q31.4505 431.517 30.3731 431.517 Q29.4831 431.517 29.0614 431.189 Q28.593 430.814 28.5462 430.533 Q28.4525 430.205 28.4525 429.783 Q28.4525 428.191 28.593 424.818 Q28.7335 421.445 28.7335 419.805 Q28.7335 418.166 28.593 414.887 Q28.4525 411.607 28.4525 410.015 Q28.4525 409.453 28.7335 409.171 Q28.9678 408.844 29.2488 408.797 L29.5299 408.797 Z" fill="#000000" fill-rule="nonzero" fill-opacity="1" /><path clip-path="url(#clip800)" d="M29.5299 333.185 Q31.4505 333.185 31.4505 334.778 Q31.5442 337.589 32.1064 339.509 Q32.6217 341.43 33.6522 342.554 Q34.6828 343.632 35.8071 344.241 Q36.8845 344.803 38.5241 345.178 L72.5804 353.703 Q82.1836 356.139 89.1634 364.009 Q96.0965 371.879 96.0965 380.827 Q96.0965 385.933 93.9885 390.196 Q91.8804 394.412 87.6176 397.035 Q83.3547 399.658 77.6864 399.658 Q74.9694 399.658 72.1119 398.956 L48.4084 393.147 L39.9763 390.992 Q33.7459 389.399 33.1838 389.399 Q32.2937 389.399 32.0595 389.961 Q31.7785 390.477 31.6379 391.976 L31.4505 395.63 Q31.4505 396.754 31.4037 397.222 Q31.3568 397.644 31.1226 397.972 Q30.8884 398.3 30.3731 398.3 Q29.7173 398.3 29.2957 398.159 Q28.8272 397.972 28.6867 397.644 Q28.5462 397.316 28.4993 397.082 Q28.4525 396.848 28.4525 396.473 L28.7335 384.106 L28.4525 371.832 Q28.4525 370.474 29.5299 370.474 Q30.8884 370.474 31.1695 371.083 Q31.4505 371.692 31.4505 373.753 Q31.4505 377.266 31.919 378.859 Q32.3406 380.405 33.0901 380.874 Q33.7928 381.295 35.854 381.81 L73.1893 391.133 Q75.0631 391.601 76.9369 391.882 Q78.7639 392.116 79.7008 392.116 L80.6377 392.163 Q86.587 392.163 89.8661 388.884 Q93.1453 385.558 93.1453 380.452 Q93.1453 372.957 87.196 365.977 Q81.2467 358.95 71.9245 356.561 L37.6809 347.942 Q36.8377 347.661 35.6666 347.661 Q33.7928 347.661 32.6685 349.066 Q31.4974 350.424 31.4505 354.172 Q31.4505 355.905 30.3731 355.905 Q29.4831 355.905 29.0614 355.577 Q28.593 355.203 28.5462 354.921 Q28.4525 354.594 28.4525 354.172 Q28.4525 352.579 28.593 349.206 Q28.7335 345.834 28.7335 344.194 Q28.7335 342.554 28.593 339.275 Q28.4525 335.996 28.4525 334.403 Q28.4525 333.841 28.7335 333.56 Q28.9678 333.232 29.2488 333.185 L29.5299 333.185 Z" fill="#000000" fill-rule="nonzero" fill-opacity="1" /><path clip-path="url(#clip800)" d="M30.2794 327.195 Q27.8903 327.195 26.9066 325.743 Q25.876 324.291 25.876 322.745 Q25.876 320.824 27.0471 319.606 Q28.1714 318.341 30.2794 318.341 Q31.2163 318.341 31.7316 318.435 L60.6817 321.621 L60.6817 323.822 L31.7316 327.101 Q31.2163 327.195 30.2794 327.195 Z" fill="#000000" fill-rule="nonzero" fill-opacity="1" /><path clip-path="url(#clip800)" d="M115.022 300.797 L24.9859 300.797 Q22.1284 300.797 22.1284 298.876 Q22.1284 296.955 25.1265 296.955 L114.788 296.955 Q117.879 296.955 117.879 298.876 Q117.879 300.797 115.022 300.797 M115.022 290.21 L25.6886 290.21 Q22.1284 290.21 22.1284 288.289 Q22.1284 286.368 25.1265 286.368 L114.788 286.368 Q117.879 286.368 117.879 288.289 Q117.879 290.21 115.022 290.21 Z" fill="#000000" fill-rule="nonzero" fill-opacity="1" /><path clip-path="url(#clip800)" d="M100.945 228.597 L112.553 229.941 Q113.603 230.04 113.93 230.203 Q114.226 230.367 114.226 230.892 Q114.226 231.679 113.439 231.679 Q113.111 231.679 112.225 231.548 Q110.422 231.351 108.585 231.351 Q106.52 231.351 105.241 231.745 Q103.929 232.105 102.978 233.155 Q102.027 234.204 101.634 236.139 Q101.207 238.073 101.207 241.156 L101.207 250.009 Q101.207 252.174 101.601 252.698 Q101.994 253.19 103.831 253.649 L120.882 257.945 L120.882 251.846 Q120.882 247.583 119.636 245.911 Q118.39 244.238 114.422 243.189 Q113.799 243.025 113.57 242.959 Q113.307 242.861 113.176 242.697 Q113.012 242.5 113.012 242.172 Q113.012 241.877 113.209 241.68 Q113.373 241.484 113.57 241.418 L113.767 241.353 Q114.094 241.353 114.849 241.549 L129.408 245.255 Q130.392 245.517 130.621 245.681 Q130.818 245.812 130.818 246.271 Q130.818 246.599 130.589 246.829 Q130.359 247.058 129.998 247.058 Q129.605 246.993 129.277 246.862 Q127.277 246.402 125.998 246.402 Q125.178 246.402 124.686 246.566 Q124.194 246.73 123.768 247.288 Q123.342 247.845 123.145 248.993 Q122.948 250.141 122.948 251.977 L122.948 258.47 L139.672 262.634 L141.213 262.929 Q141.902 262.929 142.164 262.569 Q142.426 262.175 142.557 260.765 Q142.721 258.666 142.721 257.289 Q142.721 255.584 142.787 255.387 Q142.984 254.994 143.508 254.994 Q144.099 254.994 144.427 255.256 Q144.722 255.518 144.754 255.748 Q144.787 255.978 144.787 256.404 L144.59 266.405 L144.787 275.259 Q144.787 276.275 143.967 276.275 Q143.344 276.275 143.082 276.013 Q142.787 275.751 142.754 275.456 Q142.721 275.161 142.721 274.406 Q142.721 272.767 142.623 271.783 Q142.525 270.799 142.393 270.176 Q142.229 269.52 141.77 269.192 Q141.311 268.832 140.918 268.668 Q140.492 268.504 139.541 268.274 L104.027 259.421 Q102.814 259.093 102.421 259.093 Q101.994 259.093 101.732 259.388 Q101.47 259.65 101.371 260.372 Q101.24 261.093 101.24 261.683 Q101.207 262.241 101.207 263.454 Q101.207 264.241 101.175 264.569 Q101.142 264.864 100.978 265.094 Q100.814 265.323 100.453 265.323 Q99.5351 265.323 99.3383 264.93 Q99.1088 264.503 99.1088 263.323 L99.1088 230.4 Q99.1088 229.089 99.4039 228.793 Q99.6662 228.466 100.945 228.597 Z" fill="#000000" fill-rule="nonzero" fill-opacity="1" /><path clip-path="url(#clip802)" d="M454.938 909.958 L409.588 909.958 L500.288 909.958 L454.938 909.958 L454.938 622.995 L454.938 909.958  Z" fill="#3da44d" fill-rule="evenodd" fill-opacity="1"/>
<polyline clip-path="url(#clip802)" style="stroke:#000000; stroke-linecap:round; stroke-linejoin:round; stroke-width:4; stroke-opacity:1; fill:none" points="454.938,909.958 409.588,909.958 500.288,909.958 454.938,909.958 454.938,622.995 454.938,909.958 "/>
<path clip-path="url(#clip802)" d="M545.637 622.995 L545.637 499.05 L364.239 499.05 L364.239 622.995 L545.637 622.995 L545.637 499.05 L545.637 622.995  Z" fill="#3da44d" fill-rule="evenodd" fill-opacity="1"/>
<polyline clip-path="url(#clip802)" style="stroke:#000000; stroke-linecap:round; stroke-linejoin:round; stroke-width:4; stroke-opacity:1; fill:none" points="545.637,622.995 545.637,499.05 364.239,499.05 364.239,622.995 545.637,622.995 545.637,499.05 545.637,622.995 "/>
<path clip-path="url(#clip802)" d="M545.637 406.17 L364.239 406.17 L364.239 499.05 L545.637 499.05 L545.637 406.17 L454.938 406.17 L545.637 406.17  Z" fill="#3da44d" fill-rule="evenodd" fill-opacity="1"/>
<polyline clip-path="url(#clip802)" style="stroke:#000000; stroke-linecap:round; stroke-linejoin:round; stroke-width:4; stroke-opacity:1; fill:none" points="545.637,406.17 364.239,406.17 364.239,499.05 545.637,499.05 545.637,406.17 454.938,406.17 545.637,406.17 "/>
<path clip-path="url(#clip802)" d="M454.938 86.0201 L409.588 86.0201 L500.288 86.0201 L454.938 86.0201 L454.938 406.17 L454.938 86.0201  Z" fill="#3da44d" fill-rule="evenodd" fill-opacity="1"/>
<polyline clip-path="url(#clip802)" style="stroke:#000000; stroke-linecap:round; stroke-linejoin:round; stroke-width:4; stroke-opacity:1; fill:none" points="454.938,86.0201 409.588,86.0201 500.288,86.0201 454.938,86.0201 454.938,406.17 454.938,86.0201 "/>
<polyline clip-path="url(#clip802)" style="stroke:#3da44d; stroke-linecap:round; stroke-linejoin:round; stroke-width:0; stroke-opacity:1; fill:none" points="454.938,909.958 409.588,909.958 500.288,909.958 454.938,909.958 454.938,622.995 "/>
<polyline clip-path="url(#clip802)" style="stroke:#3da44d; stroke-linecap:round; stroke-linejoin:round; stroke-width:0; stroke-opacity:1; fill:none" points="545.637,622.995 545.637,499.05 364.239,499.05 364.239,622.995 545.637,622.995 545.637,499.05 "/>
<polyline clip-path="url(#clip802)" style="stroke:#3da44d; stroke-linecap:round; stroke-linejoin:round; stroke-width:0; stroke-opacity:1; fill:none" points="545.637,406.17 364.239,406.17 364.239,499.05 545.637,499.05 545.637,406.17 454.938,406.17 "/>
<polyline clip-path="url(#clip802)" style="stroke:#3da44d; stroke-linecap:round; stroke-linejoin:round; stroke-width:0; stroke-opacity:1; fill:none" points="454.938,86.0201 409.588,86.0201 500.288,86.0201 454.938,86.0201 454.938,406.17 "/>
<path clip-path="url(#clip802)" d="M804.778 1151.98 L759.428 1151.98 L850.128 1151.98 L804.778 1151.98 L804.778 1054.74 L804.778 1151.98  Z" fill="#c271d2" fill-rule="evenodd" fill-opacity="1"/>
<polyline clip-path="url(#clip802)" style="stroke:#000000; stroke-linecap:round; stroke-linejoin:round; stroke-width:4; stroke-opacity:1; fill:none" points="804.778,1151.98 759.428,1151.98 850.128,1151.98 804.778,1151.98 804.778,1054.74 804.778,1151.98 "/>
<path clip-path="url(#clip802)" d="M895.477 1054.74 L895.477 993.873 L714.079 993.873 L714.079 1054.74 L895.477 1054.74 L895.477 993.873 L895.477 1054.74  Z" fill="#c271d2" fill-rule="evenodd" fill-opacity="1"/>
<polyline clip-path="url(#clip802)" style="stroke:#000000; stroke-linecap:round; stroke-linejoin:round; stroke-width:4; stroke-opacity:1; fill:none" points="895.477,1054.74 895.477,993.873 714.079,993.873 714.079,1054.74 895.477,1054.74 895.477,993.873 895.477,1054.74 "/>
<path clip-path="url(#clip802)" d="M895.477 924.011 L714.079 924.011 L714.079 993.873 L895.477 993.873 L895.477 924.011 L804.778 924.011 L895.477 924.011  Z" fill="#c271d2" fill-rule="evenodd" fill-opacity="1"/>
<polyline clip-path="url(#clip802)" style="stroke:#000000; stroke-linecap:round; stroke-linejoin:round; stroke-width:4; stroke-opacity:1; fill:none" points="895.477,924.011 714.079,924.011 714.079,993.873 895.477,993.873 895.477,924.011 804.778,924.011 895.477,924.011 "/>
<path clip-path="url(#clip802)" d="M804.778 746.757 L759.428 746.757 L850.128 746.757 L804.778 746.757 L804.778 924.011 L804.778 746.757  Z" fill="#c271d2" fill-rule="evenodd" fill-opacity="1"/>
<polyline clip-path="url(#clip802)" style="stroke:#000000; stroke-linecap:round; stroke-linejoin:round; stroke-width:4; stroke-opacity:1; fill:none" points="804.778,746.757 759.428,746.757 850.128,746.757 804.778,746.757 804.778,924.011 804.778,746.757 "/>
<polyline clip-path="url(#clip802)" style="stroke:#c271d2; stroke-linecap:round; stroke-linejoin:round; stroke-width:0; stroke-opacity:1; fill:none" points="804.778,1151.98 759.428,1151.98 850.128,1151.98 804.778,1151.98 804.778,1054.74 "/>
<polyline clip-path="url(#clip802)" style="stroke:#c271d2; stroke-linecap:round; stroke-linejoin:round; stroke-width:0; stroke-opacity:1; fill:none" points="895.477,1054.74 895.477,993.873 714.079,993.873 714.079,1054.74 895.477,1054.74 895.477,993.873 "/>
<polyline clip-path="url(#clip802)" style="stroke:#c271d2; stroke-linecap:round; stroke-linejoin:round; stroke-width:0; stroke-opacity:1; fill:none" points="895.477,924.011 714.079,924.011 714.079,993.873 895.477,993.873 895.477,924.011 804.778,924.011 "/>
<polyline clip-path="url(#clip802)" style="stroke:#c271d2; stroke-linecap:round; stroke-linejoin:round; stroke-width:0; stroke-opacity:1; fill:none" points="804.778,746.757 759.428,746.757 850.128,746.757 804.778,746.757 804.778,924.011 "/>
<path clip-path="url(#clip802)" d="M1154.62 1378.55 L1109.27 1378.55 L1199.97 1378.55 L1154.62 1378.55 L1154.62 1251.76 L1154.62 1378.55  Z" fill="#ac8d18" fill-rule="evenodd" fill-opacity="1"/>
<polyline clip-path="url(#clip802)" style="stroke:#000000; stroke-linecap:round; stroke-linejoin:round; stroke-width:4; stroke-opacity:1; fill:none" points="1154.62,1378.55 1109.27,1378.55 1199.97,1378.55 1154.62,1378.55 1154.62,1251.76 1154.62,1378.55 "/>
<path clip-path="url(#clip802)" d="M1245.32 1251.76 L1245.32 1188.79 L1063.92 1188.79 L1063.92 1251.76 L1245.32 1251.76 L1245.32 1188.79 L1245.32 1251.76  Z" fill="#ac8d18" fill-rule="evenodd" fill-opacity="1"/>
<polyline clip-path="url(#clip802)" style="stroke:#000000; stroke-linecap:round; stroke-linejoin:round; stroke-width:4; stroke-opacity:1; fill:none" points="1245.32,1251.76 1245.32,1188.79 1063.92,1188.79 1063.92,1251.76 1245.32,1251.76 1245.32,1188.79 1245.32,1251.76 "/>
<path clip-path="url(#clip802)" d="M1245.32 1155.56 L1063.92 1155.56 L1063.92 1188.79 L1245.32 1188.79 L1245.32 1155.56 L1154.62 1155.56 L1245.32 1155.56  Z" fill="#ac8d18" fill-rule="evenodd" fill-opacity="1"/>
<polyline clip-path="url(#clip802)" style="stroke:#000000; stroke-linecap:round; stroke-linejoin:round; stroke-width:4; stroke-opacity:1; fill:none" points="1245.32,1155.56 1063.92,1155.56 1063.92,1188.79 1245.32,1188.79 1245.32,1155.56 1154.62,1155.56 1245.32,1155.56 "/>
<path clip-path="url(#clip802)" d="M1154.62 1053.53 L1109.27 1053.53 L1199.97 1053.53 L1154.62 1053.53 L1154.62 1155.56 L1154.62 1053.53  Z" fill="#ac8d18" fill-rule="evenodd" fill-opacity="1"/>
<polyline clip-path="url(#clip802)" style="stroke:#000000; stroke-linecap:round; stroke-linejoin:round; stroke-width:4; stroke-opacity:1; fill:none" points="1154.62,1053.53 1109.27,1053.53 1199.97,1053.53 1154.62,1053.53 1154.62,1155.56 1154.62,1053.53 "/>
<polyline clip-path="url(#clip802)" style="stroke:#ac8d18; stroke-linecap:round; stroke-linejoin:round; stroke-width:0; stroke-opacity:1; fill:none" points="1154.62,1378.55 1109.27,1378.55 1199.97,1378.55 1154.62,1378.55 1154.62,1251.76 "/>
<polyline clip-path="url(#clip802)" style="stroke:#ac8d18; stroke-linecap:round; stroke-linejoin:round; stroke-width:0; stroke-opacity:1; fill:none" points="1245.32,1251.76 1245.32,1188.79 1063.92,1188.79 1063.92,1251.76 1245.32,1251.76 1245.32,1188.79 "/>
<polyline clip-path="url(#clip802)" style="stroke:#ac8d18; stroke-linecap:round; stroke-linejoin:round; stroke-width:0; stroke-opacity:1; fill:none" points="1245.32,1155.56 1063.92,1155.56 1063.92,1188.79 1245.32,1188.79 1245.32,1155.56 1154.62,1155.56 "/>
<polyline clip-path="url(#clip802)" style="stroke:#ac8d18; stroke-linecap:round; stroke-linejoin:round; stroke-width:0; stroke-opacity:1; fill:none" points="1154.62,1053.53 1109.27,1053.53 1199.97,1053.53 1154.62,1053.53 1154.62,1155.56 "/>
<path clip-path="url(#clip802)" d="M1504.46 1330.18 L1459.11 1330.18 L1549.81 1330.18 L1504.46 1330.18 L1504.46 1228.64 L1504.46 1330.18  Z" fill="#e26f46" fill-rule="evenodd" fill-opacity="1"/>
<polyline clip-path="url(#clip802)" style="stroke:#000000; stroke-linecap:round; stroke-linejoin:round; stroke-width:4; stroke-opacity:1; fill:none" points="1504.46,1330.18 1459.11,1330.18 1549.81,1330.18 1504.46,1330.18 1504.46,1228.64 1504.46,1330.18 "/>
<path clip-path="url(#clip802)" d="M1595.16 1228.64 L1595.16 1142.69 L1413.76 1142.69 L1413.76 1228.64 L1595.16 1228.64 L1595.16 1142.69 L1595.16 1228.64  Z" fill="#e26f46" fill-rule="evenodd" fill-opacity="1"/>
<polyline clip-path="url(#clip802)" style="stroke:#000000; stroke-linecap:round; stroke-linejoin:round; stroke-width:4; stroke-opacity:1; fill:none" points="1595.16,1228.64 1595.16,1142.69 1413.76,1142.69 1413.76,1228.64 1595.16,1228.64 1595.16,1142.69 1595.16,1228.64 "/>
<path clip-path="url(#clip802)" d="M1595.16 1051.94 L1413.76 1051.94 L1413.76 1142.69 L1595.16 1142.69 L1595.16 1051.94 L1504.46 1051.94 L1595.16 1051.94  Z" fill="#e26f46" fill-rule="evenodd" fill-opacity="1"/>
<polyline clip-path="url(#clip802)" style="stroke:#000000; stroke-linecap:round; stroke-linejoin:round; stroke-width:4; stroke-opacity:1; fill:none" points="1595.16,1051.94 1413.76,1051.94 1413.76,1142.69 1595.16,1142.69 1595.16,1051.94 1504.46,1051.94 1595.16,1051.94 "/>
<path clip-path="url(#clip802)" d="M1504.46 833.448 L1459.11 833.448 L1549.81 833.448 L1504.46 833.448 L1504.46 1051.94 L1504.46 833.448  Z" fill="#e26f46" fill-rule="evenodd" fill-opacity="1"/>
<polyline clip-path="url(#clip802)" style="stroke:#000000; stroke-linecap:round; stroke-linejoin:round; stroke-width:4; stroke-opacity:1; fill:none" points="1504.46,833.448 1459.11,833.448 1549.81,833.448 1504.46,833.448 1504.46,1051.94 1504.46,833.448 "/>
<polyline clip-path="url(#clip802)" style="stroke:#e26f46; stroke-linecap:round; stroke-linejoin:round; stroke-width:0; stroke-opacity:1; fill:none" points="1504.46,1330.18 1459.11,1330.18 1549.81,1330.18 1504.46,1330.18 1504.46,1228.64 "/>
<polyline clip-path="url(#clip802)" style="stroke:#e26f46; stroke-linecap:round; stroke-linejoin:round; stroke-width:0; stroke-opacity:1; fill:none" points="1595.16,1228.64 1595.16,1142.69 1413.76,1142.69 1413.76,1228.64 1595.16,1228.64 1595.16,1142.69 "/>
<polyline clip-path="url(#clip802)" style="stroke:#e26f46; stroke-linecap:round; stroke-linejoin:round; stroke-width:0; stroke-opacity:1; fill:none" points="1595.16,1051.94 1413.76,1051.94 1413.76,1142.69 1595.16,1142.69 1595.16,1051.94 1504.46,1051.94 "/>
<polyline clip-path="url(#clip802)" style="stroke:#e26f46; stroke-linecap:round; stroke-linejoin:round; stroke-width:0; stroke-opacity:1; fill:none" points="1504.46,833.448 1459.11,833.448 1549.81,833.448 1504.46,833.448 1504.46,1051.94 "/>
<path clip-path="url(#clip802)" d="M1854.3 1349.17 L1808.95 1349.17 L1899.65 1349.17 L1854.3 1349.17 L1854.3 1246.97 L1854.3 1349.17  Z" fill="#009af9" fill-rule="evenodd" fill-opacity="1"/>
<polyline clip-path="url(#clip802)" style="stroke:#000000; stroke-linecap:round; stroke-linejoin:round; stroke-width:4; stroke-opacity:1; fill:none" points="1854.3,1349.17 1808.95,1349.17 1899.65,1349.17 1854.3,1349.17 1854.3,1246.97 1854.3,1349.17 "/>
<path clip-path="url(#clip802)" d="M1945 1246.97 L1945 1192.43 L1763.6 1192.43 L1763.6 1246.97 L1945 1246.97 L1945 1192.43 L1945 1246.97  Z" fill="#009af9" fill-rule="evenodd" fill-opacity="1"/>
<polyline clip-path="url(#clip802)" style="stroke:#000000; stroke-linecap:round; stroke-linejoin:round; stroke-width:4; stroke-opacity:1; fill:none" points="1945,1246.97 1945,1192.43 1763.6,1192.43 1763.6,1246.97 1945,1246.97 1945,1192.43 1945,1246.97 "/>
<path clip-path="url(#clip802)" d="M1945 1163.83 L1763.6 1163.83 L1763.6 1192.43 L1945 1192.43 L1945 1163.83 L1854.3 1163.83 L1945 1163.83  Z" fill="#009af9" fill-rule="evenodd" fill-opacity="1"/>
<polyline clip-path="url(#clip802)" style="stroke:#000000; stroke-linecap:round; stroke-linejoin:round; stroke-width:4; stroke-opacity:1; fill:none" points="1945,1163.83 1763.6,1163.83 1763.6,1192.43 1945,1192.43 1945,1163.83 1854.3,1163.83 1945,1163.83 "/>
<path clip-path="url(#clip802)" d="M1854.3 1101.97 L1808.95 1101.97 L1899.65 1101.97 L1854.3 1101.97 L1854.3 1163.83 L1854.3 1101.97  Z" fill="#009af9" fill-rule="evenodd" fill-opacity="1"/>
<polyline clip-path="url(#clip802)" style="stroke:#000000; stroke-linecap:round; stroke-linejoin:round; stroke-width:4; stroke-opacity:1; fill:none" points="1854.3,1101.97 1808.95,1101.97 1899.65,1101.97 1854.3,1101.97 1854.3,1163.83 1854.3,1101.97 "/>
<polyline clip-path="url(#clip802)" style="stroke:#009af9; stroke-linecap:round; stroke-linejoin:round; stroke-width:0; stroke-opacity:1; fill:none" points="1854.3,1349.17 1808.95,1349.17 1899.65,1349.17 1854.3,1349.17 1854.3,1246.97 "/>
<polyline clip-path="url(#clip802)" style="stroke:#009af9; stroke-linecap:round; stroke-linejoin:round; stroke-width:0; stroke-opacity:1; fill:none" points="1945,1246.97 1945,1192.43 1763.6,1192.43 1763.6,1246.97 1945,1246.97 1945,1192.43 "/>
<polyline clip-path="url(#clip802)" style="stroke:#009af9; stroke-linecap:round; stroke-linejoin:round; stroke-width:0; stroke-opacity:1; fill:none" points="1945,1163.83 1763.6,1163.83 1763.6,1192.43 1945,1192.43 1945,1163.83 1854.3,1163.83 "/>
<polyline clip-path="url(#clip802)" style="stroke:#009af9; stroke-linecap:round; stroke-linejoin:round; stroke-width:0; stroke-opacity:1; fill:none" points="1854.3,1101.97 1808.95,1101.97 1899.65,1101.97 1854.3,1101.97 1854.3,1163.83 "/>
<path clip-path="url(#clip802)" d="M2204.14 1349.12 L2158.79 1349.12 L2249.49 1349.12 L2204.14 1349.12 L2204.14 1257.07 L2204.14 1349.12  Z" fill="#f05f73" fill-rule="evenodd" fill-opacity="1"/>
<polyline clip-path="url(#clip802)" style="stroke:#000000; stroke-linecap:round; stroke-linejoin:round; stroke-width:4; stroke-opacity:1; fill:none" points="2204.14,1349.12 2158.79,1349.12 2249.49,1349.12 2204.14,1349.12 2204.14,1257.07 2204.14,1349.12 "/>
<path clip-path="url(#clip802)" d="M2294.84 1257.07 L2294.84 1198.12 L2113.44 1198.12 L2113.44 1257.07 L2294.84 1257.07 L2294.84 1198.12 L2294.84 1257.07  Z" fill="#f05f73" fill-rule="evenodd" fill-opacity="1"/>
<polyline clip-path="url(#clip802)" style="stroke:#000000; stroke-linecap:round; stroke-linejoin:round; stroke-width:4; stroke-opacity:1; fill:none" points="2294.84,1257.07 2294.84,1198.12 2113.44,1198.12 2113.44,1257.07 2294.84,1257.07 2294.84,1198.12 2294.84,1257.07 "/>
<path clip-path="url(#clip802)" d="M2294.84 1164.47 L2113.44 1164.47 L2113.44 1198.12 L2294.84 1198.12 L2294.84 1164.47 L2204.14 1164.47 L2294.84 1164.47  Z" fill="#f05f73" fill-rule="evenodd" fill-opacity="1"/>
<polyline clip-path="url(#clip802)" style="stroke:#000000; stroke-linecap:round; stroke-linejoin:round; stroke-width:4; stroke-opacity:1; fill:none" points="2294.84,1164.47 2113.44,1164.47 2113.44,1198.12 2294.84,1198.12 2294.84,1164.47 2204.14,1164.47 2294.84,1164.47 "/>
<path clip-path="url(#clip802)" d="M2204.14 1100.77 L2158.79 1100.77 L2249.49 1100.77 L2204.14 1100.77 L2204.14 1164.47 L2204.14 1100.77  Z" fill="#f05f73" fill-rule="evenodd" fill-opacity="1"/>
<polyline clip-path="url(#clip802)" style="stroke:#000000; stroke-linecap:round; stroke-linejoin:round; stroke-width:4; stroke-opacity:1; fill:none" points="2204.14,1100.77 2158.79,1100.77 2249.49,1100.77 2204.14,1100.77 2204.14,1164.47 2204.14,1100.77 "/>
<polyline clip-path="url(#clip802)" style="stroke:#f05f73; stroke-linecap:round; stroke-linejoin:round; stroke-width:0; stroke-opacity:1; fill:none" points="2204.14,1349.12 2158.79,1349.12 2249.49,1349.12 2204.14,1349.12 2204.14,1257.07 "/>
<polyline clip-path="url(#clip802)" style="stroke:#f05f73; stroke-linecap:round; stroke-linejoin:round; stroke-width:0; stroke-opacity:1; fill:none" points="2294.84,1257.07 2294.84,1198.12 2113.44,1198.12 2113.44,1257.07 2294.84,1257.07 2294.84,1198.12 "/>
<polyline clip-path="url(#clip802)" style="stroke:#f05f73; stroke-linecap:round; stroke-linejoin:round; stroke-width:0; stroke-opacity:1; fill:none" points="2294.84,1164.47 2113.44,1164.47 2113.44,1198.12 2294.84,1198.12 2294.84,1164.47 2204.14,1164.47 "/>
<polyline clip-path="url(#clip802)" style="stroke:#f05f73; stroke-linecap:round; stroke-linejoin:round; stroke-width:0; stroke-opacity:1; fill:none" points="2204.14,1100.77 2158.79,1100.77 2249.49,1100.77 2204.14,1100.77 2204.14,1164.47 "/>
</svg>
